/* XPM */
static char *_35633730ec44a38f26872baaa5e21e4VRh5j29iUUEyqTvB[] = {
/* columns rows colors chars-per-pixel */
"60 60 230 2 ",
"   c #0099C5",
".  c #00A5CA",
"X  c #01ACCD",
"o  c #0CAFCC",
"O  c #01A1C1",
"+  c #10AACE",
"@  c #02B3CE",
"#  c #0CB3CE",
"$  c #0CBBCE",
"%  c #01AED1",
"&  c #02B4D4",
"*  c #09B6D5",
"=  c #02BAD6",
"-  c #09BAD5",
";  c #01B5D9",
":  c #0BB6D9",
">  c #02BCDB",
",  c #09BDDB",
"<  c #16BBD6",
"1  c #1CBDD6",
"2  c #12BDDA",
"3  c #1BBFDC",
"4  c #27BEDB",
"5  c #02BEE2",
"6  c #0BBEE0",
"7  c #53BDD3",
"8  c #02C2D6",
"9  c #02C2DD",
"0  c #0AC3DD",
"q  c #05CADE",
"w  c #0DCADE",
"e  c #13C3DD",
"r  c #1BC5DD",
"t  c #13C9DD",
"y  c #14C3D6",
"u  c #21C2DD",
"i  c #25C8DF",
"p  c #2CC9DF",
"a  c #27C3D8",
"s  c #36CADD",
"d  c #3AC7DA",
"f  c #2ED0DF",
"g  c #02C4E2",
"h  c #0BC5E2",
"j  c #03CAE4",
"k  c #0BCBE4",
"l  c #00C6E9",
"z  c #03CCEA",
"x  c #0BCDE9",
"c  c #09C7E9",
"v  c #14C5E2",
"b  c #1AC6E1",
"n  c #13CCE4",
"m  c #1BCCE4",
"M  c #12CDE9",
"N  c #1ACEE8",
"B  c #03D0E6",
"V  c #0BD1E5",
"C  c #03D2EB",
"Z  c #0CD2EC",
"A  c #0BD9ED",
"S  c #13D1E6",
"D  c #1CD2E6",
"F  c #14D3EB",
"G  c #1CD3EB",
"H  c #13D9EC",
"J  c #1DD8EC",
"K  c #08D7F3",
"L  c #16D5F1",
"P  c #1BD5F1",
"I  c #14DBF2",
"U  c #1BDDF3",
"Y  c #15DBF8",
"T  c #23C6E1",
"R  c #22CDE4",
"E  c #2BCDE4",
"W  c #23CFE9",
"Q  c #29CBE4",
"!  c #34CDE4",
"~  c #3ACDE3",
"^  c #33CFEB",
"/  c #38CFEA",
"(  c #24D3E6",
")  c #2BD2E6",
"_  c #23D4EB",
"`  c #2BD4EB",
"'  c #24D9ED",
"]  c #2DD9ED",
"[  c #33D3E6",
"{  c #3BD4E6",
"}  c #33D5EA",
"|  c #3CD5EA",
" . c #34D9EC",
".. c #3BDAED",
"X. c #3ED8E4",
"o. c #25DBF2",
"O. c #2BDCF2",
"+. c #22D6F1",
"@. c #33D6F0",
"#. c #34DCF2",
"$. c #3BDCF1",
"%. c #25E2F9",
"&. c #3EE2F5",
"*. c #34E2F6",
"=. c #44C7DA",
"-. c #42CBDD",
";. c #56CEDE",
":. c #42D1DF",
">. c #59D1DF",
",. c #42CFE2",
"<. c #4CCDE2",
"1. c #43D3E5",
"2. c #4BD3E4",
"3. c #43D6EA",
"4. c #4CD7E9",
"5. c #44DBEC",
"6. c #4CDBEC",
"7. c #46D9E7",
"8. c #51D4E7",
"9. c #5BD5E4",
"0. c #53D9E4",
"q. c #5CD9E7",
"w. c #54D6EA",
"e. c #5BD7E9",
"r. c #53DCED",
"t. c #5BDCEC",
"y. c #43DCF1",
"u. c #4BDDF1",
"i. c #53DEF1",
"p. c #5BDEF1",
"a. c #65D5E5",
"s. c #6AD9E4",
"d. c #63DDEC",
"f. c #6CDEED",
"g. c #6BD5E5",
"h. c #73DBE5",
"j. c #74DDEB",
"k. c #7BDDEB",
"l. c #79D6E5",
"z. c #62DFF0",
"x. c #6CDFF1",
"c. c #73DEF0",
"v. c #4BE0EF",
"b. c #44E0ED",
"n. c #55E1EE",
"m. c #5CE1EE",
"M. c #44E1F4",
"N. c #4DE1F2",
"B. c #47E4FA",
"V. c #53E2F3",
"C. c #5CE3F3",
"Z. c #51E8F5",
"A. c #5EE9F7",
"S. c #52E5F9",
"D. c #5DE5F9",
"F. c #5BEAFB",
"G. c #65E2EE",
"H. c #6BE2EE",
"J. c #73E2EE",
"K. c #7BE3ED",
"L. c #63E3F2",
"P. c #6BE4F3",
"I. c #62E8F5",
"U. c #6DE9F5",
"Y. c #63E5F8",
"T. c #65EBFA",
"R. c #6CEAFA",
"E. c #6FE7F8",
"W. c #74E5F2",
"Q. c #7BE5F2",
"!. c #73E9F5",
"~. c #7CE9F5",
"^. c #75EBFA",
"/. c #7CEBFA",
"(. c #78E6F8",
"). c #6DF2FB",
"_. c #82DFEC",
"`. c #83E4EE",
"'. c #8CE5ED",
"]. c #88E5E9",
"[. c #94E5EE",
"{. c #98E4EC",
"}. c #93E9EF",
"|. c #9DE9EE",
" X c #84E6F2",
".X c #8CE5F2",
"XX c #83EAF4",
"oX c #8BEAF5",
"OX c #84ECF9",
"+X c #8CECF9",
"@X c #92E6F2",
"#X c #94EBF4",
"$X c #9CEBF4",
"%X c #94EDF8",
"&X c #9BEFF9",
"*X c #85F1FC",
"=X c #9DF0F6",
"-X c #93F2FA",
";X c #9CF2FB",
":X c #97F0F6",
">X c #A4E7EF",
",X c #AEE9EE",
"<X c #A5E2E5",
"1X c #B3EAED",
"2X c #A3ECF4",
"3X c #ABEDF4",
"4X c #A4EFF9",
"5X c #ACEFF9",
"6X c #B3EDF4",
"7X c #BCEFF3",
"8X c #A4F1F6",
"9X c #A6F1FA",
"0X c #ADF3FA",
"qX c #ACF4FA",
"wX c #B5F1F6",
"eX c #BBF3F6",
"rX c #B3F4FB",
"tX c #BBF4F9",
"yX c #B7F8FC",
"uX c #C7EEEB",
"iX c #D2F1EC",
"pX c #C2EDF3",
"aX c #C3F2F6",
"sX c #C4F5F9",
"dX c #CDF6F9",
"fX c #C8F7F9",
"gX c #D6F9FA",
"hX c #D8F7F8",
"jX c #FFF8EE",
"kX c #E3F8F8",
/* pixels */
"M.Z P S.S.^.tX$XN.J L #.+X6.V w m _ A.m.b.C.( V X.U.( m D H.qXqXyXrXQ.U.n.X.iX).*...(  .C H ] G.=X+X!.C.V.Z.N.m.N.N.&.G ",
"@.+.P./.V.~...#.o.Z V.qXV.F k j S V.~.n.[ ( ' ' C.] 9 8 V U.tXuX3X'...|.K.B 6XgXE.S B J  .P.V.H F ` y.O.G ' F J _ } O.j ",
"z N ^.#.V.' l N  .A.D.5.z k V $.*XG.v.n.( S J F.A.B j j C C.sXiX1X|.T.!.A.}.}.qXP.A V | +XP.W.C.z l z C B C C Z *.V./.#.",
"N O.^.P.y.z g j F 5.Z Z F ] m.8XK.J S ` J D O.yXF.A B j C Z.rXqX:XI.~.v.Z.].>XwX#.B H ..( > l W./.Z.#.H F 6.H H L P b.P.",
"P o.D.~.*.x c C ' o.x _ H !.W.G.( S k k H V.8XeX).K B j j b.:X/.*XL.XXU.Z.H  .H.v.V./. .9 > Z ] _ z.tX9X/.^.S.%.R.$.F u.",
"l l i.C.+.x x x ' +.j x I OXv.S B k x j  .OX.. .=X8XI.n.n.U.I.U.~.I.m.I. .] ' D m.6.}  .] J $._ j u.P.Q.jXqXF.R.~.I L K ",
"c S.Z.J L c l o...' z Z U.XXh M k 0 z x N.*.F H n.I.' H X.&.V.%.B D ] q B V D D V 0 q n.$X:X&X%XS.L.P ..kXyXR./.R.K K Z ",
"N.L.P P J z H D.S.O.O.C.W.` c g h c k V.V.V.N.C...A D ' B B [  .v.X.B ( ' S q S ~.~.G.i y s.oX#X0XC.y.` r..XaX0XD.C z L ",
"..Z P ] Z o.*./.D.F t.V.c h , h g H N...m.rXoX~.=X^. .] S q q ..=XoXH.:XoX!.A H Q.yX| = > 8 t.5.2X/.G C Z Z C.|.4XB.Z G ",
"g N Y.u.S.E.#.5.D z ] M 0 g > > D R. .' ;XdX'.oX*X*.v.[ J V v.n.G.].f |.qXZ.B C Q.rXS @ - > q.W.,X$Xo.H z Z ' Z 3.#XC.L ",
"l ..y.G u.L.o.M g M o.g g , > N W.L.H L.yXsX2X2X!.F.M.A B b.XXJ H D S  .n.n.G.I.G.XXm = 9 > ` W.e.2X*X%.L Z F x z F P.E.",
"D.$.l o.O.6.O.Z z y.b.z 5 > l V. .] F.8XsXH.n.M.L.Q.n.b.H.C.n.H.G.~...q V [ n.f 9 = [ O.l g g _ C _ ,X-XY L F c M G Z e.",
"z.G $.4XT.U Z.E.*X8Xo.F z M n.N.S  .#XU.V.' H _ S B w G.Q.n.:Xn.f 8 ` ( S >.I.8 w 0 V ].8X*.z j _ z | aX).F x Z P } G F ",
"j c XXfX&X X$X6XsXP.G.V.C.~.OX] l n.V.G S u...J V V w n.S W.8XJ @ = w ' B m.K.V r.b.8 & 9.wXZ.o._ G G _ W.&.y.C.z.S.$.o.",
"l M L. Xm.` $.&X+XM.V ..OXoXXXM.v.T.m.S.U.rX~.*. .' ' b.D n.v.D = q 8 D ( X.>.H 2Xm.9 > g w.t.oX^.$.Z l x H.9XP.i.R.o.` ",
"5 Z S.m N ' I.$XXXC.] u.P.[ } Q.%XoXd.t.sXI.k k S ..G.] n.V ) f 9 8 8 t b.8 t b.;.X.j > 5 m ] 6.dXrX#.K C J (...u.5XY.M ",
"l u.y.5 v _ D.} D D D | N 0 D OXW.5.D G.d.S j j j 5.I.7.v.q ` ( A 8 8 ( r.= 8 [ 8 - J 9 > h } @.G.@X+XI C C V...p.0XF.K ",
"S.+XF c M _ ] x x G F N 9 j  .r.3.] y.5.g h z U.:XoXf ] ' A B B B S F C.v.9 D J S 8 D C > , } ` ( r.=X&.C Z r.D.P.9X%.I ",
"oX5.S M _ ] k v c S x g k _ } v ` 6.r.D k g K.@XG.5.( q ( n.!.U.I.8X0X%X#XU.B.' Z z 0 D 5 > $.N n 6.#X%X' F !.L._ W.R.D.",
"$.x j N C.N x x _ $.F k v N k M 5.T 2 k 9 n.~.J B V 7.J ..aX3X=XG.t 8 m.H.].tXU  ._ l v x ..$XD l M | d.(.i.L.] z j ` t.",
"_ F x ` C.x m _ i.oXC.` _ W M [ P.0 0 9 ` XXn ` C.Z.D Q.wXv.q q q 9 9 t ] } 7X%.G Z j j Q.n.} d.] g 9 g j @.O.Z z z J P ",
"6 h l W D.` ` t.!.+X(.$.V.D M C.m.' N x ~.R j 5.n.y f G.w  .g 9 0 q j j b.J }.#XU.U.M.U.XXF j h d...z z G Z P.Q.L.Y./.} ",
"l l 5 l _ G oX/.r.C.y.S.~.G  .~...G x n._ 9 N _ 8 @ 1.R 9 ] j 9 j Z C B m. .( 5.r.J.2X3X~.#X*XO.x d.U.`.9XY.] 5.Q.4Xi.Z ",
"^.E.p.+X/.Q.#XW.C.u.z.J.$Xu.C.oXN.B _ Q.G $...j 9 9 d.g q ( F 8 j S Z j  .P.] Z _ ..G.J.4.K.2X2XC.] @.5..X XXXS.M } (.o.",
"5X#XrXdXP.u.W W J.I._ @.(.!.P.^.{ y.qXr.| K.&X] g | 3.> j h D h j D _ H c r. .V.| 5.oX] j k _ 3.H.2X$X$X-X&..X&X@._  XOX",
"M #.P.#.` _ h k ` (. .D P.&XoXV.I.Q.d.( H _ '.6.$.Q.: 0 _ j j ' S 5...D j )  .r.) I.} [ _ G g g ) r.C S s.6XY.XXrXY.8.pX",
"Z O.] _ $.G h k G P.P.J XX%Xr.oXd.R j C.%X!.G.5.rX~.= R v.k 9 _ 6.U...j 9 g o.N.6.j j n N  .g > 9 r.u.F l | 8XXX2X%X+.c.",
"y.V.D $.] F c j D C.XXrX$Xr.| | 9 e t.=XH.>XwX;XrX6.> 6.b.j j S r.%X .z _ U.$X X' B x q 9 q D x h m 6.Z M ` ` y.} x.~.L ",
"E.y.Z 5.$.G N ` V.P.@XG.} n ` 0 , R #Xr...] K.hX#Xj k !.' S j ( 6.P.$X#X.XG.[ N :.s.C.j g 0 oXF.F 0 0 ` x.M c F F y.#Xy.",
"i.] u.u. .D ` P.W.J.u.m m v R , , r.) v { 6.t.n [ n.%XQ.j m z r.oX4XQ.6.x z B q 0 g p r.z j 4XqXM.g 9 | r.| C C $.%XQ.$X",
"M M m ] ` R }  ...$.` D M v 0 > ( t.j j 9 f.x.= & h.#X X5.' W.eX$Xr.( k = k ..m.D g z 2.~.O.2X3X@XG v &.j | V.C p.W.} z.",
"_ M _ #.} _  ._ ) ` ) _ j v 0 k W.! ` w g j.M = y ) > R d.2XsXK.6.D k > 8 1.7.w.$.` D 9 9.2XW.x r r.#.u...z.j.] 5 l c _ ",
".._ $._ D x i...x _  ...} _ j P.oX( R m ( R , > ) v = > 9 Q.5.S | J q 9 ( 4.q ] K.r.j 0 v m ( M l H.rXI.` v n M l j g 3.",
"+.$.~.Y.N.O.I.P._ ..P.oXXX'.'.$X4.v. .m.| > & k ( g > ; b n._ | _ G h M } v 9 z D ( c > v S h ] E.'..Xr.l > > M /.5Xx.L.",
"I.$XoXoXoX%X;X$.i.8XrXj.>.o d ~ s K.$XW.( , ; [ ( 0 > ; E D q 1.d.W.M. .` 9 , , 0 0 S g W F ` 0X2XV E )  .c g M.kXkXx.! ",
"oXP._ G { oX2X#X2Xj.N 9 %   * - & -.3X| R h v K.N M > 9 | 9 j k J.eXtXoX} 9 , = 9 > t D P.Y.#X$X| _ M x r.S.l F B. Xx 5 ",
"P.(.D...` G [ XX} r } > 3   : : & # _.P.k R | m.q D x d.r.9 9 { K.j.6XtXC.z j 9 h > > Q.'.`.4X| ) x k } 5.Q.F D.x.$.h ; ",
"5.t.P.r._ h 0 4.` > 2 , v 6 5 ; X > 4.m.j i W.5.N m oXfX%X_ ( K.) t 1.7XfX^.D.S.F g j 5.N '.Q.N 3.O.x ` m.oX9X6.g r.c % ",
"_ M v n M x g P.3.P v . T E _ 5 X @ a.6.g u K.} ( .XwXH.{.3X2XJ g > 0 { s.K.K.,X#X+X3X4X;XW.f.u.Q.$XZ k r.Q.} l b u.l 5 ",
"..$.W k l z y.8X4.N ] ; : , 4.M % X =.7.q [ ) ` @XwXJ.4.{ _ J. .> = t S D k F S |.oX.X'.4.J.(.aX~.} ` Z t.G.c l l ^ _ 5 ",
"` $.C.#XL.oXfX} g k k  .b g | _ > = ! m r d.d.3XK.7.t.) w } D q.k > ( n ` x [ 2Xi.F D M g 8.eXoXr.l g ] XXN h 3.z.y.k.@.",
"k m [ x.H.@Xi.9 = > > e 6.' H.~...d. Xx P.2XwXoXp.t R k i J.9 r 6.R X.N G.wXhX;X' W 4.F g d.p.j m ` l } tXE.W.t./ @.u.>X",
"h 6 M c j (.oXx = = = ; i $Xt.5.P.J.3.h.fXL.) wX~.D 8 n 6.n.m ; q.oXt.d.aXeXK.$X4XW.2XY.l x.` > , 5 m z.k.5Xu.l 5 @.u.u.",
"6 g S D } J.sXF.l > ; & r m.D 9 9 R % 7 XXg R |.XXm 0 1.[ 8 { 9 ~ rX..f.d.S j X.3X6Xt.J.#XE.5 , : > h 2XY.| i.i.E.y.w.i.",
"5 v G _  .6.tX4Xy.D ; % [ C.j 9 k { X l.XXN 4.f.s.( 0 k = = 0 ) w.wX~.[ ( n q ) H.3.l g q.oXj g , ; E wX+XZ l j.tX@.W z.",
"g } N.J C | 8Xp.` ` _ = q.W. .y.` 5.4.5XG.| 7.{ > t.} j > = = ~ oX6.J.k 7.M _  .c g 0 g g ! f.M 5 ! 3X@.W.$.z 3.z.w.c 8.",
"F $.C.G z } 4X` x 0 8 h '.{ s.$Xp.J.eXW.f.6.q.$X4.}.eXf.8 > Q f.( j k ` Q.[ ] F g > , > k h m f.p.$X@Xm.l 3 3. X#Xu.l 3 ",
"y. .i.F g | %XD h D M G.6.j m j 4.hXW.` E q.eXH.j.e., ;.J.E q.` = 0 9 X.@X6.j z > > ; - h _ g > <X^.z 1.` ; ~ sXi.x.E.` ",
"y.u.] F g 3.P.M h h w.$XM b ` f.dXL.x [ 0 2.$X> X a ! X a >X5.9 0 j k t.j.4.z ] ` g ; > h _ l t e...G M ( W T 2X@.| c. X",
"D u.$.D g e.} h > > Q W.9 r wXdXoXM 0 v n G.6.= # X 2.r . 4 _.W.7.` | |.W.Q.d.C.5.3.| 3.D.} l | i.M g > E (.$X!.u.@.c T ",
"M u.u.m M  X@.g > > 3.W.[ q.q.E [ ( 0 m { Q.N = % X o 2.O . >.W.k { 2XP.8 u 3.D 4.| d.`.>X6X} > W.l > , 4.W ,.x.i.p.M m ",
"_ y.P.y.t. XM = > R 2X&X! % R v 1 [ 8 | f.`.| > & - & s 4 - m 2.( e.6XW.W & !  .t h t l 1.R 1.3.3.T l D m g > c.| 3.d.u.",
"i.D W.p..X+Xh m 3. X2Xx.; @ 2 4.r 3.R 4.m s f.h & @ 9.0 =.t.& < j.6X#X.X6.g 0 0 > = & b x.g & {.} > ) T.P k c w.p.m j./ ",
"| ^ oXy.@X(.h ] } W.4.r.% O X u J. X] t 0 0 e.] > : j.w.4.! * b k.eX(.e.q.] v X = 9 > b t.l 5 d.`.3._.wX6X'.$.N } 5 R M ",
"b ! 4.Q.oXc g k r.Q.| 4.& X % & [.u.9 0 0 R 3.m t d.m # ! j.d.( f.@X8.! ) w._ = & j g '.N.g } Q a.Q.d.i.4 > ~ c c 6 6 3 ",
"v 6 3.gX#Xr.u.Q.5XP.t.w.> o . < $XG > @ 0 p w.> s XXv e , q.E 2X`.J.} 6.E 3.D 0 > g a.7XC.| 3.0 9.6.b N 5 > h | N c l 5 ",
"} b $X#Xt.3.e | d.z.} b h * % <..X} g b 3.! d.v q.$Xq.W R {.Q.{ ! 8.p t.d.$X! ; 9 {.dX$Xr. X Xg ~ z.r.5.` W @. X^ w.^ ; ",
"} p.4XM N ; 0 h W | W 0 n , . g.W.c.@X$X4.m 3.@X8.0 * . -.6X/ > i 8.t R d.hXoX! ~ $X$.u.= ~ x.` 3.b d.3./ _.rXOXc b y.5 ",
"5.$XL.g n v g 6 0 m m & o T & {.$XW.d.| h > j.$X& = * 3 j.R > ; ,.c.! w.J.P.4.@X$XP.x.w.= 3 4.| w.% | ` / >X$X X@.l 5 +.",
"x.4XC.> i.| g h , M > * % Q t.3X2X3.0 Q m ,.>Xp.; > 0 T 3.{ v g g.i.3.Q.G.| x W 3X.Xt.R g , 3.h 4.& ,.@.3.4Xl.a.p.p.3.i."
};
