/* XPM */
static char *result[] = {
/* columns rows colors chars-per-pixel */
"60 60 58 1 ",
"  c #AC1515",
". c #B11616",
"X c #B81917",
"o c #BE1F1D",
"O c #D4231C",
"+ c #D6231D",
"@ c #D7241E",
"# c #ED1C23",
"$ c #D62B25",
"% c #D7342D",
"& c #EE2228",
"* c #E9282B",
"= c #E9292C",
"- c #EA2A2D",
"; c #EA2B2E",
": c #EB2E31",
"> c #EE2D34",
", c #EA3033",
"< c #EC3234",
"1 c #ED3639",
"2 c #EF363C",
"3 c #DA443E",
"4 c #F03E44",
"5 c #DC4C47",
"6 c #DF5D58",
"7 c #EB4043",
"8 c #F04244",
"9 c #F0474C",
"0 c #F6484B",
"q c #F44F51",
"w c #F9575A",
"e c #FA5E60",
"r c #E16560",
"t c #E26662",
"y c #E26E69",
"u c #E46F6B",
"i c #F26065",
"p c #FA6465",
"a c #FC6566",
"s c #FE6E6F",
"d c #E47671",
"f c #FE7070",
"g c #FE7172",
"h c #FF7575",
"j c #FF7A7A",
"k c #FF7F7F",
"l c #F6878A",
"z c #FE898A",
"x c #EC9F9C",
"c c #F69497",
"v c #FF9090",
"b c #FF9999",
"n c #EEA7A4",
"m c #FFA0A0",
"M c #F8A4A7",
"N c #FAB4B6",
"B c #FBB6B8",
"V c None",
/* pixels */
"VVVVVVVVVVVVVVVVVVVVVVVVVVVVVVVVVVVVVVVVVVVVVVVVVVVVVVVVVVVV",
"VVVVVVVVVVVVVVVVVVVVVVVVVVVVVVVVVVVVVVVVVVVVVVVVVVVVVVVVVVVV",
"VVVVVVVVVVVVVVVVVVVVVVVVVVVVVVVVVVVVVVVVVVVVVVVVVVVVVVVVVVVV",
"VVVVVVVVVVVVVVVVVVVVVVVVVVVVVVVVVVVVVVVVVVVVVVVVVVVVVVVVVVVV",
"VVVVVVVVVVVVVVVVVVVVVVVVVVVVVVVVVVVVVVVVVVVVVVVVVVVVVVVVVVVV",
"VVVVVVVVVVVVVVVVVVVVVVVVVVVVVVVVVVVVVVVVVVVVVVVVVVVVVVVVVVVV",
"VVVVVVVVVVVVVVVVVVVVVVVVVVVVVVVVVVVVVVVVVVVVVVVVVVVVVVVVVVVV",
"VVVVVVVVVVVVVVVVVVVVVVVVVVVVVVVVVVVVVVVVVVVVVVVVVVVVVVVVVVVV",
"VVVVVVVVVVVVVVVVVVVVVVVVVVVVVVVVVVVVVVVVVVVVVVVVVVVVVVVVVVVV",
"VVVVVVVVVVVVVVVVVVVVVVVVVVVVVVVVVVVVVVVVVVVVVVVVVVVVVVVVVVVV",
"VVVVVVVVVVVVVVVVVVVVVVVVVVVVVVVVVVVVVVVVVVVVVVVVVVVVVVVVVVVV",
"VVVVVVVVVVVVVVVVVVVVVVVVVVVVVVVVVVVVVVVVVVVVVVVVVVVVVVVVVVVV",
"VVVVVVVVVVVVVVVVVVVVVVVVVVVVVVVVVVVVVVVVVVVVVVVVVVVVVVVVVVVV",
"VVVVVVVVVVVVVVVVVVVVVVVVVVVVVVVVVVVVVVVVVVVVVVVVVVVVVVVVVVVV",
"VVVVVVVVVVVVVVVVVV-fhhhhhhhhhhhhhhhhhhhwVVVVVVVVVVVVVVVVVVVV",
"VVVVVVVVVVVVVVVVVV*;fhhhhhhhhhhhhhhhhha##VVVVVVVVVVVVVVVVVVV",
"VVVVVVVVVVVVVVVVV***:hhhhhhhhhhhhhhhjs###VVVVVVVVVVVVVVVVVVV",
"VVVVVVVVVVVVVVVVV****1hhhhhhhhhhhhhjz&####VVVVVVVVVVVVVVVVVV",
"VVVVVVVVVVVVVVVV******8hhhhhhhhhhhhml#####VVVVVVVVVVVVVVVVVV",
"VVVVVVVVVVVVVVVV*******qhhhhhhhhhhvNMi#####VVVVVVVVVVVVVVVVV",
"VVVVVVVVVVVVVVV*********phhhhhhhkbBMMMi2###VVVVVVVVVVVVVVVVV",
"VVVVVVVVVVVVVV***********phhhhhhh0>cM4######VVVVVVVVVVVVVVVV",
"VVVVVVVVVVVVVV***********=fhhhhhe##9i########VVVVVVVVVVVVVVV",
"VVVVVVVVVVVVV*************;fhhha####4########VVVVVVVVVVVVVVV",
"VVVVVVVVVVVVV**************<hhg&##############VVVVVVVVVVVVVV",
"VVVVVVVVVVVV********,7******1g&###############VVVVVVVVVVVVVV",
"VVVVVVVVVVVV@+++++++tu+++++++o................VVVVVVVVVVVVVV",
"VVVVVVVVVVVVVOOOOOO3xn5OOOOOOX                VVVVVVVVVVVVVV",
"VVVVVVVVVVVVVVOOO$rnnnnd%OOOOX               VVVVVVVVVVVVVVV",
"VVVVVVVVVVVVVVVOOOO5xn6OOOOOOX              VVVVVVVVVVVVVVVV",
"VVVVVVVVVVVVVVVOOOOO6yOOOOOOOX             VVVVVVVVVVVVVVVVV",
"VVVVVVVVVVVVVVVVOOOO$3OOOOOOOX            VVVVVVVVVVVVVVVVVV",
"VVVVVVVVVVVVVVVVVOOOOOOOOOOOOX           VVVVVVVVVVVVVVVVVVV",
"VVVVVVVVVVVVVVVVVVOOOOOOOOOOOX           VVVVVVVVVVVVVVVVVVV",
"VVVVVVVVVVVVVVVVVVVOOOOOOOOOOX          VVVVVVVVVVVVVVVVVVVV",
"VVVVVVVVVVVVVVVVVVVVOOOOOOOOOX         VVVVVVVVVVVVVVVVVVVVV",
"VVVVVVVVVVVVVVVVVVVVVOOOOOOOOX        VVVVVVVVVVVVVVVVVVVVVV",
"VVVVVVVVVVVVVVVVVVVVVOOOOOOOOX       VVVVVVVVVVVVVVVVVVVVVVV",
"VVVVVVVVVVVVVVVVVVVVVVOOOOOOOX      VVVVVVVVVVVVVVVVVVVVVVVV",
"VVVVVVVVVVVVVVVVVVVVVVVOOOOOOX     VVVVVVVVVVVVVVVVVVVVVVVVV",
"VVVVVVVVVVVVVVVVVVVVVVVVOOOOOX     VVVVVVVVVVVVVVVVVVVVVVVVV",
"VVVVVVVVVVVVVVVVVVVVVVVVVOOOOX    VVVVVVVVVVVVVVVVVVVVVVVVVV",
"VVVVVVVVVVVVVVVVVVVVVVVVVVOOOX   VVVVVVVVVVVVVVVVVVVVVVVVVVV",
"VVVVVVVVVVVVVVVVVVVVVVVVVVOOOX  VVVVVVVVVVVVVVVVVVVVVVVVVVVV",
"VVVVVVVVVVVVVVVVVVVVVVVVVVVOOX VVVVVVVVVVVVVVVVVVVVVVVVVVVVV",
"VVVVVVVVVVVVVVVVVVVVVVVVVVVVOXVVVVVVVVVVVVVVVVVVVVVVVVVVVVVV",
"VVVVVVVVVVVVVVVVVVVVVVVVVVVVVVVVVVVVVVVVVVVVVVVVVVVVVVVVVVVV",
"VVVVVVVVVVVVVVVVVVVVVVVVVVVVVVVVVVVVVVVVVVVVVVVVVVVVVVVVVVVV",
"VVVVVVVVVVVVVVVVVVVVVVVVVVVVVVVVVVVVVVVVVVVVVVVVVVVVVVVVVVVV",
"VVVVVVVVVVVVVVVVVVVVVVVVVVVVVVVVVVVVVVVVVVVVVVVVVVVVVVVVVVVV",
"VVVVVVVVVVVVVVVVVVVVVVVVVVVVVVVVVVVVVVVVVVVVVVVVVVVVVVVVVVVV",
"VVVVVVVVVVVVVVVVVVVVVVVVVVVVVVVVVVVVVVVVVVVVVVVVVVVVVVVVVVVV",
"VVVVVVVVVVVVVVVVVVVVVVVVVVVVVVVVVVVVVVVVVVVVVVVVVVVVVVVVVVVV",
"VVVVVVVVVVVVVVVVVVVVVVVVVVVVVVVVVVVVVVVVVVVVVVVVVVVVVVVVVVVV",
"VVVVVVVVVVVVVVVVVVVVVVVVVVVVVVVVVVVVVVVVVVVVVVVVVVVVVVVVVVVV",
"VVVVVVVVVVVVVVVVVVVVVVVVVVVVVVVVVVVVVVVVVVVVVVVVVVVVVVVVVVVV",
"VVVVVVVVVVVVVVVVVVVVVVVVVVVVVVVVVVVVVVVVVVVVVVVVVVVVVVVVVVVV",
"VVVVVVVVVVVVVVVVVVVVVVVVVVVVVVVVVVVVVVVVVVVVVVVVVVVVVVVVVVVV",
"VVVVVVVVVVVVVVVVVVVVVVVVVVVVVVVVVVVVVVVVVVVVVVVVVVVVVVVVVVVV",
"VVVVVVVVVVVVVVVVVVVVVVVVVVVVVVVVVVVVVVVVVVVVVVVVVVVVVVVVVVVV"
};
