/* XPM */
static char *_7e573cf0ca54e53bbfec8d2b29e2c5atqdkg6CaTotq42T1[] = {
/* columns rows colors chars-per-pixel */
"60 60 239 2 ",
"   c None",
".  c #000302",
"X  c #000A06",
"o  c #000D09",
"O  c #00130C",
"+  c #011703",
"@  c #001B12",
"#  c #101705",
"$  c #002704",
"%  c #003200",
"&  c #00340D",
"*  c #002116",
"=  c #002519",
"-  c #002A1C",
";  c #0A3010",
":  c #222401",
">  c #012B24",
",  c #003532",
"<  c #004900",
"1  c #005909",
"2  c #0A4A15",
"3  c #2D4911",
"4  c #006404",
"5  c #047706",
"6  c #007113",
"7  c #3A7211",
"8  c #2B5728",
"9  c #46590D",
"0  c #657009",
"q  c #436C29",
"w  c #4E7E17",
"e  c #003E45",
"r  c #004959",
"t  c #00465D",
"y  c #04555B",
"u  c #115855",
"i  c #094D48",
"p  c #036559",
"a  c #097E56",
"s  c #2C714B",
"d  c #004C6E",
"f  c #004A67",
"g  c #01546D",
"h  c #025B6C",
"j  c #025A65",
"k  c #004F74",
"l  c #005373",
"z  c #005D73",
"x  c #10596A",
"c  c #03646B",
"v  c #036C6C",
"b  c #056B67",
"n  c #04746E",
"m  c #047B6D",
"M  c #067A6B",
"N  c #036C70",
"B  c #016673",
"V  c #017373",
"C  c #057A72",
"Z  c #17786C",
"A  c #207268",
"S  c #40794D",
"D  c #00930C",
"F  c #00A511",
"G  c #2FAA1E",
"H  c #578739",
"J  c #518D3A",
"K  c #73A62A",
"L  c #58A222",
"P  c #2BFF1E",
"I  c #33FF1D",
"U  c #3CFF1C",
"Y  c #0BFF23",
"T  c #1CFF20",
"R  c #15FF21",
"E  c #26E337",
"W  c #4CFF19",
"Q  c #43FF1B",
"!  c #5DFF17",
"~  c #53FF18",
"^  c #64FF16",
"/  c #6CFF15",
"(  c #66F717",
")  c #74FF14",
"_  c #7BFF13",
"`  c #7FFF1B",
"'  c #68F00D",
"]  c #6ADB38",
"[  c #50FF26",
"{  c #74F631",
"}  c #52CA27",
"|  c #0E9155",
" . c #2F9457",
".. c #0AAA5C",
"X. c #19A955",
"o. c #0BB85A",
"O. c #12B455",
"+. c #34AA58",
"@. c #2CB452",
"#. c #05836C",
"$. c #068B6B",
"%. c #0B866B",
"&. c #128D6D",
"*. c #099563",
"=. c #099B63",
"-. c #06936A",
";. c #089C69",
":. c #069969",
">. c #1D9C6D",
",. c #16946D",
"<. c #018372",
"1. c #028D71",
"2. c #029771",
"3. c #148477",
"4. c #299468",
"5. c #08A567",
"6. c #16A666",
"7. c #07B86A",
"8. c #1CB665",
"9. c #02AA71",
"0. c #03B871",
"q. c #23A46D",
"w. c #2BAC6C",
"e. c #26A86D",
"r. c #34AC6A",
"t. c #2BB46B",
"y. c #33B46D",
"u. c #3BBC6C",
"i. c #39B868",
"p. c #4A9050",
"a. c #54AF4E",
"s. c #6CB04C",
"d. c #65A966",
"f. c #16CE4A",
"g. c #2AC54C",
"h. c #04CD6B",
"j. c #3EC16D",
"k. c #2CC268",
"l. c #0BE261",
"z. c #41CA49",
"x. c #70C951",
"c. c #73F645",
"v. c #43C46C",
"b. c #4BCB6C",
"n. c #47C86A",
"m. c #53CD69",
"M. c #54D26B",
"N. c #5CD669",
"B. c #4DD16C",
"V. c #65DC68",
"C. c #6EE267",
"Z. c #6AE26D",
"A. c #75E96A",
"S. c #7BEC69",
"D. c #72E668",
"F. c #7FF06D",
"G. c #9FA504",
"H. c #86B030",
"J. c #A0BC26",
"K. c #99A70F",
"L. c #8ED313",
"P. c #B9CC07",
"I. c #94FF0F",
"U. c #9BFF0E",
"Y. c #83FF12",
"T. c #8BFF10",
"R. c #91F014",
"E. c #A3FF0D",
"W. c #ACFE0C",
"Q. c #B3FF0B",
"!. c #BCFF0A",
"~. c #ADF211",
"^. c #8BCD33",
"/. c #ACD12B",
"(. c #94FF26",
"). c #8BFC2D",
"_. c #AFF72D",
"`. c #CCDB10",
"'. c #C5FF08",
"]. c #CDFF08",
"[. c #D3FF06",
"{. c #DAFF05",
"}. c #CEEE16",
"|. c #EBFF03",
" X c #E4FC05",
".X c #FFFF00",
"XX c #F5FD05",
"oX c #FBFE16",
"OX c #E1F412",
"+X c #C9DB31",
"@X c #D7FA28",
"#X c #D4FF34",
"$X c #CBF12C",
"%X c #FCFD28",
"&X c #FBFE35",
"*X c #E4FD2C",
"=X c #8DB55B",
"-X c #8FCF48",
";X c #94F74E",
":X c #ABFE42",
">X c #AAFE57",
",X c #B5F351",
"<X c #84F26A",
"1X c #8BF66B",
"2X c #8FF96B",
"3X c #95FB6D",
"4X c #81EF69",
"5X c #BCFA61",
"6X c #A0D64A",
"7X c #CAFE49",
"8X c #D9FA5A",
"9X c #D2F651",
"0X c #EBFF44",
"qX c #FCFD4A",
"wX c #E6FF5A",
"eX c #FBFF59",
"rX c #D4F86C",
"tX c #EAFE68",
"yX c #FFFF63",
"uX c #F7FE6A",
"iX c #FBFE75",
"pX c #EAF873",
"aX c #CAD861",
"sX c #D5F787",
"dX c #FEFF84",
"fX c #E5FC94",
"gX c #FFFF9D",
"hX c #F9FF97",
"jX c #E1FB85",
"kX c #FEFFAD",
"lX c #F8FFA5",
"zX c #FEFFB7",
"xX c #EEFFA1",
"cX c #FFFFC4",
"vX c #FEFFCC",
"bX c #FFFFDB",
"nX c #FFFFD0",
"mX c #FFFFE5",
"MX c #FFFFE8",
/* pixels */
"                                                                                                                        ",
"                                                                                                                        ",
"                                                                                                                        ",
"                                                  . . . . . . . . . . .                                                 ",
"                            . . + X :       . . X X X O # O O o X o X O . . .                                           ",
"                          . + % /.yXeX%X.X`.9 8 a.s.x.s.s.x.a.a.a.J K G.P.`.G.0 : .                                     ",
"                          . % fXmXdXoX.X.X.X.X/.x.+.r.r.4.#.<.4.aXhXbXmXcXhXuX&X.XG.# .                                 ",
"                          . s.MXgXXX X X X.X.X`.,.%.>.y.>.N 4.dXmXmXmXvXkXhXiXyXqXoX`.. X .                             ",
"                          . aXkX&X'.E.U.Q.{.XX ...>.u.r.Z A &XMXMXmXvXzXhXiXuXqXqX&XoXG.o X .                           ",
"                          . pXuX].I./ ^ Y._.4.g.6.j.u.r.C V oXlXkXgXdXpX8X#X#X@XOXXX.X.X3 O o X                         ",
"                      . . q &XoX!.` [ c.c.4.x.g.v.b.u.>.$.V s..X.X|.].!.W.E.E.W.'.{.|..XJ.@ o o X                       ",
"                      . H pX}..X#X:Xc.O.g.@.t.M.u.6.-.-.$.-.V `.|.[.Q.I.Y._ _ Y.U.Q.{..X.Xt > O o X                     ",
"                    . q uX,X .+X^.@.o.f.8.n.N.i.-XjXlXkXrXs...Z /.!.U._ ^ ~ ~ / Y.E.'.|..XS k > O O . .                 ",
"                  . q iX8X7X4X8.o.8.k.b.Z.Z.t.@XbXMXbXlXqX%X$XX.Z R.T.^ Q P I W / I.Q.{..Xs.l k * * % $ + .             ",
"                . ; iXwX#X>X2X1X<XF.A.Z.Z.Z.8.OX&XdX0X!.Q.'.|./...m { { Q Y R U ^ T.Q.{..XH.l z p 2 1 4 < % +           ",
"              . . 8XuX>X3X3X3X1X<XF.F.A.Z.V.n.s.oX XW._ ^ Y.!..X ...V } >X2XI Q ^ T.Q.{..XK z p.sXrXaXL 5 < %           ",
"              X 6XtX3X2X3X2X2X<X<XF.A.D.C.V.N.8.-XwX(.Q T ! E.|.<.#.7.C @.c.pX>XY.U.!.|..XK b qXgXdXyXqXL.5 < $         ",
"            . : tXrX1X2X2X2X1X;XF.F.S.Z.C.Z.V.B.6.+.,X5Xc.^ U.a.%.&.6.7.6.M z._.pX8X@X|..Xp.n OX X[.|..XoXD 1 %         ",
"            . ,XtX<X<X<X1X<X<X<XF.S.D.C.Z.N.V.M.M.8...X.6. .+.q.>.,.q.h.h.l.7.4.a.L.OX.X/.B m @.I.) I.{. XD 4 %         ",
"          . 7 tX9XS.F.4X<X<X4X4XS.D.D.C.Z.N.N.N.B.b.t.8.o.@.6.4.>.,.&.7.h.l.l.h.l...*.c j f V ..g.R ( Q.~.D 6 +         ",
"          . 6XwX;XA.A.S.S.S.S.S.A.D.C.V.V.N.N.M.b.b.v.u.y.y.e.q.>.,.3.%.5.7.7.7.;.#.c r u H p.m ..f.^ !.G D 2 o         ",
"        . # 8X8XA.A.A.A.S.D.D.D.C.C.V.V.V.N.M.m.b.v.j.u.y.w.q.q.>.,.%.M b b #.M m c y r iXmXzXpXa.-.X.X.| 6 & O X       ",
"        . w wX:XM.N.Z.C.C.C.C.C.C.C.N.V.m.N.m.B.b.j.u.u.r.w.q.q.,.&.%.m n b c c c c j S mXmXcXkXiXs.m m m & @ o X       ",
"        . ^.wX] 7.5.6.i.V.C.V.V.V.V.N.N.m.m.m.n.v.j.u.y.r.e.q.>.,.&.%.m b c c c h c %.H.gXvXkXdXyXqX .z l > @ O X       ",
"        . ,X9X).5.5.5.=.X.i.m.V.V.N.N.m.m.b.B.n.j.j.y.y.w.q.q.,.&.3.%.m b c c c c m | K Q.#X!.].XXoX+Xk k e @ @ X       ",
"      . o 4.C +.5.5.5.*.*.*.X.j.m.m.m.m.b.b.n.j.j.u.y.w.w.q.>.,.&.%.m m n c c c v $.=.a.T.` Y.E.].XXoXA k e @ @ o .     ",
"      . 8 OX$Xs.C 5.5.-.=.=.*.=.X.n.m.n.b.n.j.j.u.y.y.w.q.q.,.,.&.#.M n n b c c n 2.9.L ! Q ~ _ W. X.XS k t = @ o X     ",
"      . /.vXMXvX9X4.f.:.*.*.*.*.*.*.t.n.v.i.i.i.t.t.w.e.q.>.,.&.%.M M n n n N c n :.9.| [ Y P ^ E.{..Xs k f = @ O X     ",
"      # gXMXbXcXlX%X+.f.=.*.&.*.=.5.;.6.r.r.i.y.y.w.e.q.,.,.,.3.#.M C n n N N N V 2.9.| { P Q / E.{.XXx k f @ @ O X     ",
"      0 bXvXzXyXoX.X`.g.g.5.;.5.=.;.;.;.*.,.q.w.w.e.6.>.,.&.$.<.m m n V V N N c N <.2.=.] _./ I.!.XXJ.k k k = @ O X     ",
"      K.zXgXoX.X.X.X.X^.{ 6.;.;.;.;.;.;.-.-.-.-.$.&.&.$.%.#.<.m m n n n n v B B h n 1.2. .7X$X!. XOXx k k t = @ O X     ",
"    . +XgX%X.XXXXX.X.X|.x.@.-.;.-.;.-.-.-.-.-.-.$.$.$.#.#.#.#.m m n n V N N c h h g B C :.H.0XoX`. .k k k f > @ O X     ",
"  . % +XyX|.[.'.'.]. X.Xs.] -.-.-.-.*.-.-.$.$.$.$.$.#.#.#.m m C n n V n N c h h g g g g N m s p.b z l k k f = @ O X     ",
"  + < `.*X'.W.I.I.E.!.{.~.z.-.&.-.-.$.$.-.$.$.$.#.#.#.#.m m m m n n N v v h h g g g d d k z m m N l k k k e * @ O X     ",
"  % 4 }.].E._ ^ ^ ) I.!.|.6.$.-.$.$.$.$.$.$.$.%.#.#.#.#.m m n n n V N v h h h g g g d d k k k g k k k k k , = @ O X     ",
"  % 4 L.!.T.^ U P W _ W.{. .$.$.$.$.$.$.%.#.#.#.#.#.m M m m n n n N N h h h g g g d d k d k f k k k k k k > * @ o       ",
"  % 4 ' ~.R.W T Y U ) U.[.p.$.$.#.$.#.#.#.#.m #.m m m m V n n V v N c h h g g g d d d d k k k k d k k k f - @ @ o       ",
"    < 5 ~.T.! U I W _ W.{.s.#.#.#.#.#.#.#.#.m M M #.$.-.2.$.<.m N N c h h g g g d d d d k k k g d d l k , = @ O X       ",
"    % < L U._ / ^ ) I.!. Xs.#.<.#.m #.m m m M m $.-.*.5.9.9.2.1.<.N B h g g g d d d d k k | y H J.S k k > - @ o X       ",
"      $ $ 7 ~._.I.E.!.{..X4.m m m m m m m M m #.-.:.5.9.9.9.9.;.1.<.N g g g k d d d d g | u aXcXcXyXS r - * @ o         ",
"          . @ H.9X#XoX.XK C C C m m n M n m $.-.;.5.7.h.h.7.7.9.9.1.C z g d d d d k k | u pXmXbXkXdX+X, = @ O X         ",
"          . X O A C V V <.C n V n V M %.| =.O.O.f.f.E f.f.h.h.7.9.2.<.N l d k k k k b u aXiX%X.X.XoX&X3 * @ O X         ",
"            . X > Z c c v n V n z j j y t r r r r r M | ..f.f.f.7.:.1.V z l l k k k a H oX{.'.!.{..X.X9 @ O X           ",
"            . X o i N c v v b H K +XqXiXuXyXyXeXqX/./.K H s t t | | | V z l k k k g y OX{.E.) ) U.[..X9 @ + .           ",
"              . X O u c N c H.dXbXMXMXbXnXvXzXkXxXfXjXjXrX7X$X_.K q u b j d k k k b H .X!.) I I ) !..X2 O X             ",
"                X X @ j N h aXMXMXMXbXnXcXzXlXxXfXjXsXrXrXrX5X9X7X#XOX/.H t d l k j K .X!.) I P / Q.' 2 O               ",
"                . X o @ j B s.MXMXbXnXcXzXxXxXfXrX5X:X).).(.(.E._._.@X*XoXOXq t k k u +X*X7X,X).T.' F 1 X               ",
"                  . X O @ r g nXbXnXcXzXzXxXjX_.I.Y.) / / / _ Y.U.W.!.].|.oX.XH.d k k k S K L G F F 5 +                 ",
"                    . o O @ e =XmXvXzXkXhXrXW.I._ / ^ ~ W ~ ^ / T.U.W.'.{.XX.XXXf l k g e - * & 2 & O                   ",
"                      . X O @ > =XzXkXlXpX!.W.T.) ! W U U U W ! ) T.E.!.{.|..XJ.d k f > - * @ @ o X                     ",
"                        . o O @ * d.iXhX@XQ.I.Y.^ ~ I P T P I ~ / T.U.Q.].|.`.x f e - - * @ @ o X                       ",
"                          . X o O @ 0 +X].Q.I._ ^ W I R Y R I W ^ _ U.Q.].P.u , - - = * @ O O X                         ",
"                              X o O O 3 L.~.U._ ^ W I T Y P I W ^ Y.E.!.K , - = * * @ O O o                             ",
"                                . X O O # L L.T./ ~ Q I P I Q { :X_.K 2 - = * @ @ @ O o X                               ",
"                                    . o o o + 7 L ! ~ ~ { >X5X-XJ $ * @ @ @ @ O O o X                                   ",
"                                        X X X + O O O @ @ @ @ @ @ @ @ @ O O o O X                                       ",
"                                              X X X o o O O o O o o o o o X                                             ",
"                                                                                                                        ",
"                                                                                                                        ",
"                                                                                                                        "
};
