/* XPM */
static char *hole11644614888[] = {
/* columns rows colors chars-per-pixel */
"58 60 212 2 ",
"   c None",
".  c #2E2B1E",
"X  c #252524",
"o  c #292926",
"O  c #2C2C2A",
"+  c #2F302E",
"@  c #33322C",
"#  c #3F3B2D",
"$  c #383424",
"%  c #2F3031",
"&  c #343433",
"*  c #373836",
"=  c #3B3A34",
"-  c #3C3C3B",
";  c #373839",
":  c #463E21",
">  c #413E33",
",  c #3F403F",
"<  c #4A411B",
"1  c #625215",
"2  c #776319",
"3  c #4C452B",
"4  c #554B25",
"5  c #5E5329",
"6  c #4B4532",
"7  c #4E4936",
"8  c #42413D",
"9  c #48453A",
"0  c #4C493C",
"q  c #454133",
"w  c #544C33",
"e  c #514B38",
"r  c #5D5433",
"t  c #5C553D",
"y  c #57513A",
"u  c #65592C",
"i  c #6A5B27",
"p  c #695E35",
"a  c #645A35",
"s  c #6E6029",
"d  c #7C6A2D",
"f  c #72663E",
"g  c #766939",
"h  c #444543",
"j  c #4A4946",
"k  c #4B4C4B",
"l  c #474745",
"z  c #4F504F",
"x  c #51514D",
"c  c #595647",
"v  c #4F5051",
"b  c #535353",
"n  c #595955",
"m  c #5B5B5B",
"M  c #575857",
"N  c #504F4A",
"B  c #625B41",
"V  c #605E55",
"C  c #6C6447",
"Z  c #736A4B",
"A  c #746944",
"S  c #7B7045",
"D  c #656151",
"F  c #696453",
"G  c #64635D",
"H  c #6D6A5D",
"J  c #6C6857",
"K  c #736D56",
"L  c #7B7355",
"P  c #767056",
"I  c #5F6060",
"U  c #646463",
"Y  c #6B6A64",
"T  c #6C6D6C",
"R  c #686763",
"E  c #6F706F",
"W  c #7C786C",
"Q  c #777468",
"!  c #737373",
"~  c #7B7974",
"^  c #797977",
"/  c #8B7529",
"(  c #927C2A",
")  c #857333",
"_  c #8A7736",
"`  c #907E38",
"'  c #816F26",
"]  c #867A4A",
"[  c #837B59",
"{  c #847D61",
"}  c #9C8013",
"|  c #AF8E0F",
" . c #A88A18",
".. c #B69514",
"X. c #B38F0B",
"o. c #9D8637",
"O. c #9C8326",
"+. c #A98E2C",
"@. c #B49527",
"#. c #A28B3A",
"$. c #A68E37",
"%. c #AD9336",
"&. c #B59A38",
"*. c #BEA135",
"=. c #C39F10",
"-. c #C39F0F",
";. c #D2AC1A",
":. c #D7AF11",
">. c #E7BA0E",
",. c #C09F21",
"<. c #C8A72D",
"1. c #C6A738",
"2. c #D6B438",
"3. c #E5BD27",
"4. c #FECC0D",
"5. c #FFCE07",
"6. c #EDC116",
"7. c #FDCE14",
"8. c #FDCE1B",
"9. c #F4C81D",
"0. c #FED11C",
"q. c #FFD114",
"w. c #F4C925",
"e. c #FDCF22",
"r. c #F4CB2C",
"t. c #F3C824",
"y. c #FED124",
"u. c #FDD22C",
"i. c #ECC73A",
"p. c #F4CD38",
"a. c #FDD333",
"s. c #FDD43C",
"d. c #FFD83F",
"f. c #F7D039",
"g. c #998949",
"h. c #9A8A54",
"j. c #978A57",
"k. c #8F824F",
"l. c #AA9544",
"z. c #B39C48",
"x. c #A19258",
"c. c #A99752",
"v. c #B29D55",
"b. c #B9A559",
"n. c #978D66",
"m. c #8D8873",
"M. c #99937B",
"N. c #86816D",
"B. c #AA9B65",
"V. c #A59868",
"C. c #B8A867",
"Z. c #ADA278",
"A. c #BAAB73",
"S. c #B4A87B",
"D. c #CDAE41",
"F. c #C5AB4B",
"G. c #CEB248",
"H. c #DBBA43",
"J. c #DDBD4D",
"K. c #D3B547",
"L. c #C3AB55",
"P. c #C7AF58",
"I. c #D9BC52",
"U. c #CFB85F",
"Y. c #E1BF4F",
"T. c #C6B26B",
"R. c #CDBA71",
"E. c #C9B778",
"W. c #DEC057",
"Q. c #E9C74A",
"!. c #F4CF47",
"~. c #FDD543",
"^. c #F5D14D",
"/. c #FCD64A",
"(. c #FFD94C",
"). c #FAD541",
"_. c #ECCC5B",
"`. c #E6C856",
"'. c #F6D251",
"]. c #FCD651",
"[. c #FEDA53",
"{. c #FEDC5C",
"}. c #F5D55C",
"|. c #E9CC66",
" X c #FBDA63",
".X c #F5D66A",
"XX c #F9D96A",
"oX c #EBD173",
"OX c #EBD47D",
"+X c #F5D974",
"@X c #F8DC79",
"#X c #EAD06E",
"$X c #FFE16E",
"%X c #7E7F80",
"&X c #828281",
"*X c #8C8A83",
"=X c #8C8C8D",
"-X c #95938C",
";X c #9C9B98",
":X c #A49F88",
">X c #B7AB82",
",X c #A5A398",
"<X c #B8B192",
"1X c #A4A4A2",
"2X c #BDB9AB",
"3X c #C4B784",
"4X c #D7C584",
"5X c #DECF96",
"6X c #E2CF8F",
"7X c #EED587",
"8X c #F4DD8A",
"9X c #C8C1AC",
/* pixels */
"                                                                                                                    ",
"                                                                                                                    ",
"                                                                                                                    ",
"                                                                                                                    ",
"                                                                @X Xd.                                              ",
"                                                                      y.u./.XX                                      ",
"                                                                          a.u.d.                                    ",
"                                                                              u.y.s.                                ",
"                                                                                  8.8.                              ",
"                                                8 8 - & & - h                       8.7.                            ",
"                                          - & O O * , h - * & O o & 8                 y.7.s.                        ",
"                                    x & O * l                   m - + O &               y.7.                        ",
"                                  * + > I      X[.s.s.a.u.a.).[.XX    b O O l             y.7.                      ",
"                              k O * m     /.s.s.s.~./.(./.]./.a.s.s./.@X  j O *             8.8.                    ",
"                            h O h     [.s.s./.                    /.a.f.[.  R + @             7.u.                  ",
"                          - O b    Xs.s.].              !             /.a.s.+XQ % &           u.7.                  ",
"                        , o b   a.8.s.        U l ; O O O o O & l I       s.a.{.Q O *           8.y.                ",
"                      k o l   u.7.s.      m & & j S g.l.%.$.) 5 $ + ,       ~.u. XR O ,         s.7.                ",
"                      o -   a.0.).      - & F b.Q.f.s.d.d.d.s.i.<.' # & x     s.a.|.N o           y.e.              ",
"                    & O     7.s.      & 9 B._.d.(..X4X>XZ.S.4X+X{.).@.5 & k     f.a.A.& *         a.8.              ",
"                  k o k   8.u.      @ c T.s./.oX:XT x N l - h n M.OX].2.s & n     u.^.J O           8.a.            ",
"                  @ &   u.8.      & j U.a./.3XT x t f ] g.k.f 6 * b E.{.2.u ,     ).a.T.& -         u.e.            ",
"                b o k   0.s.    h - C.u.~.>Xm c / <.i.'.}._.!.D.) = - Z.(.<.3 n     u.^.n O         s.8.            ",
"                - O   u.8.      O [ f.s.A.m c  .9._.A.-Xm.{ V.|.Q.$.# - R.).( 8     d.a.x.&           8.s.          ",
"                o *   8.a.    - * G.u.|.U c ..u.R.~ H x.z.v.k.Y >X^.o.@ x  X2.3 b     u.P.h m         8.u.          ",
"                X     8.      % Z i.s.m.x / w.T.R x.I.L.B.B.P.F.S >XJ.u @ A.!.d h     a.Q.n k         7.8.          ",
"              h o   u.e.    U & b.u.`.M r ;.|.Q x.G.n.Z.E.>Xn.B.&.C OX@.. F {.$.8     a./.F k         7.7.          ",
"              & &   y.f.    l > H.a.A.j / r.Z.J I.j.E.        -XC._   1.: j XXF.e U   u.a.L k         7.7.          ",
"              @ %   0.s.    * c i.a.m.9  .'.W x.b.V.8X        9X:Xg.{ Y.r l OX2.y U   a.u.[ h         7.7.          ",
"              O ;   8.u.    - p t.s.Q 0 @.|.Y L.h.E.            ,Xh.Q Y.u m +X2.w U   u.u.[ l         7.7.          ",
"              o *   7.a.    - p 9.u.U 0 @..XT L.j.b.            ,X]   G.u T +X1.e U   u.a.L k         7.7.          ",
"              O &   7.a.    , r t.d.~ 9 +.oX! v.v.h.          1X:XA   %.t *X{.&.9     y.i.D b         4.8.          ",
"              O &   7.a.    l 6 t.u.  h ` _.m.] W.H C.        <XL F   d G <X'._ l     y.H.N m         7.y.          ",
"              & %   7.a.    z $ <.y.  l p 2.<XH &.T.L h.A.  n.Z D   o.t -XOXH.r x     0.v.9           7.            ",
"              * &   8.u.      O O.0.  b 6 %.#X;Xf *.R.W Z A F     #.a ^   ^.( 9     u.w.L h         u.4.            ",
"              l o   y.u.      - u 6.(.  8 i H.6X=XA o.1.      l.d r W   XX<.w k     0.2.l m         8.8.            ",
"                X b s.e.      R $ @.y.  b > ) `.5X,XQ f f g p B R *X  .X1.u l     a.9.] 8           7.u.            ",
"                O &   8./.      h s 9.(.  l > ) I.7X9X1X=X{ =X;X2X  }.&.u l       q.1.j n         y.4.              ",
"                - o   y.u.      E @ @.y.$X  k q i %.Q..X7X7X8X+X`.F._ e j       0.3.B j           7.y.              ",
"                  o v   8.        z 3 ;.u.    b 8 3 i ` %.z.l.] A e l k       0.9.g - !         u.4.                ",
"                  @ %   y.u.        h 4 ;.u.      b l 0 7 0 9 l l b         q.>.) , U           4.y.                ",
"                  l o z   8./.      &X- 5 ;.y.[.                        [.0.:.s - I           8.7.    1X            ",
"                    & O   y.8.        &X, :  .6.a.{.                }.a.6.X.4 - !           u.4.a.  &X              ",
"                    b X h   8.u.          k O 1 X.>.8.u.d.~.d.d.a.w.>.| 2 , v &X          s.4.y.  n !               ",
"                      - o m   7.a.          T h $ < 2  ...-.-...} 2 3 q l T             ).4.0.    j                 ",
"                        O O   ).7.u.            E b l = = = q > 8 j M T               a.4.0.    l                   ",
"                          O O   (.8.u.                  ^ ^ ^ ^                     u.4.0.    - !                   ",
"                            O @     8.8.(.                                        8.7.y.  b - m                     ",
"                              o O b   y.0.u.                                  y.4.7.~.  l - U                       ",
"                                @ X -     y.7.8.u.                      a.0.5.q.a.    & * T                         ",
"                                  - o O k     y.7.7.7.0.y.0.7.0.0.0.q.q.4.0.a.    & o -                             ",
"                                      & X % l     f.u.0.q.5.5.5.4.q.y.r.    k * o & x                               ",
"                                        l & o X % h m {           [ D l & o O & k                                   ",
"                                              h @ o o & - & & & & % o o & l                                         ",
"                                                      b l k b 8 l x                                                 ",
"                                                                                                                    ",
"                                                                                                                    ",
"                                                                                                                    ",
"                                                                                                                    ",
"                                                                                                                    "
};
