/* XPM */
static char *hole31644614888[] = {
/* columns rows colors chars-per-pixel */
"58 60 218 2 ",
"   c None",
".  c #2C2B2B",
"X  c #292727",
"o  c #302F2F",
"O  c #3D2D2D",
"+  c #343332",
"@  c #3B3535",
"#  c #3A3837",
"$  c #3C3B3A",
"%  c #661C1B",
"&  c #4C2A2A",
"*  c #542D2C",
"=  c #582525",
"-  c #5D302F",
";  c #443635",
":  c #4E3636",
">  c #433D3C",
",  c #4D3D3D",
"<  c #563433",
"1  c #5B3333",
"2  c #523B3B",
"3  c #5A3C3C",
"4  c #632B2A",
"5  c #692626",
"6  c #752A2B",
"7  c #7A2F31",
"8  c #6C3435",
"9  c #643B3B",
"0  c #6A3939",
"q  c #733A3A",
"w  c #783434",
"e  c #44403F",
"r  c #454343",
"t  c #4B4545",
"y  c #4D4C4C",
"u  c #554242",
"i  c #5B4444",
"p  c #534847",
"a  c #524C4C",
"s  c #5B4C4C",
"d  c #51504F",
"f  c #545352",
"g  c #5B5454",
"h  c #5B5A59",
"j  c #575857",
"k  c #634B4A",
"l  c #6C4B4B",
"z  c #694343",
"x  c #784A4A",
"c  c #7E4F50",
"v  c #6D5352",
"b  c #625B5B",
"n  c #6C5D5C",
"m  c #645151",
"M  c #755353",
"N  c #7C5555",
"B  c #765B5B",
"V  c #7C5A5A",
"C  c #75605F",
"Z  c #5F6160",
"A  c #656464",
"S  c #6C6B6B",
"D  c #6B6666",
"F  c #736363",
"G  c #7C6463",
"H  c #7A6C6C",
"J  c #776A6A",
"K  c #747474",
"L  c #7C7C7C",
"P  c #841A19",
"I  c #B41413",
"U  c #AD1414",
"Y  c #93211F",
"T  c #B9201F",
"R  c #862C2C",
"E  c #9A2727",
"W  c #833334",
"Q  c #843B3C",
"!  c #8C3D3D",
"~  c #8F3537",
"^  c #9B3939",
"/  c #943636",
"(  c #A42324",
")  c #A92A29",
"_  c #AB3C3D",
"`  c #A73939",
"'  c #B43332",
"]  c #B93839",
"[  c #B92221",
"{  c #D4100F",
"}  c #CC1515",
"|  c #C71B19",
" . c #DC1B1B",
".. c #FE120E",
"X. c #E61D1C",
"o. c #FE1513",
"O. c #FD1916",
"+. c #FD1C1B",
"@. c #F21B1B",
"#. c #EC201F",
"$. c #FD211E",
"%. c #E51F20",
"&. c #CA2120",
"*. c #D32B2B",
"=. c #DD2F30",
"-. c #C43433",
";. c #C73C3C",
":. c #D83A39",
">. c #D4312F",
",. c #E82625",
"<. c #F42624",
"1. c #FD2423",
"2. c #FD2826",
"3. c #F52B2B",
"4. c #FD2C2B",
"5. c #FB302E",
"6. c #F2302E",
"7. c #E93C3C",
"8. c #E53C3C",
"9. c #F43533",
"0. c #FC3433",
"q. c #FA3936",
"w. c #F33C3B",
"e. c #FC3C3B",
"r. c #ED312D",
"t. c #D4413D",
"y. c #FC403F",
"u. c #813F40",
"i. c #8C4B4B",
"p. c #8D4242",
"a. c #974646",
"s. c #855353",
"d. c #8B5554",
"f. c #845B5B",
"g. c #895C5B",
"h. c #945454",
"j. c #985A59",
"k. c #A74747",
"l. c #B24444",
"z. c #BD4443",
"x. c #BB4C4C",
"c. c #A95252",
"v. c #A45C5B",
"b. c #A95B5B",
"n. c #A65655",
"m. c #BD5B5B",
"M. c #BA5454",
"N. c #96605F",
"B. c #8B6261",
"V. c #886868",
"C. c #976768",
"Z. c #85706F",
"A. c #957C7C",
"S. c #AD6C6B",
"D. c #A26969",
"F. c #BC6D6C",
"G. c #B86766",
"H. c #A97473",
"J. c #AB7979",
"K. c #B57474",
"L. c #B47B7B",
"P. c #C34242",
"I. c #C24F4E",
"U. c #C94647",
"Y. c #D34444",
"T. c #D84A4A",
"R. c #D94747",
"E. c #CB514F",
"W. c #C35454",
"Q. c #C45959",
"!. c #CB5455",
"~. c #D55858",
"^. c #E24241",
"/. c #EB4343",
"(. c #E34C4D",
"). c #E94B4B",
"_. c #F44343",
"`. c #FC4344",
"'. c #F34A4A",
"]. c #FD4B4B",
"[. c #FC4847",
"{. c #E35252",
"}. c #EA5354",
"|. c #E65A5A",
" X c #F45252",
".X c #FB5454",
"XX c #F25C5C",
"oX c #FD5B5B",
"OX c #E9524F",
"+X c #F1615F",
"@X c #CB6463",
"#X c #C66A6A",
"$X c #D76767",
"%X c #CB7373",
"&X c #C17C7C",
"*X c #D97777",
"=X c #E46262",
"-X c #E66C6C",
";X c #EB6A6A",
":X c #ED6161",
">X c #F56465",
",X c #E07677",
"<X c #FB7677",
"1X c #8C8888",
"2X c #9C8787",
"3X c #A58786",
"4X c #B88585",
"5X c #A49191",
"6X c #AD9291",
"7X c #BC9696",
"8X c #ABA5A4",
"9X c #BEADAD",
"0X c #CA8686",
"qX c #D88989",
"wX c #C49999",
"eX c #D09293",
"rX c #F68789",
"tX c #E58989",
/* pixels */
"                                                                                                                    ",
"                                                                                                                    ",
"                                                                                                                    ",
"                                                                                                                    ",
"                                                                                                                    ",
"                                                                                                                    ",
"                                              5.2.1.1.1.$.1.1.O.+.+.                                                ",
"                                        2.$.+.1.1.4.4.0.q.q.4.+.o.o...o.O.5.                                        ",
"                                  4.+.+.1.4.                          +.o.o.o.4.                                    ",
"                              0.+.$.2.                                      1.o.O.0.                                ",
"                            2.O.4.                                              +.o.1.                              ",
"                        q.O.$.                                                    4.O.+.                            ",
"                      [.1.2.                  e # + + o $ r t d f h                   +.O.    1X1X                  ",
"                    .X4.q.              r + o + , s v s.d.d.g.M k a y a D               +.o.    A A                 ",
"                  .X0.              r + o $ v v.~.{._.w.w.w._./.R.U.h.v t f D             +.O.    y                 ",
"                >Xq.e.            $ . > B @X Xe.0.q.q.e.e.e.e.4.1.2.4.R.c.l t j             +.O.    f               ",
"                e.e.            + + m F. Xq.q.e.                      1.<.:.i.u y             o.2.  r j             ",
"              q.4.            + $ G =X`.e.`.          A j h               1.r.k.u y           4.O.    r S           ",
"              e.            o # V.XXe.e.        f a 2 < < < 3 3 p s         2.<._ i j           $.$.  r t           ",
"            <X            + + V.>Xe.`.      r ; * 7 / ' ] P.z._ / 8 2 a       4.<.^ , j         0...e.  r           ",
"            rX          r + n ;Xe.`.    d @ * R ] 8.'.|.=X=X-X:X{.Y.` 8 t h     2.,.Q t S         +.$.  $ t         ",
"                        . t   `.y.    a @ 4 ' /.XX@Xd.s , > y B H.-X}.U.W 2 h     $.*.9 a         4.o./.t +         ",
"                      + +   oXy.    f + 4 -. X$XV > O & = = * 2 s J 4X;XY.R ,       @.E , K         O.4.  +         ",
"                      + a -Xe.`.    @ = -. X%Xg @ 4 ^ ] P.U.z.` R 9 F 3X-X;.6 t     2.{ 4 g         +.+.  + r       ",
"                    r $   ].`.    r O ) '.*Xg ; Q ;.|.F.C.C.C.    ` q F 6X:X' < f     @.P t         4.+.  $ @       ",
"                    + $   e.].    + 6 8.;XG , ! T.@XB.a.^ a.i.N B   k.9 H 0XT.q t     5.I 2 K         o.7.r +       ",
"                    + g +X0.    h O ` [.F.r q R.$XB.c.M.S.J.3XJ.s.l   u.l 2X-X_ 2     [.} * h         o.6.t .       ",
"                    $ H .Xq.    r 1 :. XV.e k.{.B.c.m.C.5X9X  8X3Xs.V   0 J qXx.3 j   oX .5 f         O.3.i .       ",
"                  e $   [.`.    $ q y.$Xb z E.%Xg.m.D.4X        8XA.v   q F wXW.9 j     X.5 a         O.3.i o       ",
"                  @ +   `.[.    # p._.$Xg x {.K.j.m.L.              c   ! n wX~.z y     X.6 a         O.<.z .       ",
"                  # @   `.[.    $ a._.%Xg Q (.H.C.m.K.              c   Q F wXQ.9 f      .5 f         O.3.i .       ",
"                  $ $   [.].    $ a.`.%Xb W ^.S.N.W.S.tX          K.x   p.H eXx.3 f      .5 h         O.r.t +       ",
"                  > $   [.`.    $ i.'.-XD q *.@XV.W.b.#XrX      eXj.f.l.x 1X,Xl.3     [.} = A         ..:.e #       ",
"                  r $   ].`.    $ M ).XXZ.z T (.V.j.E.C.G.%X%XF.j.g.m.~ H 7X~.R ,     0.U : K       $...P.> $       ",
"                  t +   .Xe.    t u ~.].L.g R ,.@XV.n.Q.b.d.h.d.v.I.^ B 5X*X] 1 g     X.P t         o.o.h.# t       ",
"                    + h   `.    h > b.`.|.J i ) 8.F.C s.m.Q.Q.I.l.! B 5XqXU.7 ,     `.} = h         ..<.m # S       ",
"                    + r   e.[.    e l T.y.%Xb 0 T 8.@XC.F V f.V B A.7X,X!.7 , f     X.P r         4.o.t.t $         ",
"                    $ $   [.0.    d e v.9.'.D.m 8 ( =.OX$X&XJ.L.&X*X~.l.w 2 a     4.I & g         +.2.h.$ r         ",
"                      + g   1.e.    $ i I.w.).C.s 3 6 ( -.Y.T.Y.P.` W < > f     q.} % e         0.o./.t +           ",
"                      + r   2.2.      + l E.9.y.G.n p 2 1 8 q 8 4 : ; t       0.{ % > S         O.1.  o +           ",
"                      t #     1.q.    a # k z.9.e.OXG.C h s y y a j       _.<.| 5 ; S         4.O.T.; .             ",
"                        + #   0.$.e.    y + , c.t.9.5.5.OX$X      +X].e.3. .E * r D         e.+.7.v . $             ",
"                          . r   2.1.].      $ ; x _ >.,.<.2.2.2.<.3.,.&.E 5 ; f           `.1.4.  + +               ",
"                          > . d   2.1.[.      f + ; 1 w ~ ) ) ( Y R 4 * ; f K           y.1.4.  $ X y               ",
"                            + o     4.$.e.        j r $ @ O O O @ r a A L             q.$.5.  $ X $                 ",
"                              + .     2.1.0.                                        4.2.y.  # X r                   ",
"                                + . t   q.+.2.`.                                0.+.2.  v + . r                     ",
"                                  @ . +     5.1.1.1.4.                    q.4.+.1.w.  a o . t                       ",
"                                    $ . o t     q.2.+.+.1.2.5.q.q.0.4.1.1.1.4./.  s + . +                           ",
"                                        + . + r       9.3.2.1.2.2.1.0.q.      t + X . r                             ",
"                                          r + X X . $ a v             a > + . . + r                                 ",
"                                                $ . X X X + . . . . . . . + $                                       ",
"                                                        t > $ $ + r t                                               ",
"                                                                                                                    ",
"                                                                                                                    ",
"                                                                                                                    ",
"                                                                                                                    ",
"                                                                                                                    ",
"                                                                                                                    ",
"                                                                                                                    "
};
