/* XPM */
static char *hole71644614889[] = {
/* columns rows colors chars-per-pixel */
"58 60 220 2 ",
"   c None",
".  c #2F302F",
"X  c #323433",
"o  c #353A36",
"O  c #373B38",
"+  c #3A3C3B",
"@  c #2D312F",
"#  c #2F4F35",
"$  c #364339",
"%  c #3B433D",
"&  c #3B4A3E",
"*  c #354C39",
"=  c #2D5735",
"-  c #35553B",
";  c #39543E",
":  c #335B3B",
">  c #395B3E",
",  c #305536",
"<  c #2E6B39",
"1  c #2A6A35",
"2  c #34633C",
"3  c #336B3C",
"4  c #2D723A",
"5  c #2B7437",
"6  c #34773E",
"7  c #3F4340",
"8  c #3E4C41",
"9  c #3E5442",
"0  c #3D5C42",
"q  c #3B6342",
"w  c #3C6B44",
"e  c #376D40",
"r  c #3A7645",
"t  c #3E7B49",
"y  c #397A44",
"u  c #424543",
"i  c #434A45",
"p  c #4A4D4B",
"a  c #474A48",
"s  c #425445",
"d  c #415A45",
"f  c #4B534D",
"g  c #455A49",
"h  c #4B5A4E",
"j  c #47564A",
"k  c #4F5650",
"l  c #525553",
"z  c #535B55",
"x  c #575C58",
"c  c #5A5E5B",
"v  c #416246",
"b  c #436349",
"n  c #4A624E",
"m  c #436C4A",
"M  c #44734C",
"N  c #49704F",
"B  c #447C4D",
"V  c #4F6453",
"C  c #4D6C52",
"Z  c #5B625D",
"A  c #556859",
"S  c #4B7352",
"D  c #4B7C54",
"F  c #517156",
"G  c #53755A",
"H  c #557A5B",
"J  c #5A795F",
"K  c #5F6261",
"L  c #5C7C61",
"P  c #656866",
"I  c #1D9332",
"U  c #1B872E",
"Y  c #248434",
"T  c #2C933D",
"R  c #209934",
"E  c #1BB936",
"W  c #24A83A",
"Q  c #23BA3C",
"!  c #1ECC3B",
"~  c #1CC338",
"^  c #22CB3E",
"/  c #14FD3E",
"(  c #18FA3F",
")  c #3A8146",
"_  c #398945",
"`  c #3B8C48",
"'  c #348C43",
"]  c #369646",
"[  c #2F8F40",
"{  c #2CA542",
"}  c #39A24B",
"|  c #37A94B",
" . c #2CB744",
".. c #38B34D",
"X. c #36B74B",
"o. c #3EA951",
"O. c #3DB251",
"+. c #41954E",
"@. c #498353",
"#. c #458D52",
"$. c #4E8A58",
"%. c #548B5D",
"&. c #54845D",
"*. c #439B52",
"=. c #4E9459",
"-. c #4B9B59",
";. c #479254",
":. c #52945D",
">. c #44804E",
",. c #43A253",
"<. c #43AA54",
"1. c #4CA25A",
"2. c #4DAC5C",
"3. c #46B659",
"4. c #5A8462",
"5. c #588C61",
"6. c #5B9C66",
"7. c #5E9C69",
"8. c #5A9664",
"9. c #66846A",
"0. c #63946C",
"q. c #639C6D",
"w. c #6A9972",
"e. c #729578",
"r. c #6F8C74",
"t. c #57A263",
"y. c #55AB64",
"u. c #59AC66",
"i. c #5DA369",
"p. c #5CAD69",
"a. c #5AA266",
"s. c #4EBB60",
"d. c #56B365",
"f. c #5CB46B",
"g. c #5CBA6C",
"h. c #52BC65",
"j. c #61A86D",
"k. c #61B46F",
"l. c #6AA875",
"z. c #65B372",
"x. c #67BB76",
"c. c #74AA7C",
"v. c #26CA42",
"b. c #36CC4F",
"n. c #2AD747",
"m. c #33D64E",
"M. c #3DC354",
"N. c #3BCC53",
"B. c #3BD455",
"V. c #39DB54",
"C. c #39D754",
"Z. c #1CFD42",
"A. c #1BF943",
"S. c #26E646",
"D. c #2CEC4C",
"F. c #24E846",
"G. c #31E44F",
"H. c #22FD46",
"J. c #26F649",
"K. c #2CF54D",
"L. c #25FC4A",
"P. c #2AFC4D",
"I. c #35E453",
"U. c #33ED53",
"Y. c #3BE858",
"T. c #2EF752",
"R. c #2EFD51",
"E. c #32F353",
"W. c #33FC54",
"Q. c #3CF35B",
"!. c #3CFC5B",
"~. c #35FB5A",
"^. c #30F24F",
"/. c #47C75C",
"(. c #41D45A",
"). c #44DB5C",
"_. c #44E35E",
"`. c #42EC5E",
"'. c #40FC5F",
"]. c #40F05D",
"[. c #4CCC61",
"{. c #53C365",
"}. c #51CD66",
"|. c #59C76C",
" X c #4DDB65",
".X c #4AD862",
"XX c #51D266",
"oX c #57DB6C",
"OX c #58D26C",
"+X c #5DD271",
"@X c #5BDD71",
"#X c #5FC871",
"$X c #64C574",
"%X c #6CCA7C",
"&X c #71C47E",
"*X c #66D378",
"=X c #45ED62",
"-X c #4AE864",
";X c #54E26B",
":X c #52EB6B",
">X c #46F562",
",X c #49F566",
"<X c #44FC62",
"1X c #49FA66",
"2X c #4DF468",
"3X c #4EFC6A",
"4X c #53F66D",
"5X c #59EA71",
"6X c #58FB74",
"7X c #7E9C83",
"8X c #77B482",
"9X c #7FAF87",
"0X c #7AC385",
"qX c #76C683",
"wX c #7FD48D",
"eX c #839486",
"rX c #86A78C",
"tX c #91B397",
"yX c #82C58D",
"uX c #87C190",
/* pixels */
"                                                                                                                    ",
"                                                                                                                    ",
"                                                                                                                    ",
"                                                                                                                    ",
"                                                                                                                    ",
"                                                                                                                    ",
"                                                                                                                    ",
"                                                      a                                                             ",
"                                          u + + + + + + + + + + + %                                                 ",
"                                      O o o % a h V G G J G V f u + o + a                 6X                        ",
"                                  o X o i C     -X-X-X4X4X:X;X+Xf.%.n a + +                 ~.                      ",
"                              + X o 9     Y.T.L.L.W.'.<X1X<X<X1X1X2XoXj.A i + %               '.                    ",
"                            O X % D   E.L.P.R.~.!.            6X1X<X<X1XoX6.f + +             !.1X                  ",
"                          X . 8   U.P.P.W.                          3X'.!.,X|.C O o             ~.3X                ",
"                        X X g   K.L.W.            l f a a p f           <X<X,X+XF + +           !.!.                ",
"                      o X b   P.P.~.        i u s h C N N m 0 s i f         '.1X+XC + +           ~.'.              ",
"                    + . d /.P.P.'.      u 7 b >.1.s.[.}.}.[.s.} t 2 i f       <X2X#Xh o u         W.P.              ",
"                  7 . 8 3.T.T.        u 9 @.3..X=X=X:X5X5X5X;X-X(.<.y , i       <X2Xi.8 O           H.R.            ",
"                  . o ;.U.P.1X      i q *.(.Q.=XOXk.l.w.0.w.l.$XoX-XN.] = $     1X1X;XH + u         L.P.            ",
"                + . 0 C.H.R.      % m 3.Y.Y.}.i.L F N M N N C A 4.g.;X(.] = %     <X1Xg.i +           H.            ",
"                X O <.J.H.      i 0 O.Y.=Xd.H C t [ {  .X.| } D n A 6.@X(.[ # u     !.;XS +           H.W.          ",
"              u X q I.A.      f > ] I.].y.C w [  .N.B.[.{.OXOXh.-.M n q.@XN.4 *     1X>Xt.+ +         L.P.          ",
"              O + ,.L.L.      & ) n.U.h.C e { b.XXf.q.q.0.l.l.%XXX<.m n z.oX| = i   1X<X{.s O         P.L.          ",
"              X 8 B.L.      a - W D.(.G q [ B.h.q.7.a.d.p.p.i.q.k.}.,.q G +X/.4 %     !.oXb O         P.Z.          ",
"            + X M U.L.      % 5 v.U.t.n ) X.|.0.8.y.f.f.z.z.f.u.6.k./.y d u.).' ;     '.-XD O         R.Z.          ",
"            o X *.K.W.      * T S.-XG q } }.w.8.d.p.z.qX0X0Xc.z.y.i.{.+.> &. X| - l   !.=X$.+         W.L.          ",
"            o + 3.P.!.    l , W ^.h.h r 3.&X0.u.p.z.wX      yXl.d.t.g.3.: N XX..2 x   !.].=.+           L.          ",
"            X & (.R.      x : Q U.6.s _ {.l.8.d.a.qX          rXj.1.u.3.2 b XXX.q Z   <X`.=.%         W.Z.          ",
"            X 9 V.P.      z < v.Q.5.0 ' #Xe.:.y.i.yX          tXc.=.y.<.1 b XX..w Z   <X`.=.%         ~.L.          ",
"            X 0 I.W.      z 4 v.=XH ; ] $Xe.-.y.i.uX          tXl.:.y.] = m XXo.0 c   !.`.@.+         R.P.          ",
"            . q I.P.      z < v.=X4.; ` $Xc.=.2.7.8X          tXq.%.d.' # @.XX] 0     !.).N +         R.P.          ",
"            X v I.P.      Z < ^ >X  9 ) #X9X5.-.8.7.        rXr.&.6.2.3 d p.[.) j     ~./.v %         P.R.          ",
"            X 0 V.P.      P 3 Q Q.  j 6 d.yXw.;.1.%.%.0.e.e.9.H 0.2._ d 4.+X<.6 z     `.2.g l         P.R.          ",
"            X & B.L.      P ; W E.  z > *.%XrX%.+.=.%.H H J &.:.-._ M J $X/.` n     W._.=.f           L.            ",
"            X % M.L.~.      i Y n.5X  9 6 3.qXeX9.@.#.=.  :.=.#.>.N 9.x.XX} w Z     E./.F x         P.P.            ",
"            o O ,.K.W.      z 4 ^ ].  z > _ h.0Xe.9.H N M M B S L e.&XOXO.r g     R.Y.=.f           L.P.            ",
"            + X B U.R.      P , I n.    k 2 ` s.&XtXeXr.9.9.r.e.c.*X}.<.r g       ^.3.C z           (               ",
"              X d V.P.        j 1 E E.    h 0 _ 1.{.%X&X0X&X&X+X/.3.] w g       K.(.$.z           Z.Z.              ",
"              o $ <.T.~.      P - U ! Q.      s v B #.1.2.2.<.} ] 6 0 k       K.C.=.V c           / L.              ",
"              + X m I.P.        z = I v.Q.      k h g b v m 3 q d j         K.m.*.V c           ( (                 ",
"                X $ 3.L.~.        z : I ! U.          x l z x           P.D.b.#.h x           Z./                   ",
"                + X w I.P.          V > 5 E n.Q.                    K.F.n...>.h x           P.Z.L.                  ",
"                  X $ ,.K.L.          Z 0 < I Q n.G.Q.,X>XQ.K.J.J.S.n.X.` b h Z             Z.Z.                    ",
"                  7 . 9 M.J.L.            V 0 < Y I E ~ ! ! ~ E W ] r b h c               Z.Z.                      ",
"                    o X m C.Z.L.              x g > 3 < 5 5 5 < 2 g h c                 Z.Z.                        ",
"                      o o r m.Z.L.                  x z x x x Z P                   L.Z.H.                          ",
"                        X o t C.A.Z.                                              L.Z.H.                            ",
"                          X o M M.A./ Z.                                      L.Z.Z.W.                              ",
"                            + % b o.n.A./ A.                              H.Z.Z.L.                                  ",
"                              a + u B X.F.A.Z.Z.J.P.              R.P.Z.Z.Z.P.                                      ",
"                                x a + 8 r | m.F.A.Z.( Z.Z.H.Z.Z.Z.Z.Z.J.U.      eX                                  ",
"                                    u + + $ 0 y } M.m.I.D.D.D.D.I.B.      Z x P                                     ",
"                                        7 O X O o * 9 d b m m m n f f p k c                                         ",
"                                              a + + o o O O + u a p l K                                             ",
"                                                                                                                    ",
"                                                                                                                    ",
"                                                                                                                    ",
"                                                                                                                    ",
"                                                                                                                    ",
"                                                                                                                    "
};
