/* XPM */
static char *hole21644614888[] = {
/* columns rows colors chars-per-pixel */
"58 60 224 2 ",
"   c None",
".  c #262625",
"X  c #292827",
"o  c #2D2C2B",
"O  c #282727",
"+  c #312F2D",
"@  c #312C25",
"#  c #32302E",
"$  c #3C352D",
"%  c #343433",
"&  c #393734",
"*  c #3A3936",
"=  c #3C3B3A",
"-  c #613E1C",
";  c #4B3C2C",
":  c #473828",
">  c #533E28",
",  c #443C33",
"<  c #433E39",
"1  c #4F3F31",
"2  c #3F403F",
"3  c #7A4917",
"4  c #68441F",
"5  c #5C4024",
"6  c #5B432A",
"7  c #44413D",
"8  c #4B443C",
"9  c #4D4235",
"0  c #5B4532",
"q  c #52453A",
"w  c #5A4B3B",
"e  c #584737",
"r  c #674727",
"t  c #764F29",
"y  c #76512E",
"u  c #7C542C",
"i  c #684E36",
"p  c #66523E",
"a  c #6C5138",
"s  c #745636",
"d  c #7C5A37",
"f  c #444443",
"g  c #4A4642",
"h  c #4C4946",
"j  c #4C4C4B",
"k  c #474847",
"l  c #534B42",
"z  c #534F4A",
"x  c #5A4E43",
"c  c #5B5146",
"v  c #52514E",
"b  c #5C574E",
"n  c #545453",
"m  c #5A5955",
"M  c #5D5D5B",
"N  c #4F504D",
"B  c #665748",
"V  c #7A5F40",
"C  c #675D51",
"Z  c #665F57",
"A  c #5F605E",
"S  c #73614C",
"D  c #7A654A",
"F  c #646056",
"G  c #61605D",
"H  c #6C6458",
"J  c #7D6B55",
"K  c #746857",
"L  c #7D715D",
"P  c #646463",
"I  c #696965",
"U  c #6C6C6B",
"Y  c #736D64",
"T  c #7C7365",
"R  c #7D766C",
"E  c #747473",
"W  c #7D7B79",
"Q  c #894D12",
"!  c #975717",
"~  c #8F5415",
"^  c #B86817",
"/  c #8C5B2C",
"(  c #845425",
")  c #955E29",
"_  c #8A5E32",
"`  c #825E36",
"'  c #96622E",
"]  c #86623A",
"[  c #946637",
"{  c #A56525",
"}  c #A76C32",
"|  c #A97138",
" . c #BC7B35",
".. c #B7793A",
"X. c #B06823",
"o. c #C56C12",
"O. c #D57818",
"+. c #CF7312",
"@. c #E67F18",
"#. c #E1780E",
"$. c #C5772C",
"%. c #D77E24",
"&. c #C37F38",
"*. c #866D4E",
"=. c #9A7144",
"-. c #826C53",
";. c #806F5A",
":. c #8D7454",
">. c #8C775C",
",. c #977A58",
"<. c #A87845",
"1. c #AB7C4B",
"2. c #887C69",
"3. c #837D74",
"4. c #917F66",
"5. c #BE843F",
"6. c #FE8A0D",
"7. c #E8831D",
"8. c #FE8D13",
"9. c #F88D19",
"0. c #FD9215",
"q. c #FD931C",
"w. c #FD9C1B",
"e. c #FD900D",
"r. c #CB843A",
"t. c #DB8B37",
"y. c #DB8126",
"u. c #EA8922",
"i. c #F48D21",
"p. c #FD9522",
"a. c #FD9A24",
"s. c #FA962C",
"d. c #FD9C2B",
"f. c #F69022",
"g. c #E38F38",
"h. c #E9953A",
"j. c #FC9C32",
"k. c #FC9E39",
"l. c #F59634",
"z. c #ED992B",
"x. c #FDA22C",
"c. c #FDA433",
"v. c #FCA23B",
"b. c #F9A73D",
"n. c #97805F",
"m. c #B9844A",
"M. c #A88359",
"N. c #BC8D5A",
"B. c #B78955",
"V. c #B8915C",
"C. c #858076",
"Z. c #8A8276",
"A. c #988975",
"S. c #9F8967",
"D. c #A58966",
"F. c #AA8D67",
"G. c #B4936B",
"H. c #BA9466",
"J. c #A38D76",
"K. c #AC987C",
"L. c #B99B75",
"P. c #AF9269",
"I. c #C78747",
"U. c #D58E45",
"Y. c #D98F42",
"T. c #D99445",
"R. c #C48F52",
"E. c #C29455",
"W. c #C99452",
"Q. c #C99959",
"!. c #DC9A52",
"~. c #D79C59",
"^. c #EE9A43",
"/. c #E49747",
"(. c #F19E45",
"). c #FA9E41",
"_. c #EA9F53",
"`. c #DCA35F",
"'. c #FCA443",
"]. c #FBAA43",
"[. c #FDAB4B",
"{. c #F5A647",
"}. c #FCB24D",
"|. c #E7A558",
" X c #F4A650",
".X c #F6AB55",
"XX c #FAB45D",
"oX c #FDB354",
"OX c #EFA744",
"+X c #C59C68",
"@X c #DEA564",
"#X c #D5A56A",
"$X c #C6A373",
"%X c #D7AB72",
"&X c #DCB27A",
"*X c #EBAE63",
"=X c #E3AC6E",
"-X c #E4A864",
";X c #F5B364",
":X c #F3B469",
">X c #F5B96E",
",X c #FDBA64",
"<X c #E3B274",
"1X c #E9B373",
"2X c #ECBA74",
"3X c #EEB266",
"4X c #FBC67D",
"5X c #7F7F80",
"6X c #96928C",
"7X c #9E9386",
"8X c #979693",
"9X c #8B8C8C",
"0X c #A99B87",
"qX c #A39E96",
"wX c #A29F98",
"eX c #A7A297",
"rX c #BBAB97",
"tX c #BFB09C",
"yX c #BFB5A2",
"uX c #CFB792",
"iX c #D7B387",
"pX c #E7BD87",
"aX c #C7BBA6",
"sX c #EDC58E",
/* pixels */
"                                                                                                                    ",
"                                                                                                                    ",
"                                                                                                                    ",
"                                                                                                                    ",
"                                              4X}.x.x.c.v.j.v.v.v.                                                  ",
"                                                            v.x.a.q.q.a.v.                                          ",
"                                                                    c.a.0.q.c.                                      ",
"                                                                          d.0.q.                                    ",
"                                                                              a.0.a.                                ",
"                                                                                x.q.a.                              ",
"                                            k * o o # o o o % * k                   p.q.                            ",
"                                      j % % % * f j m M M n f = % + % j               a.q.                          ",
"                                    * % 7 n       >X,XXXXX:X1X$XA.b * o %               a.f.                        ",
"                                = X * I   >X[.v.k.k.k.v.j.j.v.v.'..X$XH * o =             p.p.                      ",
"                              * # k   >X'.j.k.[.oX            [.v.k.v.{.L.b + %             p.p.                    ",
"                            % %     [.k.'.oX                        ].k.k.|.L & %             p.c.                  ",
"                          % *     [.k.[.        P k = * * = f N         c.d. X>.* %           d.0.                  ",
"                        * *     v.'.        m % + : > r r > ; & * f       ].j.{.>.& =           8.p.                ",
"                      = %     '.v.      n & $ s | r.g.h.l./.&.X.u ; = P       j.^.J = P         a.8.                ",
"                      # N   [.'.      j % V 1.^.).[.:X1X&X1X:XXXh. .y 8 m       s.!.C h           6.w.              ",
"                    % *   oXk.oX    k & *./.)..X$X2.Z z z j Z 4.%X Xg.' 9 j     b.j.H.h Z         0.8.              ",
"                  v % A   d.'.    j < ,.^.).&X3.n g q B i i , % 7 >.|.^.' 9 n     d.(.J k           6.x.            ",
"                  % =   d.p.      & ;._.[.iXI z B <.I./._.U.&.[ 9 @ F -X(.] 9       p.B.j M         6.a.            ",
"                  o j   q.v.    = C ~.'.%XU x _ Y.|.#XG.D.P.#X_.I.r @ b :XY.i v     a./.C z         w.0.            ",
"                f o   c.a.    n * ,.).;X3.x / /.@X7XR :.,.,.-.2.%Xr.r @ n.*X| q     x.s.,.k         x.8.            ",
"                % %   a.d.    = b _.l.L.M u %._.2.>.R.R.N.N.B.} D   5.9 h =XU.i n     p.B.h           8.            ",
"                o f   q.b.    % :.l. X3.c ^ ^.A.>._.D.K.0XA.A.G.[ T `.] h K.OX_ h     p.I.z P         8.            ",
"                X v   q.      * B.k.@XA a u.+XY R.,.L.pX    aXqXP.D   | w C.,X} 8     d.t.c M         8.x.          ",
"              j X   v.p.    h 7 W.k.+Xn / l.S.,.R.F.pX          0X*.  r.p C.:X..q     a.t.c n         8.d.          ",
"              k o   x.a.    2 < U.l.D.z { (.2.,.B.H.            qX:.K B.i C.>X..q     a.t.x m         8.x.          ",
"              f o   d.p.    h < U.j.D.j { (.R 1.M.G.            wXJ   m.B 6X:X| 9     a.t.l M         8.c.          ",
"              f X   d.p.    j g U.k.F.h ) ).3.,.E.,.pX          0XS   [ B qX.X) g     a.&.h P         8.            ",
"              = o   c.p.    n * I.l.+Xh t g.L.K ~.:.B.          J H   s Y uXT.y k     q.| j         x.8.            ",
"              j O   c.p.      $ <.j.|.m 0 $.=XR ,.Q.-.,.L.L.D.*.C   ] p 6X1X .0 n     9.d k         d.8.  9X        ",
"                o j   p.      * d u.c.T q / |.0XK 1.Q.n.;.J V     [ p W uX_.u g     a.y.w n         q.q.  U         ",
"                o 7   q.b.    k 9 %.a.  n w  .-X0XK [ &.W.Q.  1.d b W uX*X<.q n     9.} f U         8.x.  v         ",
"                % o   a.q.      & ' i.'.  h i &.%XrX5XK V ` ] H Y 8XaX3X<.i j     d.#.r j         c.0.    v         ",
"                f O   c.0.      f ; $.p.  A 7 r ..|.iXuXqX6X8XwXtXpX~.=.w h       9.! 8 E         p.q.  j I         ",
"                  O =   0.x.      + i @.j.  Z = ; _ I.@X=X1X1X-X~.1.d g j       d.o.; n           8.c.  f           ",
"                  % O   a.q.      z # ( 7.c.    f , 1 y _ ' [ _ y e h m       k.+.r z           w.0.  j N           ",
"                    O k   q.j.      v $ ( 7.c.      k 8 8 < 9 g h j         j.+.4 < E         c.8.c.  = I           ",
"                    % #   c.q.        P $ u O.s.}.                      [.u.^ 5 7 U           8.q.  f j             ",
"                      + *   q.d.        U < > X.7.l.[.,X            v.f.O.! ; z E           q.0.  n *               ",
"                      = X v   p.j.        5Xn $ 5 { O.7.9.s.s.f.9.@.o.~ > < M             d.8.c.  # f               ",
"                        + X   {.p.k.          E h = : - 3 Q ~ Q 3 > ; 8 m E             d.6.x.  % %                 ",
"                          + +   ].q.j.            W Z j f = , 7 j m P                 w.6.x.  * #                   ",
"                            o %     p.p.}.                                          w.0.j.  % o                     ",
"                              X o m   a.q.d.                                    w.0.0.h.K + o                       ",
"                                % O f   b.q.q.d.                            w.e.0.a.V.j + %                         ",
"                                  % O % Z   c.p.q.a.j.].            v.a.0.6.6.w.U.S # X *                           ",
"                                    k o X & F     c.a.q.p.q.q.0.8.0.8.0.w.z.E.K f % % k                             ",
"                                        = X X % f F       OX{.b.OXh.  P.L n = # % k                                 ",
"                                            k % X X o % % f k k 2 = % # % % f M                                     ",
"                                                  j = % o X o X o # o = j                                           ",
"                                                                                                                    ",
"                                                                                                                    ",
"                                                                                                                    ",
"                                                                                                                    ",
"                                                                                                                    ",
"                                                                                                                    "
};
