/* XPM */
static char *hole61644614889[] = {
/* columns rows colors chars-per-pixel */
"58 60 221 2 ",
"   c None",
".  c #2C2C2E",
"X  c #2F2F31",
"o  c #2F3031",
"O  c #323334",
"+  c #363739",
"@  c #36393C",
"#  c #3A3B3C",
"$  c #343C43",
"%  c #3B3E41",
"&  c #303E48",
"*  c #2A3B48",
"=  c #3E4143",
"-  c #34444E",
";  c #3C454C",
":  c #3F494F",
">  c #2B4454",
",  c #3D4A53",
"<  c #334B5A",
"1  c #3B4E5A",
"2  c #334653",
"3  c #3B515F",
"4  c #274D66",
"5  c #2B526C",
"6  c #24516F",
"7  c #345164",
"8  c #3E5462",
"9  c #3B596C",
"0  c #375669",
"q  c #275777",
"w  c #365C74",
"e  c #375D75",
"r  c #314E62",
"t  c #34617D",
"y  c #3C647C",
"u  c #424345",
"i  c #434649",
"p  c #44494C",
"a  c #4A4B4C",
"s  c #444D53",
"d  c #4A4E52",
"f  c #414F59",
"g  c #4D5255",
"h  c #44525C",
"j  c #4C545B",
"k  c #525456",
"l  c #535659",
"z  c #5A5B5D",
"x  c #56595C",
"c  c #425562",
"v  c #455965",
"b  c #4D5A63",
"n  c #445C6B",
"m  c #4C5E6B",
"M  c #565D63",
"N  c #435F70",
"B  c #49616F",
"V  c #556169",
"C  c #436275",
"Z  c #4B6474",
"A  c #4A697D",
"S  c #46677B",
"D  c #546673",
"F  c #5A6A74",
"G  c #566C7A",
"H  c #5C6E79",
"J  c #586974",
"K  c #5F717C",
"L  c #646566",
"P  c #696A6B",
"I  c #66757D",
"U  c #1B5D87",
"Y  c #235D82",
"T  c #1D699C",
"R  c #28648A",
"E  c #346482",
"W  c #386A89",
"Q  c #286B97",
"!  c #376F91",
"~  c #3B7294",
"^  c #34739C",
"/  c #3B779B",
"(  c #1B73AC",
")  c #167BBD",
"_  c #2C75A5",
"`  c #397BA5",
"'  c #237BB5",
"]  c #466D84",
"[  c #45718D",
"{  c #4C738B",
"}  c #567283",
"|  c #53758B",
" . c #5D7A8C",
".. c #58768A",
"X. c #447593",
"o. c #497795",
"O. c #567D96",
"+. c #546F80",
"@. c #607583",
"#. c #657987",
"$. c #607D90",
"%. c #427EA3",
"&. c #4B7FA0",
"*. c #167FC2",
"=. c #2783BE",
"-. c #3A89BB",
";. c #3A86B6",
":. c #3B80A8",
">. c #5D839C",
",. c #5B819A",
"<. c #658396",
"1. c #698597",
"2. c #7A8B96",
"3. c #6F828F",
"4. c #4484AD",
"5. c #4A85AB",
"6. c #4280A6",
"7. c #5585A4",
"8. c #5289AC",
"9. c #5B8DAC",
"0. c #5A88A5",
"q. c #438CBB",
"w. c #4B8BB4",
"e. c #548EB2",
"r. c #5E8FB1",
"t. c #4A90BC",
"y. c #5691B5",
"u. c #5B92B4",
"i. c #5494BC",
"p. c #5B96BC",
"a. c #5F91AF",
"s. c #648EA9",
"d. c #658BA4",
"f. c #6792AE",
"g. c #7B95A6",
"h. c #6494B4",
"j. c #6D9CBA",
"k. c #6796B5",
"l. c #759BB2",
"z. c #7BA4BD",
"x. c #6FA0BF",
"c. c #1D82C4",
"v. c #1D8CD3",
"b. c #2989C9",
"n. c #378DC6",
"m. c #3D95CD",
"M. c #228CD1",
"N. c #2494DC",
"B. c #2B93D6",
"V. c #3D97D1",
"C. c #3E9AD6",
"Z. c #3699D9",
"A. c #149DFD",
"S. c #1F9FF2",
"D. c #1F95E5",
"F. c #2C9BE3",
"G. c #2799E5",
"H. c #379FE2",
"J. c #279EF1",
"K. c #16A2FE",
"L. c #1CA5FD",
"P. c #2DA2ED",
"I. c #34A4ED",
"U. c #3AA5E9",
"Y. c #3BA6EB",
"T. c #2AA4F4",
"R. c #22A5FB",
"E. c #2AA6FA",
"W. c #24A9FD",
"Q. c #2BABFC",
"!. c #2AA6F5",
"~. c #33A6F3",
"^. c #3BACF4",
"/. c #33ADFC",
"(. c #38ADF7",
"). c #3CB1FC",
"_. c #4392C4",
"`. c #4895C7",
"'. c #5A9BC4",
"]. c #529CCC",
"[. c #569AC5",
"{. c #439BD4",
"}. c #489DD3",
"|. c #619EC5",
" X c #5CA2CD",
".X c #4AA3DD",
"XX c #53A2D5",
"oX c #51A5D8",
"OX c #5AAADB",
"+X c #59A8D9",
"@X c #69A2C6",
"#X c #64A4CC",
"$X c #6BA5C9",
"%X c #76AACB",
"&X c #7DAECC",
"*X c #65ABD7",
"=X c #7BB0D1",
"-X c #46A6E3",
";X c #4CADEB",
":X c #45A9EA",
">X c #53ABE3",
",X c #51AEEA",
"<X c #5BAEE4",
"1X c #54B2ED",
"2X c #5BB2E9",
"3X c #43AFF3",
"4X c #4DB1F2",
"5X c #43B4FC",
"6X c #4AB6FB",
"7X c #48B5FA",
"8X c #52B4F2",
"9X c #55BAFC",
"0X c #73C7FB",
"qX c #888F94",
"wX c #849AA8",
"eX c #86A4B7",
"rX c #92A2AC",
"tX c #A0ACB4",
"yX c #85ACC4",
"uX c #87B2CE",
"iX c #88BBDB",
/* pixels */
"                                                                                                                    ",
"                                                                                                                    ",
"                                                                                                                    ",
"                                                                                                                    ",
"                                                      i u #                                                         ",
"                                          u @ X O X O O . . . . X O # u                                             ",
"                                      + O O O @ ; h n C C n v h ; # + . O #                                         ",
"                                  + o o % n { q.C.U.I.T.J.T.I.H.}.    h @ X O #                                     ",
"                              # X O ; S _.U.Q.Q.R.R.Q.R.R.R.L.R.R.Q.Q.U.    # O O u                                 ",
"                            O O = A m.~.Q.Q./.).                7X).Q.W.W.Y.  b + O #                               ",
"                          X O h 4.~.Q.Q.).                            5XQ.W.Q.    = o #                             ",
"                      u O + C C.W.W./.                                    ).Q.Q.I.  i + #                           ",
"                      O @ ] H.Q.Q.              k = % $ - , ; ; = i l         /.R.~.  s O u                         ",
"                    O O S U.W./.          P l , < 6 R Q _ _ _ W y c ; = a       /.R.~.  i #                         ",
"                  + O n Z.Q./.          x , 5 Q ' M.G.J.J.J.J.H.Z.`.o.c ; #       /.W.~.  = #                       ",
"                # O f V.E./.        P j r Q ' G.~.Y.-XXX].`.`.-X:X^.I._.o.h =       /.Q.;XM + %                     ",
"                X @ 4.E.Q.        L p 5 ' N.^.,Xp...V b j j b J ..i.-X^.-X5.c =       /.5X  a +                     ",
"              + O C I.E.        L , q ' I.6X  F s , 8 9 t t w 0 8 m ..[.;XU.w.v u     9X).1XG % u                   ",
"              O ; _.W./.        ; 5 c.I.2X  j , 7 W :.q.`._.-.=._ t n F h.;X:X7.j d     6X6X  s +                   ",
"            % O S P.W.        l > ( P.    d 2 y 4.[.@Xj.x.k.p. X{.b.^ n F h.4X-X{ i       5X2XV #                   ",
"            O # q.R.Q.        - U G.8X  j 1 W i.&Xl.3.<.<. . . .d.].V._ n K $X8Xi.h a     6X4X<.# u                 ",
"            . 1 F.L.        g 4 *.(.    , E i.=Xg...X.8.9.y.y.7.,.1.[.B.Q m 1.<X>X{ i     6X7X|.i #                 ",
"          u O ] R.W.        , U N.    s 0 4.=XqX} :.8.>.>.0.s.9.y.>.<.].b.y F @X;X5.; l   9X6XOXs O                 ",
"          u = 4.L.Q.      L < ( ~.    1 !  XeX@.X.8.,.0.j.%X%Xk.u.i.>.s.}.` V d.1X_.c a     ).1Xb O                 ",
"          u p n.L.        z 4 c.5X  l 3 :.&X2.[ 5.<.d.uX      iXj.r.9.1. X-.n #.<X{.9 i     5X1XD +                 ",
"          = f B.A.        j q v.    s t t.eX#.[ ,.}             uXl.y.1.|.`.n H >X{.9 i     5X8XK #                 ",
"          = c F.A.        j q N.    p y  XwXK [ { ..            iXl.u.<.@X[.n F OX{.w i     ).4XF #                 ",
"          + c G.A.        j Y N.    p B  XeXH [ { }             yXf.y.>.@Xe.n D >Xm.7 a     ).,Xm +                 ",
"          + c G.A.        j q N.    g N p.eXI A   D g.          g.r.8.>.XX&.h  .>X-.> a     5X>Xj +                 ",
"          # 8 F.A.        j q M.    k v w.&XI C   G @.qXtX  tXwXs.e.,.h.].W s f.;X^ & d   6X6X Xa #                 ",
"          O , B.A.        x 5 c.3X    h o.%X2.B [   G ..3.g.g.9.5.O.s.]./ 8 D *X{.q $     5X7Xs.# +                 ",
"          O - n.K.        L < ( Y.    s y '.z.I C X.  G } ..O.{ O.u.].` 7 h h.;X` > i     5X1XD + %                 ",
"          # % ;.L.Q.        , R G.    g 8 6.*Xg.H N X.8.0.0.9.e.i.t./ 3 ,  .<Xm.q @     6X6X Xs +           0X      ",
"          u O ~ R.R.        g q c.~.    h e q.*XwXI Z t ! / o.` R 5 - , O.OX{.E - a     5X4X .# =           9X      ",
"            O 9 F.L.        P 1 Q D.      1 E -.OXz.3.J B 8 1 > * - B 8.-XV.! - u     6X7X#Xs +           /.        ",
"            O ; V.L.Q.        j 4 ) L.    k 1 t ;.XX*Xx.1.K D Z | y.oX.X-.e > ;     6X).<XD + #           /.        ",
"            # # o.R.W.          s R v.!.      h 9 ~ q.}.oXOX+XOXoX{.-.! 0 , a     5X5X;XO.= +           ).6X        ",
"              + 8 H.L.Q.        M 1 ^ N.E.      j h 9 E ^ ` :./ ! t 7 f k V     7X).;X0.i +             ).          ",
"              # = 4.L.L.          l h ^ B.W.        l j h h v h f s k         ).).;X>.: + i           /.6X          ",
"                + v U.L.W.          k h ! B.T.Q.                          5X/.3XXX} u + u           /.).            ",
"                u u   T.K.Q.          z h y ;.F.!.Q.                  ).).3X-Xe.m % +             /.Q.              ",
"                  a g   R.L.            V g n [ -.Z.I.T.Q.Q.Q./.).(.^.^..Xw.G , + @               W.Q.              ",
"                  z u b   L.L.              x g m ] 6.t.`.V.C.}.}.t.5.{ n ; # +               /.L.Q.                ",
"                    l a     R.L.                z k l b m Z Z D Z j p # # #                 Q.L.Q.                  ",
"                      l k     L.L.Q.                  M x l k l l k a                     Q.L.Q.                    ",
"                        z k     W.L.W.                                                Q.R.R./.                      ",
"                            L     Q.L.L.Q.                                        /.R.R.R.                          ",
"                              qX      W.L.L.Q.                                /.W.R.R./.                            ",
"                                          W.L.L.L.W.                    /.Q.R.W.Q./.                                ",
"                                              Q.W.K.K.A.K.K.K.L.L.W.W.W.W.Q.Q.                                      ",
"                                                      R.R.L.L.L.W.Q./.                                              ",
"                                                                                                                    ",
"                                                                                                                    ",
"                                                                                                                    ",
"                                                                                                                    ",
"                                                                                                                    ",
"                                                                                                                    ",
"                                                                                                                    ",
"                                                                                                                    ",
"                                                                                                                    "
};
