/* XPM */
static char *hole41644614888[] = {
/* columns rows colors chars-per-pixel */
"58 60 220 2 ",
"   c None",
".  c #2D2C2D",
"X  c #282728",
"o  c #302E2F",
"O  c #312F31",
"+  c #3B2F3E",
"@  c #343334",
"#  c #393539",
"$  c #3C3A3C",
"%  c #383637",
"&  c #3E3341",
"*  c #3F3940",
"=  c #3F2C43",
"-  c #452B4A",
";  c #423D43",
":  c #463B48",
">  c #4A3E4D",
",  c #453549",
"<  c #4C2E53",
"1  c #4B2354",
"2  c #51295B",
"3  c #4D3254",
"4  c #4E3E51",
"5  c #513C56",
"6  c #53345B",
"7  c #543A5A",
"8  c #592566",
"9  c #5A2667",
"0  c #5B3365",
"q  c #5B3A63",
"w  c #5E3E68",
"e  c #62376C",
"r  c #6D2D7D",
"t  c #662476",
"y  c #653472",
"u  c #6B3679",
"i  c #622F6F",
"p  c #444244",
"a  c #4A434C",
"s  c #4C4A4C",
"d  c #484747",
"f  c #504E4F",
"g  c #4F4551",
"h  c #4F4C50",
"j  c #514454",
"k  c #514C52",
"l  c #544259",
"z  c #564A59",
"x  c #5A4C5D",
"c  c #59455E",
"v  c #545254",
"b  c #59555A",
"n  c #5C5B5C",
"m  c #575458",
"M  c #5C4561",
"N  c #5E4B63",
"B  c #5E5361",
"V  c #604B66",
"C  c #64496B",
"Z  c #66516A",
"A  c #68526E",
"S  c #655968",
"D  c #684871",
"F  c #734D7C",
"G  c #72427F",
"H  c #6D5373",
"J  c #6E5C72",
"K  c #73527C",
"L  c #725D77",
"P  c #636263",
"I  c #6D6C6D",
"U  c #78677C",
"Y  c #6E6172",
"T  c #77188D",
"R  c #7B1C93",
"E  c #762C89",
"W  c #733383",
"Q  c #783888",
"!  c #7F2A94",
"~  c #77298A",
"^  c #794D84",
"/  c #7B438A",
"(  c #7E4C8A",
")  c #794786",
"_  c #7E5289",
"`  c #7B5784",
"'  c #7B6281",
"]  c #7F7182",
"[  c #841A9F",
"{  c #843E96",
"}  c #873C9A",
"|  c #833697",
" . c #89289E",
".. c #8B18A6",
"X. c #9618B5",
"o. c #8924A1",
"O. c #9427AE",
"+. c #8E35A4",
"@. c #9237A9",
"#. c #9C3AB5",
"$. c #9F3DB8",
"%. c #9F2BBC",
"&. c #A13ABB",
"*. c #A323BF",
"=. c #835C8C",
"-. c #82508F",
";. c #854695",
":. c #8D559B",
">. c #8A5995",
",. c #915B9D",
"<. c #824B8F",
"1. c #84678C",
"2. c #8C6B93",
"3. c #8F6399",
"4. c #8B6595",
"5. c #91649C",
"6. c #8D7394",
"7. c #877A8A",
"8. c #9749AA",
"9. c #9C56AD",
"0. c #9E5CAE",
"q. c #9358A1",
"w. c #9E43B5",
"e. c #9E4AB4",
"r. c #9E56B0",
"t. c #A343BB",
"y. c #A84CBF",
"u. c #A353B6",
"i. c #A25BB4",
"p. c #A659B9",
"a. c #A957BE",
"s. c #9A67A7",
"d. c #9C77A5",
"f. c #A26DAF",
"g. c #A07DA8",
"h. c #A56DB2",
"j. c #AA67BA",
"k. c #AC7CB9",
"l. c #AE1AD2",
"z. c #AB12D1",
"x. c #B51CDA",
"c. c #A416C8",
"v. c #AA27C9",
"b. c #A838C4",
"n. c #B23ECF",
"m. c #B627D9",
"M. c #B738D7",
"N. c #BC1AE3",
"B. c #BD22E3",
"V. c #BF38E1",
"C. c #CF13FE",
"Z. c #CF19FB",
"A. c #CD1DF6",
"S. c #D215FE",
"D. c #D11BFD",
"F. c #D30CFD",
"G. c #C52AEA",
"H. c #C527EB",
"J. c #C739E9",
"K. c #CC24F5",
"L. c #CD2CF5",
"P. c #CE27F8",
"I. c #D224FD",
"U. c #D32BFC",
"Y. c #D22CF7",
"T. c #CD34F2",
"R. c #CD3BF2",
"E. c #D136F5",
"W. c #D13BF6",
"Q. c #D433FC",
"!. c #D53BFC",
"~. c #D838FC",
"^. c #AC44C6",
"/. c #AC4CC4",
"(. c #B44DCD",
"). c #AC56C2",
"_. c #B459CB",
"`. c #B156C8",
"'. c #BA46D6",
"]. c #BB5DD3",
"[. c #BD53D8",
"{. c #AF64C1",
"}. c #B567C9",
"|. c #B471C4",
" X c #BD63D4",
".X c #BD69D2",
"XX c #BF74D2",
"oX c #C044DE",
"OX c #C14ADE",
"+X c #C258DD",
"@X c #C464DC",
"#X c #C577D9",
"$X c #C343E3",
"%X c #CA4AE9",
"&X c #C553E1",
"*X c #CD5AEA",
"=X c #CD50EC",
"-X c #CF46F0",
";X c #D34CF4",
":X c #D742FC",
">X c #D845FD",
",X c #D94CFC",
"<X c #D547F9",
"1X c #D452F4",
"2X c #DB54FD",
"3X c #D954FA",
"4X c #CC63E6",
"5X c #CA69E2",
"6X c #D162ED",
"7X c #928995",
"8X c #838183",
"9X c #9E8BA2",
"0X c #9C81A2",
"qX c #A48AAA",
"wX c #AB8DB3",
"eX c #B390BD",
"rX c #B5A8B8",
"tX c #B888C4",
"yX c #C489D4",
"uX c #D08CE1",
/* pixels */
"                                                                                                                    ",
"                                                                                                                    ",
"                                                                                                                    ",
"                                                              8XP b P P P                                           ",
"                                                                  b m s p p p v n                                   ",
"                                                                            k p % % p                               ",
"                                                    U.I.D.D.D.D.D.S.D.D.I.U.    H d @ @ p                           ",
"                                              I.C.D.C.D.I.U.I.U.U.U.I.I.D.D.S.D.U.  ^ ; O %                         ",
"                                          D.S.D.D.Q.                        U.I.S.Z.P.(.C @ o d                     ",
"                                      D.S.C.U.                                    U.Z.D.T.;.* @ $                   ",
"                                  I.S.S.I.                                            D.S.K.t.> . %                 ",
"                                I.C.S.                        I                         U.S.A.^.5 @ p               ",
"                              I.S.I.                B k h g g j g g g h b I                 S.D.b.s % d             ",
"                            U.Z.I.              n f z C ) ;.@.@.@.+.| r 9 4 s B               S.D.w.p $             ",
"                          U.I.Q.            m h N _ w.M.G.K.P.P.K.A.K.N.z...~ 3 a n             F.A.;.$ p           ",
"                        ~.I.Q.            k z _ /.J.P.U.Q.              U.Y.N.X.t 3 m           D.F.G.V $ s         ",
"                        I.U.            h N 8.J.P.U.                        ,XE.x.R 6 z           S.S.t.d $         ",
"                      U.I.            s A ).T.U.          k g g g g g v         <XB.[ 6 m           S.L.F @ $       ",
"                      I.U.          ; N ).E.U.      b j q y W ! E E u q 4 g       2XB...< S         I.D./.# o       ",
"                    I.I.          @ 4 u.W.!.      z q W $.(.&X&X&X&X'.w.;.w g v     3XB.T 4 I         D.G.l o       ",
"                    D.Q.        ; * :.R.Q.    n j u #.OX4XXXwXg.0XwXtX#X@Xt.G g v     !.l.9 k         I.I.<.o $     ",
"                  I.I.          @ A &XQ.      4 u ^.*X|.1.Y H A N A L ] qXyX`.) j s     P...3 I       U.D./.$ O     ",
"                  D.U.        % : a.!.:X    a y ^.4X3.x c y W { ;.Q u M J 7XyX`.Q >     ,Xl.9 k         D.$Xa .     ",
"                U.D.          @ H %XQ.    k 0 #.*X>., 6 Q t.            u J 7XyX/.i k     H.T ,         I.T.c .     ",
"                I.I.        % $ 0.!.~.  I g ! %Xi.& 1 +.`.4.K F K K A     Q Y qX@X| 5     E.X.1 P       U.Y.D . p   ",
"                I.Q.        @ j [.~.    v q b.&XN = ! _.1._ 4.d.9X9X2.K K q.G 7.yXw.0 k   :Xc.1 n       Q.U.F . ;   ",
"                D.          @ H ;X!.    : W $Xi.& i ^.s.( s.9X          ^ -.} ` eX(.i a   2Xl.2 m       U.U.-.o ;   ",
"              Q.D.        p @ >.<X:X  h - +.=X_ = }  X( e.0XrX          3.=.w.K qX Xu >   2Xx.8 k       Q.U.^ . p   ",
"              U.I.        ; # 0.!.>X  d < b.*XZ 3 $.{.;.u.0X            f.=.e.^ qX.XW :   2Xm.8 m       Q.Y.F . ;   ",
"              U.D.        $ * {.!.,X  p < b.4XN 3 ^.j.:.i.d.            h.>.w.^ eX].y a   ,Xv.2 n       U.E.H o p   ",
"              U.U.        $ p }.!.,X  d < b.5XZ 7 ^.{.>.j.d.          yX,.q.8.' tX).0 a   !.X.< P       I.J.c o     ",
"              ~.U.        % ; }.:X,X  d - b.6XL 7 w.].=.u.s.|.uX    uX0.:.a.( 6..X@.3 v   T.o.>         I.J.; .     ",
"              >XQ.        $ $ j.:X>X  d - O.1X2.a } +Xs.,.).s.h.|.k.f.:.a.9.U k.(.r ,   ,XB.t f       ~.I./.# O     ",
"              2XQ.        $ # s.,X:X    # E -X{.z D `..X6.,.).p.r.9.u.).q.' d.].+.6 k   E.*.< P       U.P._ o $     ",
"              2XQ.        p @ ' 3X!.    $ 0 M.*X' j <.[. X2.1.,.r.r.:.` ' h.+X$.e s   <XB.~ a         I.J.j .       ",
"                !.          @ x 6X:X    s - +.-X XS c } '.+Xj.5.2.1.4.s.@X'.@.e g L =XK.O.3 b       Q.I.  # @       ",
"                !.          # ;   :X>X    , 0 '.;Xj.S N Q %.m.J.'.$X$XM.v.| q j U &XP.l.8 p         I.R.N . ;       ",
"                !.Q.        % @ 1.;X:X    n # u $X1X|.U N C W  .O.O.o.~ i 7 z =.%XY.m.r + v       Q.U.  # o         ",
"                  ~.          @ k   !.>X    v , ;.'.<X5Xd.U S b x x x z B ` {.E.P.m.W + p       !.I.-Xx . $         ",
"                  2X          $ $   ;XQ.      d : ) '.;X;X4X}.f.s.5.s.i.[.-XE.L.v.y , d         I.E.  @ @           ",
"                                % p   :X!.      s $ C 9.[.;X:XW.<X<X!.E.!.J.n.} 7 * v         I.I.  # .             ",
"                                p % S #X>X!.      m ; : C :.u.(.'.'.'.t.8.( 7 # p           I.I.  a X $             ",
"                                  $ % J 5X:X:X3X      v p ; a z M M c > $ $ p m         U.D.I.  k . %               ",
"                                    % @ Z @X,X:X,X          k d $ $ $ p k             I.D.P.  a . %                 ",
"                                      @ @ B   3X:X:X,X                            ~.I.I.R.  $ . #                   ",
"                                        $ % s   4X3X>X~.!.!.              :XQ.U.I.I.E.  V O X %                     ",
"                                          ; @ $ S     ,XQ.D.I.U.I.I.U.I.I.I.D.U.W.    $ . . $                       ",
"                                              % % $ v         Q.Q.U.Q.Q.!.        $ @ . %                           ",
"                                                f % % % ; s b             d # o . . %                               ",
"                                                      p % % O @ @ O o . . O @ # ;                                   ",
"                                                                p $ ; p p                                           ",
"                                                                                                                    ",
"                                                                                                                    ",
"                                                                                                                    ",
"                                                                                                                    ",
"                                                                                                                    ",
"                                                                                                                    ",
"                                                                                                                    ",
"                                                                                                                    ",
"                                                                                                                    "
};
