/* XPM */
static char *hole51644614889[] = {
/* columns rows colors chars-per-pixel */
"58 60 222 2 ",
"   c None",
".  c #2D2C2E",
"X  c #2F2E30",
"o  c #302F31",
"O  c #343335",
"+  c #373539",
"@  c #39373B",
"#  c #3B3A3C",
"$  c #352D48",
"%  c #3A3644",
"&  c #3E3C42",
"*  c #3C354C",
"=  c #3E3A4A",
"-  c #373046",
";  c #3B2E5D",
":  c #372A56",
">  c #3D3454",
",  c #3F335D",
"<  c #3A1F7A",
"1  c #3C2C64",
"2  c #38236A",
"3  c #3C2478",
"4  c #3A2474",
"5  c #403F44",
"6  c #413D4B",
"7  c #443D53",
"8  c #453C5C",
"9  c #41365A",
"0  c #423562",
"q  c #4A3B6C",
"w  c #453867",
"e  c #432D77",
"r  c #4D3C75",
"t  c #483579",
"y  c #493775",
"u  c #434244",
"i  c #46444A",
"p  c #48464B",
"a  c #4A4A4B",
"s  c #464252",
"d  c #4A4554",
"f  c #4D4A53",
"g  c #4B445C",
"h  c #4F4B59",
"j  c #504E54",
"k  c #514D5B",
"l  c #535254",
"z  c #56535C",
"x  c #585759",
"c  c #5A595C",
"v  c #4D4464",
"b  c #4E4566",
"n  c #514A62",
"m  c #554C6C",
"M  c #504669",
"N  c #595465",
"B  c #5B556B",
"V  c #5F5D64",
"C  c #594F73",
"Z  c #5B4D7B",
"A  c #554874",
"S  c #5D5376",
"D  c #4E4172",
"F  c #605F61",
"G  c #625C6C",
"H  c #625A73",
"J  c #635A79",
"K  c #626164",
"L  c #6B6A6B",
"P  c #6B647B",
"I  c #737273",
"U  c #3B1795",
"Y  c #401D97",
"T  c #462A8A",
"R  c #4B3481",
"E  c #4D348C",
"W  c #50398C",
"Q  c #503C84",
"!  c #482996",
"~  c #553B97",
"^  c #4F3693",
"/  c #4319A9",
"(  c #4718BA",
")  c #4B26A6",
"_  c #5A39AB",
"`  c #5739A5",
"'  c #5329BB",
"]  c #5A36B5",
"[  c #5D3AB7",
"{  c #5027B5",
"}  c #613DBC",
"|  c #584586",
" . c #5A4493",
".. c #5E4894",
"X. c #5C439A",
"o. c #5F5084",
"O. c #614E8E",
"+. c #615287",
"@. c #675A84",
"#. c #64548B",
"$. c #6A5C8B",
"%. c #675A87",
"&. c #624C9A",
"*. c #624D95",
"=. c #6C5C94",
"-. c #69559A",
";. c #6E628B",
":. c #6C6383",
">. c #726B84",
",. c #74698D",
"<. c #6F6193",
"1. c #716392",
"2. c #776998",
"3. c #7C709B",
"4. c #5C41A3",
"5. c #5F41AD",
"6. c #6244AE",
"7. c #664CA7",
"8. c #6C54AA",
"9. c #6D57A6",
"0. c #725DA3",
"q. c #715BAA",
"w. c #6445B2",
"e. c #6442BC",
"r. c #694BB6",
"t. c #6E50B8",
"y. c #7156B3",
"u. c #735AB2",
"i. c #7559B9",
"p. c #7762AB",
"a. c #7964AC",
"s. c #7D69AC",
"d. c #7866A3",
"f. c #7B63B4",
"g. c #7F70A8",
"h. c #511DD2",
"j. c #561FDD",
"k. c #4C18D1",
"l. c #5627C8",
"z. c #5D35C3",
"x. c #5622D9",
"c. c #643AC9",
"v. c #6736DE",
"b. c #693CDC",
"n. c #6638D6",
"m. c #602DD7",
"M. c #571BE6",
"N. c #5A15FD",
"B. c #5B1BFD",
"V. c #5817FB",
"C. c #611DFC",
"Z. c #5D24E9",
"A. c #5923E2",
"S. c #5F21FD",
"D. c #632DEC",
"F. c #602BE4",
"G. c #6B3BE2",
"H. c #6A36EA",
"J. c #6025F5",
"K. c #662DF5",
"L. c #6224FC",
"P. c #652AFD",
"I. c #692EFD",
"U. c #692EF7",
"Y. c #6A32F3",
"T. c #6E39F4",
"R. c #6C33FC",
"E. c #6F38FB",
"W. c #6732F0",
"Q. c #713CF5",
"!. c #723CFC",
"~. c #7134FB",
"^. c #703FEB",
"/. c #6C45CA",
"(. c #6945C4",
"). c #714DCD",
"_. c #7553CC",
"`. c #7A5ACC",
"'. c #7759C6",
"]. c #6D42DC",
"[. c #6C44D2",
"{. c #724BD7",
"}. c #7551D1",
"|. c #7955D5",
" X c #7E59DA",
".X c #7F62C5",
"XX c #7343EC",
"oX c #7A4DED",
"OX c #764BE4",
"+X c #7B4CF3",
"@X c #7642FC",
"#X c #7945FC",
"$X c #7D4BFB",
"%X c #7544F1",
"&X c #7C56E0",
"*X c #827A96",
"=X c #887BA7",
"-X c #826CB9",
";X c #8A79B7",
":X c #806DAC",
">X c #815DDB",
",X c #8166C6",
"<X c #8163CE",
"1X c #866BC9",
"2X c #927CC7",
"3X c #8465D4",
"4X c #9178D4",
"5X c #835DE4",
"6X c #8359ED",
"7X c #804FFC",
"8X c #8154F5",
"9X c #8151FD",
"0X c #8661E0",
"qX c #848289",
"wX c #89819C",
"eX c #8E83A8",
"rX c #938AAB",
"tX c #9589B7",
"yX c #9C96AB",
"uX c #A29CAC",
"iX c #9988C5",
"pX c #9882D0",
/* pixels */
"                                                                                                                    ",
"                                                                                                                    ",
"                                                                                                                    ",
"                                                    a a u # @ O . O O @ u                                           ",
"                                              # @ + @ 5 i d d 7 = @ @ O X X O #                                     ",
"                                          @ . O 6 M  .w.c.m.v.G.v.n.(.7.Z 6 + X O @                                 ",
"                                      + O @ w ..c.J.V.N.N.N.B.B.B.B.B.L.K.v.r.A & O . #                             ",
"                                  5 O + 8 6.F.S.N.N.N.N.C.          R.I.I.L.L.Y./.A = X O                           ",
"                                @ O i &.H.B.B.C.                            R.P.P.Y.t.n O X u                       ",
"                              # + v /.J.N.S.                                    E.P.S.].Z @ . &                     ",
"                            5 # Z G.B.B.P.                                          I.S.W...@ X 5                   ",
"                          a u +.H.B.B.                  K N j j f f f z               R.S.Y.*.+ . p                 ",
"                        l u   H.B.B.              F k 7 0 2 3 < 3 < 2 : > p F           E.L.W...O X                 ",
"                      K i B G.B.B.            c d > 4 Y ( h.x.M.A.x.k.( U 2 : a L         E.L.^.m o @               ",
"                      a j   C.B.            x * 3 / h.D.Q.          $XQ.F.j./ 1 = K         R.P.[.d o u             ",
"                    F l   L.B.            k , Y h.W.9X                    $XF.l.T 9 c         I.I.7.+ O             ",
"                    l   T.B.P.          d 1 / M.%X        f i s d d d l       T.x.! > c         P.H.q X @           ",
"                  I F   B.B.          l 1 / M.#X      j d v r t R t w , 6 d     @XA.! = K       ~.P.7.@ O           ",
"                  qX  E.B.I.        c 8 ) M.~.    l d b | 6.'.`.`.|.t.4.R 8 6 N   !.x.3 6         L.G.h o u         ",
"                      L.B.          d E x.P.    j 8 r r.3XpXtXrXrXtXiX4X`.4.w * B   Y.{ ; i       P.P.*.O @         ",
"                      B.L.        l q ' K.    j ,  ._.4XrXqXP J J @.>.*XiX3X5.w 6 J XXZ.! - l     R.L.c.@ X         ",
"                    P.B.          f ^ Z.      9 Q ).4XqXH A | ..X.` X.| >.tX3X` 0 f   I.l.; &       B.H.7 .         ",
"                    S.B.        x w z.P.    s e c.4XwXm r ..  +.+.-.q.w.X.:.;X`.^ 7 J %XZ.T @       L.K.m . @       ",
"                    B.L.        f | A.E.    8 ` &XeXS r *.  S +.=.2.=.=.r...,.1Xe.q z `.J.{ * l     L.L.#.O O       ",
"                    B.I.        f 4.J.    f e /.4X>.D ..  S ,.      iX0.-.t.$.=X{.R g 0.U.l.9 p     L.L.  O O       ",
"                  I.B.        c g e.J.    s W |.tXB Q   S ,.uX        2X9.u.9.,.|.^ 8 #.~.m.w u     E.L.  @ O       ",
"                  P.B.        x M c.P.    g 4.0X3.D X.  S wX            a.q.u.:.|.) 8 @.^.v.q 5     !.P.  @ O       ",
"                  P.N.        x C n.I.    0 [ 0X>.D 4.;.$.rX            -Xq.8.;.|.' w %.%Xb.D &     !.L.  @ O       ",
"                  L.C.        l C n.P.    8 _ 0XP q 5.1.$.eX            -Xu.9.;.{.) v =.%Xb.M u     R.L.  O O       ",
"                  L.N.        x C ].I.    v _ &XJ 8 ` d...g.yX        4Xa.t.=.:Xb.! n 0.T.(.8 p     I.P.  O @       ",
"                  L.N.        x m /.P.    g ~  X$.* W '.+.7.:X=XtXiX2X:Xi.q.1.`.l.t B `.H.6.6 p     L.U.  . u       ",
"                  L.N.        c k (.P.    k R {.f.% 2 e.0...t.q.p.:Xs.i.y.<.a.b.) b ;.oXXX*.#     !.L.  d O         ",
"                    N.          f 7.Y.    x w e. XM $ ! _.p.-.8.y.y.y.0.1.s.].' r G ,XQ.[.b &     R.L.  # O         ",
"                    N.L.        l +.XXE.    s E {.i.6 : ~ ).'.2.<.<.2.:X,X{.l.t N d.+X^.&.5 p     L.R.  O @         ",
"                    B.B.        l m ).E.    f 0 ] {.9.6 > W e.}.|. X3X>X{.` r N 3.5XXXt.k u     ~.L.  d . u         ",
"                    S.N.        x p 7.^.!.    d y c.OXq.g = w W 4.6.7...r v G 3.>X7X_.C 5       P.I.  + O           ",
"                      B.          5 b {.E.    K s t c.OX,X@.k d 7 g g k N :.-X6X+X_.S i l     R.L.  h O u           ",
"                      L.I.        # & *.XX!.    V * e ] OX5X1Xs.1.;.<.d.,X5X8XOXt.C = f     !.L.Q.  + +             ",
"                      R.L.          @ s t.@XE.    j % ; T [ ].oX6X6X+XoXXX].(. .7 u x     $XI.I.  i O               ",
"                        L.I.        p + m }.E.!.      & % ; T ! ) [ ] _ ~ r 8 5 i       9X!.@X  l @ u               ",
"                        I.L.          # + S |.!.@X      l u + $ $ * $ * % u p         $X#X$X  z + #                 ",
"                          L.L.          @ + C `.@X!.#X        x p p f c             #X#X+X  z @ #                   ",
"                          R.S.R.          @ O n i.oX!.!.#X                    9X#X#X#X6X  j @ #                     ",
"                            P.L.            & O i $.>X+X@X@X@X#X$X  9X9X#X!.!.!.#X8X  H u O 5                       ",
"                              L.L.            u O @ k <..X6X$X$X#X@X@X!.!.#X9X5X  H p @ O p                         ",
"                                C.L.              # O @ i B ;.a.1X<X3X<Xf.d.:.z & O @ u                             ",
"                                  C.C.                u O O + # & u i i u # # @ O #                                 ",
"                                    L.L.                    5 & + o + @ # # p                                       ",
"                                      L.B.P.                                                                        ",
"                                        I.S.L.                                                                      ",
"                                            L.B.L.                                                                  ",
"                                                R.R.R.!.                                                            ",
"                                                    $X@X!.!.R.~.                                                    ",
"                                                                                                                    ",
"                                                                                                                    ",
"                                                                                                                    ",
"                                                                                                                    ",
"                                                                                                                    ",
"                                                                                                                    ",
"                                                                                                                    "
};
