/* XPM */
static char *_7881644539803[] = {
/* columns rows colors chars-per-pixel */
"60 60 190 2 ",
"   c None",
".  c #2B2B2D",
"X  c #2D2D2F",
"o  c #2E2E30",
"O  c #303032",
"+  c #313132",
"@  c #313133",
"#  c #323233",
"$  c #323234",
"%  c #333335",
"&  c #343436",
"*  c #353537",
"=  c #373637",
"-  c #383637",
";  c #363638",
":  c #373738",
">  c #373739",
",  c #383638",
"<  c #383839",
"1  c #393839",
"2  c #38383A",
"3  c #39393B",
"4  c #3B393A",
"5  c #3B393B",
"6  c #3A3A3A",
"7  c #3C3A3B",
"8  c #3A3A3C",
"9  c #3B3B3D",
"0  c #3D3B3C",
"q  c #3C3B3D",
"w  c #3C3C3C",
"e  c gray24",
"r  c #3C3C3E",
"t  c #3D3C3E",
"y  c #3D3D3F",
"u  c #3E3C3E",
"i  c #3F3D3F",
"p  c #3E3E3E",
"a  c #3F3E3F",
"s  c #3F3F3F",
"d  c #3E3E40",
"f  c #3F3E40",
"g  c #3F3F40",
"h  c #3F3F41",
"j  c #403F40",
"k  c gray25",
"l  c #404041",
"z  c #414141",
"x  c #404042",
"c  c #414143",
"v  c #434243",
"b  c #434343",
"n  c #424244",
"m  c #434345",
"M  c #444445",
"N  c gray27",
"B  c #444446",
"V  c #454547",
"C  c #464646",
"Z  c #464648",
"A  c #474748",
"S  c #474749",
"D  c #484749",
"F  c #484849",
"G  c #494849",
"H  c #494949",
"J  c #48484A",
"K  c #49484A",
"L  c #49494A",
"P  c #49494B",
"I  c #4A494A",
"U  c #4B4B4B",
"Y  c #4A4A4C",
"T  c #4B4B4D",
"R  c #4C4C4C",
"E  c #4C4C4E",
"W  c #4D4D4F",
"Q  c #4E4E4E",
"!  c #4E4E4F",
"~  c gray31",
"^  c #4E4E50",
"/  c #4F4F50",
"(  c #4F4F51",
")  c #505050",
"_  c #515051",
"`  c #505052",
"'  c #515152",
"]  c #515153",
"[  c #525153",
"{  c #525254",
"}  c #535354",
"|  c #535355",
" . c #555555",
".. c #545456",
"X. c #555557",
"o. c #565658",
"O. c #575759",
"+. c #58585A",
"@. c #59585A",
"#. c #59595B",
"$. c #5A5A5C",
"%. c #5B5B5D",
"&. c #5C5B5D",
"*. c #5C5C5D",
"=. c #5C5C5E",
"-. c #5D5D5F",
";. c #5E5D5F",
":. c #5F5D5F",
">. c #5E5E60",
",. c #5F5F60",
"<. c #5F5F61",
"1. c #605F60",
"2. c #606061",
"3. c #606062",
"4. c #616162",
"5. c #646363",
"6. c #626264",
"7. c #636365",
"8. c #646567",
"9. c #656567",
"0. c #666668",
"q. c #676769",
"w. c #686669",
"e. c #68686A",
"r. c #69686A",
"t. c #69696A",
"y. c #69696B",
"u. c #6B696B",
"i. c #6A6A6C",
"p. c #6B6B6D",
"a. c #6D6D6C",
"s. c #6E6E6D",
"d. c #6C6C6E",
"f. c #6D6D6E",
"g. c #6D6D6F",
"h. c #6F6F6E",
"j. c #6E6E6F",
"k. c #6E6E70",
"l. c #6F6F71",
"z. c #717070",
"x. c #707072",
"c. c #717172",
"v. c #717173",
"b. c #727073",
"n. c #727274",
"m. c #747476",
"M. c #757577",
"N. c #767678",
"B. c #777779",
"V. c #797979",
"C. c #79797B",
"Z. c #7C7C7B",
"A. c #7A7B7D",
"S. c #7D7D7C",
"D. c #7E7E80",
"F. c #7F7F80",
"G. c #7E7E81",
"H. c #828284",
"J. c #868685",
"K. c #888887",
"L. c #88898B",
"P. c #8C8C8B",
"I. c #8B8B8D",
"U. c #8F8F8E",
"Y. c #939391",
"T. c #939392",
"R. c #939492",
"E. c #959593",
"W. c #969694",
"Q. c #989897",
"!. c gray60",
"~. c #9A9A9A",
"^. c #9C9C9B",
"/. c #9E9E9D",
"(. c #A1A2A0",
"). c #A7A7A6",
"_. c #A9A9A7",
"`. c #B1B1AF",
"'. c #B2B2AF",
"]. c #B2B2B0",
"[. c #B3B3B0",
"{. c #B5B5B3",
"}. c #B6B6B3",
"|. c #B6B6B4",
" X c #B8B8B5",
".X c #B8B8B6",
"XX c #BABAB7",
"oX c #BABAB8",
"OX c #BBBBB8",
"+X c #BFBFBD",
/* pixels */
"                                                      +XW._.V.                                                          ",
"                                                      oXR. XT.                                                          ",
"                                                      }.E.oXQ.                                                          ",
"                                                      '.U. X~.                                                          ",
"                                                      [.P.{.^.                                                          ",
"                                                      [.J.[.^.                                                          ",
"                                                      [.S.).~.                                                          ",
"                                                    ~.{.h.^.U.V.F.                                                      ",
"                                                  N.F. Xc.E.J.} l.                                                      ",
"                                                  &.5.(.h.Z.h.v ^                                                       ",
"                                                l.S             i q.                                                    ",
"                                                7.f             4 $.                                                    ",
"                                                <.i             , @.                                                    ",
"                                                  i             ; <.                                                    ",
"                                                  D 7         4 f l.                                                    ",
"                                                  r.= 0     0 - ^                                                       ",
"                                                    [ 0 4 4 9 S l.                                                      ",
"                                                    i.Y f i B <.V.                                                      ",
"                                                      9.9 o ^ l.                                                        ",
"                                                      N.^ $ $.n.                                                        ",
"                                                        O.; $.                                                          ",
"                                                        =.9 <.                                                          ",
"                                                        7.9 O.                                                          ",
"                                                        i.f ^                                                           ",
"                                                        9.f ^                                                           ",
"                                                        q.f ..                                                          ",
"                                                        r.x ..                                                          ",
"                          I.                            r.n ..                                                          ",
"                          A.P.                          i.x O.                            N.i.                          ",
"                          q.F.                          r.B O.                            i.2.                          ",
"                          <.w.                n.          V O.                            2.=.                          ",
"                          $.=.H.              r.          S O.                          c.$.=.                          ",
"                          $.$.M.              =.          J #.                          q.#.=.                          ",
"                          $.O.q.              ) r.        J #.                          $.$.$.                          ",
"                          ^ O.$.c.            ! 2.        Y #.                        r.#.O.[                           ",
"                          J S ..7.            J ..        ! #.                        <...J J                           ",
"                          J S S ..          p 6 J 1.      ! $.                        [ S V J                           ",
"                          Y Y S S 3.        k i w )       ^ $.                      =.S S S J                           ",
"                          ^     T S         x     j       ^ O.                      J Y   $.!                           ",
"                          ^                 p             ^ ..                              !                           ",
"                          `                 k             ^ ..                              !                           ",
"                          [                 x             ` {                               !                           ",
"                          { c.              i           n.` {                             2.!                           ",
"                          ^ l.              i J         c.[ ^                             =.!                           ",
"                          ^ q.              x U         d.Y S q.                          $.J                           ",
"                          Y $.              V U         y.n h 7.                          O.J                           ",
"                          J {               x )         3.< < #.                          ^ V                           ",
"                          Y J                 [         ^ ; & T                         i.S                             ",
"                            n 2.              !       7.9 h # 4 q.                      &.x                             ",
"                              S q.            Y     i.f < ! + = n l.                  q.S f                             ",
"                              f Y i.          !   q.h =   V +   = S l.              h.Y i                               ",
"                                i B 2.        2.O.h &     ;       & V =.N.        3.Y f                                 ",
"                                  ; 9 n J ! V f & ;     x X         $ ; f S Y Y n x ;                                   ",
"                                        x x f   + 4 J 4 X                 i h f                                         ",
"                                                    . +                                                                 ",
"                                                                                                                        ",
"                                                                                                                        ",
"                                                                                                                        ",
"                                                                                                                        ",
"                                                                                                                        "
};
