/* XPM */
static char *a371c4e41bd744ebd0d33d0a9c32cffdjQ4hHr4LNv9cffe4[] = {
/* columns rows colors chars-per-pixel */
"60 60 59 1 ",
"  c None",
". c #FEBF0B",
"X c #FFBF0B",
"o c #FEBE0C",
"O c #FEBF0D",
"+ c #FEBE0E",
"@ c #FEBF0F",
"# c #FEBE10",
"$ c #FEC507",
"% c #FDC706",
"& c #FEC606",
"* c #FDCB03",
"= c #FCCD02",
"- c #FDCD02",
"; c #FDCC03",
": c #FCCE02",
"> c #FDC805",
", c #FDC905",
"< c #FDCA04",
"1 c #FDCD05",
"2 c #FCCE04",
"3 c #FCCF04",
"4 c #FCCF06",
"5 c #FCCE07",
"6 c #FEC308",
"7 c #FFC209",
"8 c #FFC00A",
"9 c #FDC708",
"0 c #FFC00C",
"q c #FCCE09",
"w c #FCCF09",
"e c #FCD00D",
"r c #FCD010",
"t c #FCD012",
"y c #FCD115",
"u c #FCD219",
"i c #FCD11A",
"p c #FCD320",
"a c #FCD221",
"s c #FCD323",
"d c #FCD325",
"f c #FCD429",
"g c #FCD52D",
"h c #FBD630",
"j c #FCD632",
"k c #FCD736",
"l c #FCD73A",
"z c #FBD83B",
"x c #FBD83D",
"c c #FBD83E",
"v c #FBD93E",
"b c #FCD940",
"n c #FCD941",
"m c #FCD942",
"M c #FCDA44",
"N c #FCDA45",
"B c #FCDA46",
"V c #FBDC4D",
"C c #FCDD51",
/* pixels */
"                                                            ",
"                                                            ",
"                                                            ",
"                                                            ",
"                                                            ",
"                                                            ",
"                                                            ",
"                                                            ",
"                                                            ",
"                                                            ",
"                                                            ",
"                                                            ",
"                                                            ",
"                              4                             ",
"                             ::                             ",
"                             ::4                            ",
"                            4q::                            ",
"                            :a::4                           ",
"                           :ru:::                           ",
"                           4k4:::4                          ",
"                          2ag:::::                          ",
"                          2by:::::4                         ",
"                         4im4::::::                         ",
"                         :Mg:::::::q                        ",
"                     4:4:dVe::::::::4:4                     ",
"              4e44qruafhzCc::::::::::::::::>0#              ",
"            q::rdjklccmMMmr:::::::::::::::4ooooo            ",
"             q::::::::::::::::::::::::::::6oooo             ",
"              4::::::::::::::::::::::::::>6oo#              ",
"               4:::::::::::::::::::::::::oooo               ",
"                4:::::::::::::::::::::::6ooo                ",
"                 4:::::::::::::::::::::$oo#                 ",
"                  4:::::::::::::::::33>ooo                  ",
"                   q::::::::::::::::3>ooo                   ",
"                    q:::::::::::::::>0oo                    ",
"                     ::::::::::::::>0ooo                    ",
"                     :::::::::::::$oooo0                    ",
"                    4::::::::::::$oooooo                    ",
"                    4:::::::::::6ooooooo                    ",
"                    4:::::::::>ooooooooo                    ",
"                    ::::::::46oooooooooo                    ",
"                    :::::::6ooooooooooooo                   ",
"                    :::::$6oo   #oooooooo                   ",
"                   q::*$6oo       oooooo#                   ",
"                   496oo#           ooooo                   ",
"                   0oo0               #oo                   ",
"                   oo                   o                   ",
"                                                            ",
"                                                            ",
"                                                            ",
"                                                            ",
"                                                            ",
"                                                            ",
"                                                            ",
"                                                            ",
"                                                            ",
"                                                            ",
"                                                            ",
"                                                            ",
"                                                            "
};
