/* XPM */
static char *_45cb0aa76ae4c59bedf2f6eac81fd59atBTMm6HvJemGtG2[] = {
/* columns rows colors chars-per-pixel */
"78 74 177 2 ",
"   c None",
".  c #000000",
"X  c gray6",
"o  c #1A1A1A",
"O  c #131313",
"+  c #222222",
"@  c #2D2D2D",
"#  c #323232",
"$  c #3D4E58",
"%  c #3F505A",
"&  c #444444",
"*  c #484848",
"=  c #414E56",
"-  c #43525C",
";  c #48565F",
":  c #435057",
">  c #5B5B5B",
",  c #56615F",
"<  c #5C655C",
"1  c #7B7C4A",
"2  c #75784E",
"3  c #646B57",
"4  c #666C56",
"5  c #475760",
"6  c #4E5B63",
"7  c #495760",
"8  c #515E65",
"9  c #4F616C",
"0  c #55626B",
"q  c #58666E",
"w  c #5D6A72",
"e  c #566873",
"r  c #6F6F6F",
"t  c #646464",
"y  c #616E76",
"u  c #66737B",
"i  c #69767E",
"p  c #777777",
"a  c #8F8C3E",
"s  c #918D3E",
"d  c #98923A",
"f  c #A59C31",
"g  c #B9AB27",
"h  c #B5A929",
"j  c #B3A62A",
"k  c #CBB91B",
"l  c #D2BE18",
"z  c #EAA601",
"x  c #ECAC01",
"c  c #EAA90C",
"v  c #EEB301",
"b  c #EEB409",
"n  c #F1BB01",
"m  c #E9AB15",
"M  c #E9AE1D",
"N  c #E9AF21",
"B  c #E9B22A",
"V  c #E8B534",
"C  c #E8BA3D",
"Z  c #DAC413",
"A  c #E4CB0E",
"S  c #F3C401",
"D  c #F5CC01",
"F  c #ECD209",
"G  c #F6D201",
"H  c #F8D601",
"J  c #F6D903",
"K  c #FADC00",
"L  c #FADD0A",
"P  c #F9DE13",
"I  c #F7DC1B",
"U  c #F0C824",
"Y  c #F5DD31",
"T  c #848345",
"R  c #A7A662",
"E  c #E8B944",
"W  c #F2DF46",
"Q  c #EBCC56",
"!  c #F3E24B",
"~  c #F3E143",
"^  c #F1E35C",
"/  c #E6CB7A",
"(  c #F0E462",
")  c #EEE67A",
"_  c #6D7A82",
"`  c #6A7D89",
"'  c #677A84",
"]  c #717F87",
"[  c #75828A",
"{  c #79858E",
"}  c #7D8B93",
"|  c #748994",
" . c #7C93A0",
".. c #818E96",
"X. c #84919A",
"o. c #89969E",
"O. c #9F9F9F",
"+. c gray53",
"@. c #8E9CA4",
"#. c #859CA8",
"$. c #909EA6",
"%. c #89A1AD",
"&. c #95A2AB",
"*. c #99A7AF",
"=. c #9DAAB3",
"-. c #94AAB5",
";. c #96B1BE",
":. c gray65",
">. c #A0ADB6",
",. c #A4B2BB",
"<. c #A9B7BF",
"1. c #E7D68E",
"2. c #ECE789",
"3. c #EAE797",
"4. c #C1C6A0",
"5. c #E4DAAD",
"6. c #E7E7B5",
"7. c #E9E8A2",
"8. c #9EB5C0",
"9. c #ADBBC3",
"0. c #A6BCC7",
"q. c #B0BEC6",
"w. c #A5C1CF",
"e. c #AEC1CB",
"r. c #B4C2CB",
"t. c #B8C6CE",
"y. c #AFCCDA",
"u. c #A6C2D0",
"i. c #BDCAD3",
"p. c #B1CDDC",
"a. c #B5CAD5",
"s. c #B6D1DF",
"d. c #B9D1DE",
"f. c #BFD7E3",
"g. c #BFD8E4",
"h. c #CCCCCC",
"j. c #C6C6C6",
"k. c #C0CED6",
"l. c #C1CFD8",
"z. c #C4D2DA",
"x. c #C9D7DF",
"c. c gray82",
"v. c #E2DFC1",
"b. c #E3E2C6",
"n. c #E4E8C7",
"m. c #E2E5D2",
"M. c #E3ECDB",
"N. c #E3E9D6",
"B. c #C0D7E3",
"V. c #C1D8E4",
"C. c #CCDAE3",
"Z. c #C9DEE9",
"A. c #C7DDE8",
"S. c #CDE1EC",
"D. c #D4E3EC",
"F. c #D8E6EF",
"G. c #D5E7F0",
"H. c #D7E8F2",
"J. c #DAE9F2",
"K. c #DFEDF6",
"L. c #DCEBF4",
"P. c #D9E7F0",
"I. c #E1E9E3",
"U. c #E1EDEC",
"Y. c #EBEBEB",
"T. c #E7E7E7",
"R. c #E0EEF7",
"E. c #E0EFF7",
"W. c #E0EDF4",
"Q. c #E0EEF7",
"!. c #E2EFF8",
"~. c #E4F1F8",
"^. c #EBF4FA",
"/. c #F3F3F3",
"(. c #F1F7FB",
"). c #F5F9FC",
"_. c #FDFDFD",
/* pixels */
"                                    V.V.                                                                                                                    ",
"                                      V.B.B.f.V.V.                                                                                                          ",
"                                            V.B.f.f.f.f.V.                                                                                                  ",
"                                                V.f.f.f.f.f.f.B.V.                                                                                          ",
"                                                    V.f.f.f.f.f.f.f.V.                                                                                      ",
"                                                        B.f.f.f.f.f.f.f.f.B.                                                                                ",
"                                                            f.f.f.f.f.f.f.f.f.V.                                                                            ",
"                                                              V.f.f.f.f.f.f.f.f.f.B.                                                                        ",
"                                                                  f.f.f.f.f.f.f.f.f.f.V.                                                                    ",
"                                                                    B.f.f.f.f.f.f.f.f.f.f.V.                                                                ",
"                                                                      V.f.f.f.f.f.f.f.f.f.f.f.                                                              ",
"                                                                        V.f.f.B.f.f.f.f.f.f.f.f.B.                                                          ",
"                                                                            V.f.f.f.f.f.V.f.f.f.f.f.V.                                                      ",
"                                            L L K K K K K L L                 V.f.f.f.f.f.f.f.f.f.f.f.V.                                                    ",
"                                        L K K K K K K K K H K J K P             f.f.f.f.f.f.f.f.f.f.f.f.f.V.                                                ",
"                                        K K K K K K K D K H G J D J L           V.f.f.f.f.f.f.f.f.f.f.f.f.f.V.                                              ",
"                                      L K H K K D G K v H G n H v n K K           B.g.g.f.f.f.g.f.f.f.f.f.f.f.B.                                            ",
"                                      L K G n K S x K v v G v D x z H K K L         B.g.f.f.f.g.f.f.f.f.f.f.f.f.-.                                          ",
"                                      K K H v D S z S b V Q / 1.5.v.N.M.M.M.U.,.8 0 ] q.A.V.g.g.f.V.f.f.f.f.f.f.0.=                                         ",
"                                      K K K v n U E 1.6.m.I.W.E.R.R.R.R.R.R.R.q.6 8 6 } K.J.G.D.Z.V.f.f.f.f.f.g.d.= :                                       ",
"                                      K K I Q 5.I.R.~.!.K.E.~.K.R.R.R.R.R.R.R.i.6 6 6 8 l.R.R.R.W.L.H.S.V.V.V.g.f.q = =                                     ",
"                                      L ! 6.U.W.K.K.K.K.~.K.K.E.R.R.R.R.R.R.R.i.8 6 6 6 $.W.R.R.R.R.R.R.J.S.V.g.f.i = = :                                   ",
"                                      M.R.R.R.R.K.~.K.K.K.K.K.K.R.R.R.R.R.R.R.i.8 6 6 6 u F.R.R.R.R.R.R.R.R.L.H.Z.| = = = =                                 ",
"                                    R.R.R.R.R.R.E.K.E.~.K.E.~.K.R.R.R.R.R.R.R.9.6 6 6 6 y C.R.R.R.R.R.R.R.R.R.R.W.&.= = = = =                               ",
"                                  ~.R.R.!.K.!.K.!.K.!.K.K.K.E.E.R.R.R.R.R.R.R.*.6 6 6 6 8 z.R.R.R.R.R.R.R.R.R.R.R.>.6 : : = $ =                             ",
"                                  R.R.R.K.!.K.!.K.!.K.!.~.K.K.E.R.R.R.R.R.R.R.} 6 6 6 6 0 l.R.R.R.R.R.R.R.R.R.R.W.>.6 6 6 : = = :                           ",
"                                R.R.R.R.!.K.!.K.E.E.!.K.K.E.E.K.R.R.R.R.R.R.D.u 6 6 6 6 0 z.!.R.R.R.R.R.R.R.R.R.R.&.6 6 6 6 : : $ 8                         ",
"                                ~.R.R.R.K.!.K.!.E.E.E.E.K.~.K.K.R.R.R.R.R.R.t.8 6 6 6 6 y C.R.R.R.R.R.R.R.R.R.R.R.@.6 6 6 6 6 6 : { V.                      ",
"      L K L                     K.K.!.K.!.K.!.K.E.K.E.K.E.K.K.~.R.R.R.R.R.R.$.8 6 6 6 6 _ F.R.R.R.R.R.R.R.R.R.R.R.[ 6 6 6 6 6 6 7 0.f.                      ",
"    K K K K K K L               !.!.K.!.K.!.K.!.K.E.K.E.K.~.E.K.R.R.R.R.R.C.y 8 6 6 6 6 *.R.R.R.R.R.R.R.R.R.R.R.J.0 6 6 6 6 6 6 { J.A.f.                    ",
"  L K K K K K K K L             !.!.K.!.!.K.!.K.E.E.K.E.K.K.E.K.R.R.R.R.K.9.8 6 6 6 8 8 C.R.R.R.R.R.R.R.R.R.R.R.l.8 6 6 6 6 6 8 i.R.L.Z.B.                  ",
"  K K K K K K K K K K L         !.K.!.K.K.!.K.!.E.K.E.K.E.E.K.~.R.R.R.R.z.u 6 6 6 6 8 ..R.R.R.R.R.R.R.R.R.R.R.R.X.6 6 6 6 8 0 =.R.R.R.K.Z.V.                ",
"  K K K K K K H G K K K L       R.R.R.R.R.R.R.R.R.R.R.R.R.R.R.R.R.R.R.R.X.8 6 6 6 6 8 q.!.!.R.R.R.R.R.R.R.R.R.C.w 6 6 6 6 6 $.F.R.R.R.R.K.A.                ",
"  K K K K K K K G n G K K L     R.R.R.R.R.R.R.R.R.R.R.R.R.R.R.R.R.R.R.q.8 6 6 6 6 6 ] J.R.R.R.R.R.R.R.R.R.R.D.] 6 6 6 6 6 ..F.W.R.R.R.R.K.J.A.              ",
"P K K K K K K K K S v D K K K     R.R.R.R.R.R.R.R.R.R.R.R.R.R.R.R.R.J.u 6 6 6 6 6 6 q.R.R.R.R.R.R.R.R.R.R.R.=.8 6 6 6 6 q k.R.R.R.R.R.R.K.K.J.A.            ",
"L K K K K K K K K K H v v H H L   R.R.R.R.R.R.R.R.R.R.R.R.R.R.R.R.R...8 6 6 6 6 8 ] R.R.R.R.R.R.R.R.R.R.R.,.8 6 6 6 6 8 ,.R.R.R.R.R.R.R.~.K.!.H.            ",
"L K K K K K K H H K K H v z v G Y W.R.R.R.R.R.R.R.R.R.R.R.R.R.R.R.9.6 6 6 6 6 6 8 l.R.R.R.R.R.R.R.R.R.R.r.0 6 6 6 6 8 _ D.R.R.R.~.R.~.W.R.R.R.R.G.          ",
"L K K K K K K H G D G H K n v z b b.R.R.R.R.R.R.R.R.R.R.R.R.R.R.k.w 6 6 6 6 8 8 =.R.R.R.R.R.R.R.R.R.R.q.u 8 6 6 6 6 8 q.R.!.^.)._._._.(.^.R.R.R.L.          ",
"K K K K K K K K K H D v n H H v c v.R.R.R.R.R.R.R.R.R.R.R.R.R.C.y 8 6 6 6 8 6 ] P.R.R.R.R.R.R.R.R.!.C.8 6 6 6 6 6 6 y R.R.(._._._._._._._.^.K.R.R.W.        ",
"K K K K K K K K K K K K D n v z c b.R.R.R.R.R.R.R.R.R.R.R.R.F.} 6 6 6 6 6 8 0 i.R.R.R.R.R.R.R.R.R.J._ 6 6 6 6 6 6 6 $.R.^._._.Y.+.O.h.T._._.~.~.R.R.~.      ",
"L K K K K K K K K K K K K H G v m b.R.R.R.!.!.K.R.R.R.R.R.L.*.6 6 6 6 6 8 6 $.R.R.R.R.R.R.R.R.R.W...6 6 6 6 6 6 6 6 q.!._._.:.o + )./.r c._._.L.R.R.K.      ",
"L K K K K K K K G S S n v v x z m m.R.R.K.H.K.!.R.R.R.R.R.l.w 6 6 6 6 6 8 y C.R.R.R.R.R.R.R.R.W.i.0 6 6 6 6 6 6 6 6 l.~._./.& . + Y.T.* r _._.^.R.R.R.~.    ",
"L K K K K K K K K H H G n x z z M m.!.R.H.G.!.K.R.R.R.R.l._ 6 6 6 6 6 6 8 ,.R.R.R.R.R.R.R.R.R.t.y 6 6 6 6 6 6 6 6 6 D.^._.c.X . . # # . # Y._.^.R.R.R.R.    ",
"L K K K K K K K K K K K H v z z N N.R.R.S.H.K.!.R.R.R.K.[ 8 6 6 6 6 6 6 ..D.R.R.R.R.R.R.R.R.J.{ 6 6 6 6 6 6 6 6 6 6 F.^._.h.X . . . . . @ T._.^.R.R.R.R.R.  ",
"L K K K K K K K H H S n x v n v B I.!.K.g.L.K.K.R.R.R.$.8 6 6 6 6 6 6 8 C.R.R.R.R.R.R.R.R.R.>.6 6 6 6 6 6 6 6 6 6 6 J.~._.Y.# . . . . . > _._.~.R.R.R.R.R.  ",
"  K K K K K K H D S S G H K H v B U.K.K.s.K.K.!.R.W.i.6 6 6 6 6 6 6 6 o.R.R.R.R.R.R.R.R.R.C.y 6 6 6 6 6 8 6 6 6 6 6 D.~._._.:.O . . . o h._._.!.R.R.R.R.R.  ",
"  K K K K K K K K K K K K S v z V U.K.K.p.K.!.K.L.D.u 6 6 6 6 6 6 6 8 C.R.R.R.R.R.R.R.R.K.$.6 6 6 8 6 6 6 6 6 6 6 6 C.W.^._.).h.t * p j._._.^.K.~.K.R.R.W.  ",
"  K K K K K K K K K K K n x v n V L.K.L.p.L.K.!.F.&.6 6 6 6 6 6 6 6 ] R.R.R.R.R.R.R.R.R.C.w 6 6 6 6 6 6 6 6 6 6 6 6 k.W.~.)._._._._._._._.(.~.K.K.K.K.~.    ",
"  L K K K K K K H D n n D H H v E W.W.G.y.H.K.L.@.6 6 6 6 6 6 6 6 6 r.R.~.W.W.~.W.2.( ) R 3 6 6 6 6 6 6 6 6 6 6 6 6 <.~.E.E.(._._._._.).^.~.!.K.!.!.    ~.  ",
"  K K K K K K H S H K K K H v n ! K.~.G.y.G.K.r.0 6 6 6 6 6 6 6 6 q L.R.R.E.W.W.( K K K K K k T 3 6 6 6 6 8 6 6 6 6 &.E.E.E.W.W.~.^.~.!.!.K.K.!.!.!.~.L.R.  ",
"  L K K K K K K K K K K D n G K ! K.K.G.y.S.C.i 6 6 6 6 6 6 6 6 6 o.R.R.R.R.R.N.P K K K K K K H A h 2 6 9 ; 6 6 6 6 X.E.K.!.E.W.~.K.K.~.K.!.K.K.!.!.!.L.    ",
"  L K K K K K K K K K S S K K L   !.K.S.y.g.X.6 6 6 6 6 6 6 6 6 6 r.R.R.R.R.W.7.K H S n n G K K K K G g 4 6 6 6 6 6 [ E.!.K.K.~.K.E.K.K.!.K.!.!.!.L.!.~.    ",
"    K K K K K K K H D G K K K       ~.S.y.#.8 6 6 6 6 6 6 6 6 6 0 F.R.R.R.R.R.( K K K K K H H K K K K K F s 6 6 6 6 ' K.K.!.!.K.E.K.~.E.!.K.!.K.L.!.~.      ",
"    L K K K K K H H K K K L           S.#.: 6 6 6 6 6 6 6 6 6 6 ..W.R.R.R.R.n.L K H D G D G K K K K K K K J s 6 6 6 w K.!.K.K.!.E.K.K.K.K.!.K.!.!.!.        ",
"    L K K K K K K K K K L             a.9 $ 6 6 6 6 6 6 6 6 6 6 ,.R.R.R.R.R.2.K K H G D H H K K K K K K K K g 6 6 6 q !.K.!.!.K.K.E.K.K.!.K.!.K.L.~.        ",
"      K K K K K K K K L               5 $ $ 5 6 6 6 6 6 6 6 6 0 z.R.R.R.W.W.3.K K K H H G G D H K K K K K K f 6 6 6 0 !.!.!.K.!.K.~.K.~.K.!.K.L.S.          ",
"      L K K K K K K P                 - $ $ - 6 6 6 6 6 6 6 6 w C.R.R.R.R.R.n.P K D D D S D K K K K K K K F 2 6 6 6 0 L.~.!.K.!.K.!.K.!.K.!.H.V.            ",
"        L K L L                       $ $ $ $ 6 6 6 6 6 6 6 6 i D.R.R.R.R.R.6.L K K K K K K K K K D H J K d 6 6 6 6 q ~.K.K.K.!.!.K.!.K.L.g.p.              ",
"                                    5 $ $ $ $ 5 6 6 6 6 6 6 6 _ F.R.R.R.~.W.~ K K K K K K K H S S K K G f 8 6 6 6 6 w L.!.K.!.K.K.K.J.S.p.p.                ",
"                                    - $ $ $ $ - 6 6 6 6 6 6 6 _ K.W.R.R.E.6.L K K K K K G D D H K K Z 1 , 8 6 6 6 6 i ~.!.!.K.!.L.Z.f.p.p.                  ",
"                                    : $ $ $ $ % ; 6 6 6 6 6 6 [ !.!.!.L.L.) K K K G S S G K K K K j < 6 6 6 6 6 6 6 { R.K.!.!.G.f.y.y.p.                    ",
"                                    $ $ $ $ $ $ - 6 6 6 6 6 6 } K.K.!.!.!.^ K G G G K K K J G h 1 6 6 6 6 6 6 6 6 6 o.L.K.S.f.y.y.p.                        ",
"                                    $ $ $ $ $ $ % : 8 6 6 6 6 @.!.K.!.!.!.) K K K K J J k d < 6 6 6 6 6 6 6 6 6 6 6 -.V.y.y.y.y.p.                          ",
"                                    $ $ $ $ $ $ $ $ ; 6 6 6 6 -.K.!.L.E.!.4.Z Z Z k f 1 3 6 6 6 6 6 6 6 6 6 6 6 7 ; ;.y.y.y.y.y.                            ",
"                                    : $ $ $ $ $ $ $ $ 7 6 6 6 9.K.E.K.K.K.| 0 < < 8 6 6 6 6 6 6 6 6 6 6 6 6 - - $ $ u.y.y.y.                                ",
"                                    $ $ $ $ $ $ $ $ $ $ 7 6 0 i.K.~.~.K.r.w 6 6 6 6 6 6 6 6 6 6 6 6 6 ; - $ $ $ $ 8 y.p.p.                                  ",
"                                    - $ $ $ $ $ $ $ $ $ $ : e C.K.K.K.K.} 6 6 6 6 6 6 6 6 6 6 5 ; - $ $ $ $ $ $ $ | p.                                      ",
"                                    5 $ $ $ $ $ $ $ $ $ $ $ e d.S.H.K.L.w 6 6 6 6 6 6 ; 5 5 - $ $ $ $ $ $ $ $ $ -                                           ",
"                                      % $ $ $ $ $ $ $ $ $ $ ' y.y.p.f.8.- - - - : : % $ $ $ $ $ $ $ $ $ $ : 5                                               ",
"                                      5 $ $ $ $ $ $ $ $ $ $  .y.y.y.y.| $ $ $ $ $ $ $ $ $ $ $ $ $ $ $ % 5                                                   ",
"                                        5 $ $ $ $ $ $ $ $ - 8.y.y.y.y.9 $ $ $ $ $ $ $ $ $ $ $ $ $ 5 6                                                       ",
"                                            - $ $ $ $ $ $ 9 0.y.y.y.u.$ $ $ $ $ $ $ $ $ % - 5 8                                                             ",
"                                                % % - $ $ ` y.y.y.y.#.$ $ $ $ 5 5 5 5 6                                                                     ",
"                                                        6 %.p.p.p.p.` 8 8 8                                                                                 "
};
