/* XPM */
static char *result[] = {
/* columns rows colors chars-per-pixel */
"60 60 236 2 ",
"   c #010100",
".  c #080600",
"X  c #0D0A00",
"o  c #120E00",
"O  c #161100",
"+  c #1B1400",
"@  c #1F1800",
"#  c #231B00",
"$  c #291F00",
"%  c #2B1F0B",
"&  c #2C2100",
"*  c #322500",
"=  c #3C2D00",
"-  c #362900",
";  c #433100",
":  c #4D3300",
">  c #673E00",
",  c #5D4200",
"<  c #684100",
"1  c #744200",
"2  c #5F462A",
"3  c #3A0075",
"4  c #34006E",
"5  c #570378",
"6  c #5B0478",
"7  c #40007D",
"8  c #6B0779",
"9  c #630679",
"0  c #721477",
"q  c #582766",
"w  c #615746",
"e  c #AD3D39",
"r  c #895800",
"t  c #905301",
"y  c #AA5501",
"u  c #BA7800",
"i  c #B86700",
"p  c #FD5F05",
"a  c #D37600",
"s  c #FF7C00",
"d  c #FB7701",
"f  c #EB7407",
"g  c #D7673E",
"h  c #92294B",
"j  c #8F356D",
"k  c #9B3353",
"l  c #B64D4D",
"z  c #B34A47",
"x  c #BA4F5D",
"c  c #B24658",
"v  c #B95354",
"b  c #B95159",
"n  c #BB5957",
"m  c #A74F5F",
"M  c #9B4B6D",
"N  c #BB4E61",
"B  c #B3536C",
"V  c #BA5668",
"C  c #B95B71",
"Z  c #AF576A",
"A  c #B8686F",
"S  c #AF555E",
"D  c #D1695A",
"F  c #C35E6F",
"G  c #C46A68",
"H  c #CB7C6D",
"J  c #C87466",
"K  c #C56A79",
"L  c #CA7777",
"P  c #D47B6B",
"I  c #C1585B",
"U  c #D98701",
"Y  c #FF8400",
"T  c #FF8C00",
"R  c #F38500",
"E  c #FF9300",
"W  c #FF9B00",
"Q  c #F69903",
"!  c #F99515",
"~  c #FFA401",
"^  c #FFAC00",
"/  c #FFB300",
"(  c #FFBB00",
")  c #FFB90B",
"_  c #FFB110",
"`  c #EA9136",
"'  c #FCB025",
"]  c #FFC401",
"[  c #FFCC01",
"{  c #FFC80C",
"}  c #FFD301",
"|  c #FFDB03",
" . c #FFDC0B",
".. c #FFD40D",
"X. c #FFCC14",
"o. c #FFD314",
"O. c #FFDD13",
"+. c #FFDC1C",
"@. c #FFD41A",
"#. c #FFE306",
"$. c #FFE30C",
"%. c #FFE809",
"&. c #FFE314",
"*. c #FFE41B",
"=. c #FFE81F",
"-. c #FFD22B",
";. c #FFEB24",
":. c #FFE524",
">. c #FFEF30",
",. c #CE8372",
"<. c #CE837D",
"1. c #D08774",
"2. c #D28A76",
"3. c #D38D7A",
"4. c #D0847D",
"5. c #D6947C",
"6. c #D89A7F",
"7. c #E5A35A",
"8. c #FFCA42",
"9. c #FFEE53",
"0. c #FFF06A",
"q. c #FFD57F",
"w. c #660786",
"e. c #7A0C95",
"r. c #750B8D",
"t. c #2B6E95",
"y. c #6D4ABA",
"u. c #695CC1",
"i. c #8B1197",
"p. c #AB3499",
"a. c #8528A4",
"s. c #973AA4",
"d. c #8D31A4",
"f. c #B235A6",
"g. c #AE27A6",
"h. c #9C17A1",
"j. c #B6548D",
"k. c #B76498",
"l. c #9451B0",
"z. c #A749A6",
"x. c #B959A6",
"c. c #BC46A8",
"v. c #B462A3",
"b. c #9761B6",
"n. c #C44C96",
"m. c #CC7B84",
"M. c #CD7C8B",
"N. c #C97481",
"B. c #C76D93",
"V. c #C158AA",
"C. c #C758B4",
"Z. c #C365AB",
"A. c #C56AA5",
"S. c #D175B8",
"D. c #B25DC6",
"F. c #D36FCE",
"G. c #E97CE5",
"H. c #D05CC4",
"J. c #6DB2D4",
"K. c #69BCE4",
"L. c #5DAAE0",
"P. c #2CF0F5",
"I. c #1EF7FC",
"U. c #53CDF3",
"Y. c #72D4F5",
"T. c #56FDFF",
"R. c #47FFFF",
"E. c #6CF0FC",
"W. c #64CED6",
"Q. c #A194B0",
"!. c #CE8288",
"~. c #D28384",
"^. c #D1858D",
"/. c #D38A8F",
"(. c #D38C83",
"). c #D69282",
"_. c #D99888",
"`. c #C98C94",
"'. c #D58D91",
"]. c #D68696",
"[. c #D79291",
"{. c #D99592",
"}. c #DB9B92",
"|. c #D6939C",
" X c #CE9191",
".X c #DDA485",
"XX c #DEA292",
"oX c #DEA599",
"OX c #E2AD89",
"+X c #E4B389",
"@X c #E1A693",
"#X c #E3AC93",
"$X c #E5B493",
"%X c #E7BB92",
"&X c #E8BD93",
"*X c #E9B596",
"=X c #DB9CAD",
"-X c #DBB4AA",
";X c #E9BDA6",
":X c #E0A5B7",
">X c #E39C83",
",X c #ECC58F",
"<X c #EBC494",
"1X c #EECB91",
"2X c #EDCB9A",
"3X c #ECC798",
"4X c #F0D09D",
"5X c #FFED8E",
"6X c #F2D4A6",
"7X c #F5DAB8",
"8X c #EFC9B3",
"9X c #F9E3BD",
"0X c #FFF7BA",
"qX c #FFEAA6",
"wX c #DEC79E",
"eX c #8AA9E2",
"rX c #DB82D4",
"tX c #F087EE",
"yX c #FD97FD",
"uX c #EB85E7",
"iX c #AFDCC7",
"pX c #86FFFF",
"aX c #9DFFFF",
"sX c #ABFFFF",
"dX c #B9FCFF",
"fX c #BFEDFC",
"gX c #A3D6EC",
"hX c #FAE6C0",
"jX c #FBE8C1",
"kX c #FFF5CE",
"lX c #D4FCFF",
"zX c #D3F6F8",
"xX c #FFFFFF",
"cX c #F9FEF8",
"vX c #ECFEF6",
"bX c None",
/* pixels */
"bXbXbXbXbXbXbXbXbXbXbXbXbXbXbXbXbXbXbXbXbXbXbXbXbXbXbXbXbXbXbXbXbXbXbXbXbXbXbXbXbXbXbXbXbXbXbXbXbXbXbXbXbXbXbXbXbXbXbXbX",
"bXbXbXbXbXbXbXbXbXbXbXbXbXbXbXbXbXbXbXbXbXbXbXbXbXbXbXbXbXbXbXbXbXbXbXbXbXbXbXbXbXbXbXbXbXbXbXbXbXbXbXbXbXbXbXbXbXbXbXbX",
"bXbXbXbXbXbXbXbXbXbXbXbXbXbXbXbXbXbXbXbXbXbXbXbXbXbXbXbXbXbXbXbXbXbXbXbXbXbXbXbXbXbXbXbXbXbXbXbXbXbXbXbXbXbXbXbXbXbXbXbX",
"bXbXbXbXbXbXbXbXbXbXbXbXbXbXbXbXbXbXbXbXbXbXbXbXbXbXbX              bXbXbXbXbXbXbXbXbXbXbXbXbXbXbXbXbXbXbXbXbXbXbXbXbXbX",
"bXbXbXbXbXbXbXbXbXbXbXbXbXbXbXbXbXbXbXbXbXbXbX                              bXbXbXbXbXbXbXbXbXbXbXbXbXbXbXbXbXbXbXbXbXbX",
"bXbXbXbXbXbXbXbXbXbXbXbXbXbXbXbXbXbXbXbXbX          . X X X X o X X X .         bXbXbXbXbXbXbXbXbXbXbXbXbXbXbXbXbXbXbXbX",
"bXbXbXbXbXbXbXbXbXbXbXbXbXbXbXbXbXbXbXbX      . X o o O O @ @ @ O + O o o X .     bXbXbXbXbXbXbXbXbXbXbXbXbXbXbXbXbXbXbX",
"bXbXbXbXbXbXbXbXbXbXbXbXbXbXbXbXbXbX      . X o O @ # # $ $ $ $ $ $ $ # @ + O X .     bXbXbXbXbXbXbXbXbXbXbXbXbXbXbXbXbX",
"bXbXbXbXbXbXbXbXbXbXbXbXbXbXbXbXbX      X O + # $ $ * * < > < < ; * * & & # @ + o X     bXbXbXbXbXbXbXbXbXbXbXbXbXbXbXbX",
"bXbXbXbXbXbXbXbXbXbXbXbXbXbXbXbX    . o O + $ * : t a T T E E E W R i < - * & & @ O X .   bXbXbXbXbXbXbXbXbXbXbXbXbXbXbX",
"bXbXbXbXbXbXbXbXbXbXbXbXbXbXbX    . o O @ & = t R T W ' 8.-.@.{ ) ~ W W U : - * $ # O o .   bXbXbXbXbXbXbXbXbXbXbXbXbXbX",
"bXbXbXbXbXbXbXbXbXbXbXbXbXbXbX  . X O # * : f Y ' 6XcXxXxXxX0X>.>.;.o.^ Q Q r ; * $ # + X   bXbXbXbXbXbXbXbXbXbXbXbXbXbX",
"bXbXbXbXbXbXbXbXbXbXbXbXbXbX    X O # & > d ! 5XxXxXxXxXxXxXxX0.;.;.;.*.( ^ W u = - & # O X . bXbXbXbXbXbXbXbXbXbXbXbXbX",
"bXbXbXbXbXbXbXbXbXbXbXbXbX    X o # $ > Y ! kXxXxXxXxXxXxXxXxX9.;.;.;.;.+.] / ~ u = * $ @ O X   bXbXbXbXbXbXbXbXbXbXbXbX",
"bXbXbXbXbXbXbXbXbXbXbXbXbX  . o + # ; d E 0XxXxXxXxXxXxXcXcXcX=.;.=.*.*.*...] / ~ r = * & + X . bXbXbXbXbXbXbXbXbXbXbXbX",
"bXbXbXbXbXbXbXbXbXbXbXbX    X O # & a T -.xXxXxXxXxXxXxXxXcX9.=.=.*.*.*.&.o.] ] ( Q , = & # O X bXbXbXbXbXbXbXbXbXbXbXbX",
"bXbXbXbXbXbXbXbXbXbXbXbX  . o # & 1 T ~ 5XxXxXxXxXxXxXxXcX9.&.*.*.*.*.&.O.O.[ ] ] ^ U = - & @ o . bXbXbXbXbXbXbXbXbXbXbX",
"bXbXbXbXbXbXbXbXbXbXbXbX  X O # & f T @.9.xXxXxXxXxXxXqX:.=.=.&.&.&.O.&.O.O.] [ [ ( ^ , = & # O X bXbXbXbXbXbXbXbXbXbXbX",
"bXbXbXbXbXbXbXbXbXbXbXbX  o + $ 1 Y ~ :.:.0.0XkX0X0.9.*.=.&.&.&.&.&. .&.O. .[ [ ] [ / u = - $ + X bXbXbXbXbXbXbXbXbXbXbX",
"bXbXbXbXbXbXbXbXbXbXbX    o + & i T _ +.+.*.+.+.*.+.O.&.&.&.&.&.&.$.&.O. . .[ [ [ [ ( ^ ; - & @ X . bXbXbXbXbXbXbXbXbXbX",
"bXbXbXbXbXbXbXbXbXbXbX  . O # * d T ) +.+.+.+.O.+.O.&.&.&.&.&.%.&.$. .#. .} } [ [ [ ] ^ r - & # o . bXbXbXbXbXbXbXbXbXbX",
"bXbXbXbXbXbXbXbXbXbXbX  X O # > d W ) @.@.@.O.O.O.O.O.&.$.$.%.&.$.$. . . .} } [ [ [ [ / u = & # O X bXbXbXbXbXbXbXbXbXbX",
"bXbXbXbXbXbXbXbXbXbXbX  X O + t d E ) X.@.@.o.o.o.$.O.$.$.&.%.%.#.#.#.| } } } [ [ [ [ / U = * # O . bXbXbXbXbXbXbXbXbXbX",
"bXbXbXbXbXbXbXbXbXbXbX  X O # y s E ~ X.X.X.X...o. . .$.%.$.%.%.%.#. .| } } } } } [ [ ^ U ; * $ O X bXbXbXbXbXbXbXbXbXbX",
"bXbXbXbXbXbXbXbXbXbXbX  X O O y s T W ) { { X....... . . .#.#.%.%.| | | } } } [ } [ ] ^ W ; - # + X bXbXbXbXbXbXbXbXbXbX",
"bXbXbXbXbXbXbXbXbXbXbX  O t.fX` Y E W ^ ) { { { { [ } { [ } | | } } } } } } } [ [ [ ( / W = * # O . bXbXbXbXbXbXbXbXbXbX",
"bXbXbXbXbXbXbXbXbXbXbX  t.lXxXq.d Y Y Y T W W ~ ^ / / ( ( ] ] ] ] ] ( / / / / ( ( ( ( / W = & # O . bXbXbXbXbXbXbXbXbXbX",
"bXbXbXbXbXbXbXbXbXbXbX. U.vXzXD p d d s Y T W ~ ~ ^ / / ( ( ] ( ( ( ( / / ^ ^ ~ W E E T U - & # o . bXbXbXbXbXbXbXbXbXbX",
"bXbXbXbXbXbXbXbXbXbXw w iX-XH.C.p d d s Y T W W ^ ^ ^ / ( ( ( ( ( ( ( _ / ' q.' W W E Y I M 2 & X bXbXbXbXbXbXbXbXbXbXbX",
"bXbXbXbXbXbXbX;X].{.8X7X7Xf.yXtXn.p d Y T T E ~ ~ ^ ^ / / ( ( ( ( / / -.kXcXcX_ W W W D a.a.k._.A A bXbXbXbXbXbXbXbXbXbX",
"bXbXbXbXbX7XjXjXhXhX>X7X:Xg.tXyXG.c.D s Y T E W W ^ ^ / / / ( ( ( ( -.xXxX6X_ ~ W Q D d.y.a.y.gXJ.`.!.m.m.bXbXbXbXbXbXbX",
"bXbXbX9XjXjXjXjXhXhX#X9XhXC.g.G.yXyXH.n.D ! E W ~ ~ ^ ^ / / / / / / ' 8._ / ^ ! G z.s.d.e.y.dXvXdXP.'.~.m.m.N.bXbXbXbXbX",
"bXbX9XjXjXjX9X9XjX;X*X9X9XhX=Xf.c.F.tXtXG.C.B.P ` ! ^ / ^ / / / / / / ' ` H j.z.z.z.s.d.e.U.vXlXdXT.Q.!.m.m.N.N.N.bXbXbX",
"bX9XjXjXjXjXjX7X'.;XhX9XhX9XhXhX8XS.x.z.C.F.F.rXF.rXF.S.].].M.~.M.A.x.x.x.x.z.z.s.d.s.k. XU.lXsXpXT.W.`.m.m.m.N.N.K bXbX",
"bXjXjXjX9XjX].|.7XjXhX9XhXhXhX7X6XwXY.lXE.J.|.k.B.A.x.A.Z.Z.Z.Z.Z.x.x.x.v.k.k.B. XOX+X+X@XJ.aXpXT.I.Q.!.<.L m.L N.K K bX",
"bX7XjXjX|.B.8XhXhX9XhXhX7X6X3X3X<XL.zXxXvXT.iX<X1X1X1X1X1X*X@X$X$X$X$X#X#X#X@X}.+X+X+X6.M.F.eXY.W.u.y.2.2.2.,.,.,.H L bX",
"bX8X7Xn.|.jXjXhXjX7X6X2X3X2X3X3X3XY.vXlXdXE.P.$X&X3X1X1X,X$X$X#X#X#X#XXXXXXX}._.}..XOX.X>XB.H.D.b.v.<.2.2.2.,.,.H H H bX",
"bXbXj 7XjX9X9X6X6X4X2X2X3X3X2X2X3XY.lXaXpXT.P.;X*X1X,X,X,X#X#X#X#X@XoXXXXXXX}.{.[._..X.X.X_.6.).5.5.2.2.2.,.,.H H J H bX",
"bXbXbXm.4X6X4X4X4X2X2X2X2X2X3X3XoXU.aXpXT.I.J.-X*X<X,X&X$X#X@X@X@XXXXXXX_.}.{.{././.(..X.X6.6.5.5.3.3.2.,.,.,.,.L I bXbX",
"bXbXbXbXF (.2X4X4X2X2X2X2X3X3X3Xk.G.K.Y.W.J.y.`.&X<X&X,X$X@X@X@XM.K K !.B Z C C B B A V G J 2.5.5.5.2.2.2.,.,.J n bXbXbX",
"bXbXbXbXbXK F ).&X4X4X2X3X3X3X<X*XV.H.F.b.y.`.-X,X%X&XA C B B A L !.!.m.[.[.'././.^.^.M./.6.H J 1.2.2.1.1.J v n bXbXbXbX",
"bXbXbXbXbXbXm.N N L _.&X2X3X3X<X<X<X*X|.#X3X%X%X%X&XB 3.}.oX}.}.XX{.{.[.[.[././.^.^.^.M.M.).5.5.P J ,.J n z G bXbXbXbXbX",
"bXbXbXbXbXbXbXbXK x N N L ).%X<X&X<X&X&X&X&X&X%X).M XX$X}.}.}.}.}.{.[.[.'.'./././.^.!.!.m.m.3.2.J n e l l <.bXbXbXbXbXbX",
"bXbXbXbXbXbXbXbXbX].F N N N N I L 4.OX%X3X*X&XL B +X%X#XoX}.}.{.{.{.[.[.[.'.'.[./.^.!.N.G A n l l e z L bXbXbXbXbXbXbXbX",
"bXbXbXbXbXbXbXbXbXbXbX].K N N x N x N x N G G h 1.5._.6.(.(.}.{.(.(.!.!.!.L H A I n v v v v l l v J bXbXbXbXbXbXbXbXbXbX",
"bXbXbXbXbXbXbXbXbXbXbXbXbXbXj.V x I x x x x x h c x b x x b b b b b v v v v v v n v v l l l G m.bXbXbXbXbXbXbXbXbXbXbXbX",
"bXbXbXbXbXbXbXbXbXbXbXbXbXbXj.g.p.M B x x x N x h b x x x b b b b b v b v v v l v v v M j bXbXbXbXbXbXbXbXbXbXbXbXbXbXbX",
"bXbXbXbXbXbXbXbXbXbXbXbXbXbXV.f.i.8 8 w.j.M.L G k h x b b x b b b b v b n n m M j 0 6 5 r.bXbXbXbXbXbXbXbXbXbXbXbXbXbXbX",
"bXbXbXbXbXbXbXbXbXbXbXbXbXbXc.g.8 8 8 bXbXbXbXbXbXbXbXbXbXq q bXbXbXbXbXbXbXi.6 6 6 6 5 w.bXbXbXbXbXbXbXbXbXbXbXbXbXbXbX",
"bXbXbXbXbXbXbXbXbXbXbXbXbXbXj.h.8 8 e.bXbXbXbXbXbXbXbXbXbX3 3 bXbXbXbXbXbXbXbXr.6 6 6 6 w.bXbXbXbXbXbXbXbXbXbXbXbXbXbXbX",
"bXbXbXbXbXbXbXbXbXbXbXbXbXbXg.i.8 8 bXbXbXbXbXbXbXbXbXbXbX3 3 bXbXbXbXbXbXbXbXbX6 6 5 5 w.bXbXbXbXbXbXbXbXbXbXbXbXbXbXbX",
"bXbXbXbXbXbXbXbXbXbXbXbXbXbXbXi.9 r.bXbXbXbXbXbXbXbXbXbXbX7 7 bXbXbXbXbXbXbXbXbXe.6 6 5 e.bXbXbXbXbXbXbXbXbXbXbXbXbXbXbX",
"bXbXbXbXbXbXbXbXbXbXbXbXbXbXbXh.9 e.bXbXbXbXbXbXbXbXbXbXbXbXbXbXbXbXbXbXbXbXbXbXbX6 6 5 bXbXbXbXbXbXbXbXbXbXbXbXbXbXbXbX",
"bXbXbXbXbXbXbXbXbXbXbXbXbXbXbXbXr.r.bXbXbXbXbXbXbXbXbXbXbXbXbXbXbXbXbXbXbXbXbXbXbX6 6 w.bXbXbXbXbXbXbXbXbXbXbXbXbXbXbXbX",
"bXbXbXbXbXbXbXbXbXbXbXbXbXbXbXbXh.w.bXbXbXbXbXbXbXbXbXbXbXbXbXbXbXbXbXbXbXbXbXbXbX6 6 bXbXbXbXbXbXbXbXbXbXbXbXbXbXbXbXbX",
"bXbXbXbXbXbXbXbXbXbXbXbXbXbXbXbXbXe.e.bXbXbXbXbXbXbXbXbXbXbXbXbXbXbXbXbXbXbXbXbXe.6 e.bXbXbXbXbXbXbXbXbXbXbXbXbXbXbXbXbX",
"bXbXbXbXbXbXbXbXbXbXbXbXbXbXbXbXbXbXbXbXbXbXbXbXbXbXbXbXbXbXbXbXbXbXbXbXbXbXbXbXw.i.bXbXbXbXbXbXbXbXbXbXbXbXbXbXbXbXbXbX",
"bXbXbXbXbXbXbXbXbXbXbXbXbXbXbXbXbXbXbXbXbXbXbXbXbXbXbXbXbXbXbXbXbXbXbXbXbXbXbXe.bXbXbXbXbXbXbXbXbXbXbXbXbXbXbXbXbXbXbXbX",
"bXbXbXbXbXbXbXbXbXbXbXbXbXbXbXbXbXbXbXbXbXbXbXbXbXbXbXbXbXbXbXbXbXbXbXbXbXbXbXbXbXbXbXbXbXbXbXbXbXbXbXbXbXbXbXbXbXbXbXbX",
"bXbXbXbXbXbXbXbXbXbXbXbXbXbXbXbXbXbXbXbXbXbXbXbXbXbXbXbXbXbXbXbXbXbXbXbXbXbXbXbXbXbXbXbXbXbXbXbXbXbXbXbXbXbXbXbXbXbXbXbX"
};
