/* XPM */
static char *_7f9d9045c304dc493c14e8adfd36293bBANRFXHlkZvlojJ[] = {
/* columns rows colors chars-per-pixel */
"60 60 154 2 ",
"   c None",
".  c black",
"X  c gray4",
"o  c #111111",
"O  c gray22",
"+  c #3D4E58",
"@  c #3F505A",
"#  c gray29",
"$  c #414E56",
"%  c #43525C",
"&  c #49565E",
"*  c #74774E",
"=  c #686E55",
"-  c #626A58",
";  c #636A57",
":  c #6E7351",
">  c #465660",
",  c #495760",
"<  c #475862",
"1  c #4E5B63",
"2  c #525E65",
"3  c #55616A",
"4  c #59666E",
"5  c #526570",
"6  c #5D6A72",
"7  c #646464",
"8  c #656F64",
"9  c #616E76",
"0  c #647179",
"q  c #6A777F",
"w  c #737373",
"e  c gray50",
"r  c #7F8047",
"t  c #9E9735",
"y  c #989339",
"u  c #A49B33",
"i  c #BBAD26",
"p  c #BFB022",
"a  c #C4B41F",
"s  c #D2BE18",
"d  c #EAA600",
"f  c #ECAB00",
"g  c #EBAC0A",
"h  c #EFB601",
"j  c #F1BC01",
"k  c #ECB316",
"l  c #F3C401",
"z  c #F5CC01",
"x  c #EED307",
"c  c #EBD109",
"v  c #F6D201",
"b  c #F8D500",
"n  c #F7DA02",
"m  c #FADC01",
"M  c #FADD0B",
"N  c #FADE12",
"B  c #F4D218",
"V  c #F9DF1B",
"C  c #F0CA2B",
"Z  c #F6DF26",
"A  c #EBC035",
"S  c #888642",
"D  c #828246",
"F  c #EBC749",
"G  c #F3E141",
"H  c #F2E253",
"J  c #E6C974",
"K  c #F1E464",
"L  c #EDE57A",
"P  c #6A7780",
"I  c #6C7981",
"U  c #657A86",
"Y  c #6F848F",
"T  c #748189",
"R  c #79868E",
"E  c #758791",
"W  c #7D8B93",
"Q  c #7D939F",
"!  c #808D96",
"~  c #839098",
"^  c #89969E",
"/  c gray58",
"(  c #8597A1",
")  c #8199A6",
"_  c #8B99A1",
"`  c #919EA7",
"'  c #94A2AB",
"]  c #98A6AE",
"[  c #90A5B1",
"{  c #93A9B5",
"}  c #9BA9B1",
"|  c #98B1BD",
" . c #95B0BD",
".. c #A9A9A9",
"X. c #A0AEB6",
"o. c #A3B2BB",
"O. c #A9B7BF",
"+. c #B6B6B6",
"@. c #B8BDBB",
"#. c #EDE682",
"$. c #EAE79A",
"%. c #EAE89C",
"&. c #D9DCAD",
"*. c #E3D9AE",
"=. c #E3DCBA",
"-. c #E8E9B1",
";. c #E5E1B4",
":. c #9BB6C3",
">. c #AAB7C0",
",. c #ADBBC3",
"<. c #AAC0CC",
"1. c #B5C3CC",
"2. c #B9C6CF",
"3. c #AFCCDA",
"4. c #BAC7D0",
"5. c #BBCBD4",
"6. c #B1CEDC",
"7. c #B6D1DE",
"8. c #BDD3DD",
"9. c #BFD7E3",
"0. c #CBCBCB",
"q. c #C0CED6",
"w. c #C2CFD8",
"e. c #C4D2DA",
"r. c #C9D6DF",
"t. c #DADADA",
"y. c #E2DFC4",
"u. c #E3E4CC",
"i. c #E5E8C5",
"p. c #E2E8D9",
"a. c #C0D7E3",
"s. c #C1D9E4",
"d. c #CBD9E2",
"f. c #C6DCE8",
"g. c #C8DEE9",
"h. c #D0DEE6",
"j. c #D1DFE8",
"k. c #CCE0EB",
"l. c #D5E4ED",
"z. c #D8E6EF",
"x. c #D4E6F0",
"c. c #D7E8F1",
"v. c #DCEBF4",
"b. c #E7E7E7",
"n. c #E2EBE4",
"m. c #EFEFEF",
"M. c #E1EAE9",
"N. c #E0EEF7",
"B. c #E2EFF8",
"V. c #E5F1F8",
"C. c #EBF4FA",
"Z. c #F1F7FB",
"A. c #F4F9FC",
"S. c #FCFDFD",
/* pixels */
"                                                                                                                        ",
"                                                                                                                        ",
"                                                                                                                        ",
"                                    s.s.                                                                                ",
"                                      s.s.a.s.a.                                                                        ",
"                                            s.s.9.a.s.                                                                  ",
"                                              s.9.9.a.9.a.s.                                                            ",
"                                                  s.9.9.9.9.a.s.                                                        ",
"                                                      a.9.9.9.9.9.s.                                                    ",
"                                                        s.9.9.9.9.9.s.                                                  ",
"                                                          s.9.9.9.9.9.9.s.                                              ",
"                                          M M m M           s.9.9.9.9.9.9.9.                                            ",
"                                      M m m m m n n n         s.9.9.9.9.9.9.9.s.                                        ",
"                                    M m b n b l b l l z M       9.9.9.9.9.9.9.9.s.                                      ",
"                                    M m j b h l j k A F H K     o.9.9.9.9.9.9.9.9._                                     ",
"                                    M m h C J ;.M.B.N.N.N.N.N.9 2 ~ c.c.k.s.9.9.9.} $                                   ",
"                                    N G u.N.N.N.N.N.N.N.N.N.N.U 1 0 v.v.B.B.c.g.f.,.+ %                                 ",
"                                    p.M.N.N.N.N.N.N.N.N.N.N.v.0 1 2 d.B.B.v.B.B.c.9., + %                               ",
"                                  V.V.V.N.N.N.N.N.N.N.N.V.v.v.3 1 1 5.B.B.B.v.v.B.l.4 % $ %                             ",
"                                  v.N.N.N.N.N.N.N.N.N.N.v.V.r.1 1 1 2.B.v.B.B.B.B.l.4 1 % $ ,                           ",
"                                  V.v.B.B.B.B.B.v.B.V.v.N.V.} 1 2 1 w.v.N.N.N.N.N.h.2 2 1 , 2 a.                        ",
"                M m M N           v.B.B.B.v.v.N.B.B.v.V.N.v.0 1 1 9 z.B.N.N.N.N.N.5.1 1 1 1 ` s.                        ",
"                m m m m M         v.B.B.B.N.N.N.B.B.V.v.v.1.1 1 1 I N.N.N.N.N.N.N.] 1 1 1 0 l.v.f.                      ",
"              M m m m b m m       V.B.v.N.N.N.N.B.v.v.B.c.q 1 1 1 o.N.N.N.N.N.N.j.9 1 2 4 w.N.N.c.g.                    ",
"              M m m m m l b M     v.v.B.N.N.N.N.B.B.N.v.X.1 1 1 4 c.N.N.N.N.N.N.] 1 1 1 X.N.N.N.B.c.                    ",
"              m m m m m m j l b   B.B.B.N.N.N.N.B.v.N.q.2 2 1 1 >.N.N.N.N.N.B.>.2 1 2 R N.N.N.N.v.B.c.                  ",
"              m m m m n v m l f j u.B.v.v.B.N.N.B.B.k.6 1 1 1 T N.N.N.N.N.N.,.2 1 1 2 4.N.C.Z.Z.V.v.V.v.                ",
"              m m m m m b l z l f *.B.v.B.B.N.N.N.v.Q 1 1 2 2 w.N.N.N.N.N.r.9 1 1 1 9 v.A.S.m.S.S.C.v.N.                ",
"              m m m m m m m v l d =.B.v.N.N.N.N.B.} 1 1 1 1 ' B.N.N.N.N.j.q 1 1 1 1 ^ C.S.w e 0.0.S.N.N.V.              ",
"              m m m m n z h f d d y.B.v.N.N.N.N.w.2 1 1 1 6 c.B.N.N.N.N._ 1 1 1 1 2 X.Z.@.. w +.O S.C.N.v.              ",
"              m m m m m m m z d d u.B.x.N.N.B.l.0 1 1 1 1 ,.B.B.N.N.N.1.2 2 1 1 1 1 >.A./ . . . o S.C.V.B.v.            ",
"              m m m m v z l j l g p.v.f.N.N.N.( 1 1 1 1 T B.B.v.B.B.j.9 1 1 1 1 1 2 >.Z.t.X . . 7 S.V.N.N.V.            ",
"              M m m m m m m b j g p.c.f.v.B.4.3 1 1 1 1 1.V.v.N.N.N.] 1 1 1 1 1 1 2 X.C.S...# 7 M.S.v.v.V.N.            ",
"              M m m m m b z j z k n.c.s.B.d.6 1 1 1 1 I v.N.N.N.-.&.8 1 1 1 1 1 1 1 ` N.C.S.S.S.A.B.V.N.V.              ",
"              M m m m b b b b j B n.x.7.v.R 1 1 1 1 1 X.N.N.N.#.m m c i : 1 1 1 1 1 W N.v.V.C.V.B.B.V.v.v.B.            ",
"                m m m m m b z m V v.x.9.} 1 1 1 1 1 1 l.N.N.N.Z b z b m m s r 1 1 1 q N.V.v.B.B.B.B.v.V.B.              ",
"                m m m m b b m N     x.{ 2 1 1 1 1 1 I B.B.v.i.m m m m m m m m i 2 1 0 c.v.B.v.V.V.v.V.v.B.              ",
"                M m m m m m M       5.5 , 1 1 1 1 1 _ B.B.B.K m v v b m m m m m * 1 6 c.V.v.V.v.v.V.v.B.                ",
"                  m m m M N         > + > 1 1 1 1 1 o.v.v.V.L m v z v n m m m x ; 2 6 x.B.B.v.B.B.v.l.                  ",
"                  M M M             % + % 1 1 1 1 1 2.B.V.v.#.n m m m m b b m t 1 1 6 x.B.v.B.B.c.9.                    ",
"                                    + + + , 1 1 1 1 w.N.N.M.M m m m b z b n y 2 1 1 0 v.N.N.v.f.6.                      ",
"                                    + + + % 1 1 1 1 d.N.N.%.m b v z m n p = 1 1 1 1 I N.v.f.6.6.                        ",
"                                    + + + + , 2 1 1 l.N.N.$.m m m n a D 2 1 1 1 1 2 W g.7.3.6.                          ",
"                                  > + + + + + , 1 3 B.B.v.@.u u D - 1 1 1 1 1 1 & % Q 3.6.                              ",
"                                    + + + + + + , I B.N.B.E 1 1 1 1 1 1 1 , % @ + +  .6.                                ",
"                                    @ + + + + + + E c.N.c.2 1 1 1 1 1 % % + @ + + <                                     ",
"                                    % + + + + + + ) 3.6.[ % % % + + + + + + + %                                         ",
"                                      % + + + + + :.3.6.U + + + + + + + % %                                             ",
"                                        , % + + 1 3.3.3.> + + + $ % >                                                   ",
"                                                E 6.3.:., <                                                             ",
"                                                                                                                        ",
"                                                                                                                        ",
"                                                                                                                        ",
"                                                                                                                        ",
"                                                                                                                        ",
"                                                                                                                        ",
"                                                                                                                        ",
"                                                                                                                        ",
"                                                                                                                        ",
"                                                                                                                        "
};
