/* XPM */
static char *cd60fd3268564fb1fdcab1a4fb7bc684M3TGp1yhbEXiaKKJ[] = {
/* columns rows colors chars-per-pixel */
"60 60 224 2 ",
"   c #000000",
".  c #01010C",
"X  c #0B000A",
"o  c #010015",
"O  c #0C0013",
"+  c #00001D",
"@  c #0A001D",
"#  c #140014",
"$  c #14001C",
"%  c #1D001D",
"&  c #180017",
"*  c #010121",
"=  c #01012C",
"-  c #0A0027",
";  c #170027",
":  c #010133",
">  c #01013C",
",  c #0A0037",
"<  c #12003A",
"1  c #1C003A",
"2  c #1A0033",
"3  c #230023",
"4  c #2B002B",
"5  c #24002A",
"6  c #230134",
"7  c #2D0031",
"8  c #29003B",
"9  c #330034",
"0  c #380037",
"q  c #340039",
"w  c #3C003C",
"e  c #30002F",
"r  c #41003F",
"t  c #010145",
"y  c #01014C",
"u  c #0B014C",
"i  c #080140",
"p  c #1C014C",
"a  c #160046",
"s  c #010155",
"d  c #02025C",
"f  c #09015B",
"g  c #140158",
"h  c #280047",
"j  c #350044",
"k  c #3D0045",
"l  c #35004B",
"z  c #270059",
"x  c #370057",
"c  c #020264",
"v  c #02036B",
"b  c #0B0168",
"n  c #1D0063",
"m  c #12016C",
"M  c #180169",
"N  c #020373",
"B  c #0B0276",
"V  c #02027C",
"C  c #0B037D",
"Z  c #160176",
"A  c #280168",
"S  c #370068",
"D  c #2B027A",
"F  c #230277",
"G  c #360278",
"H  c #440044",
"J  c #480047",
"K  c #45004B",
"L  c #4B004B",
"P  c #440055",
"I  c #4D0055",
"U  c #49005B",
"Y  c #540054",
"T  c #560059",
"R  c #5A005A",
"E  c #580156",
"W  c #60015F",
"Q  c #490168",
"!  c #58016B",
"~  c #460175",
"^  c #590178",
"/  c #640164",
"(  c #690167",
")  c #63016B",
"_  c #6C016A",
"`  c #71026E",
"'  c #640275",
"]  c #750472",
"[  c #780477",
"{  c #7D047B",
"}  c #7B087A",
"|  c #80047E",
" . c #020383",
".. c #060984",
"X. c #03048B",
"o. c #07098B",
"O. c #090A8D",
"+. c #0A0883",
"@. c #180287",
"#. c #010293",
"$. c #070992",
"%. c #0A0C93",
"&. c #05079D",
"*. c #07099B",
"=. c #0A0D9B",
"-. c #0B0396",
";. c #180798",
":. c #0C109B",
">. c #270386",
",. c #370489",
"<. c #290699",
"1. c #390799",
"2. c #0506A3",
"3. c #0709A3",
"4. c #0B0DA4",
"5. c #0506AB",
"6. c #0608AE",
"7. c #0A0EAB",
"8. c #0D04AA",
"9. c #1808A9",
"0. c #0C11A4",
"q. c #0C11AC",
"w. c #070AB1",
"e. c #0A0CB5",
"r. c #0B0EBB",
"t. c #170DB7",
"y. c #0D10BE",
"u. c #0E12B3",
"i. c #1214B6",
"p. c #1F10AD",
"a. c #2707A9",
"s. c #370BA8",
"d. c #240CB5",
"f. c #350DB5",
"g. c #3312B8",
"h. c #490287",
"j. c #570387",
"k. c #490795",
"l. c #690387",
"z. c #780387",
"x. c #670496",
"c. c #77069B",
"v. c #4909AB",
"b. c #560AA5",
"n. c #4B14B2",
"m. c #5013B8",
"M. c #7808A3",
"N. c #690CAB",
"B. c #7B25B8",
"V. c #191FC2",
"C. c #262BC9",
"Z. c #2F32D5",
"A. c #2F35D8",
"S. c #3133D5",
"D. c #3035D8",
"F. c #3C34D6",
"G. c #3328CC",
"H. c #3312C4",
"J. c #441EC5",
"K. c #472CD2",
"L. c #4A4CCE",
"P. c #4B4DD3",
"I. c #4247D8",
"U. c #5659D7",
"Y. c #575ADA",
"T. c #585AD7",
"R. c #574CCD",
"E. c #6A69D6",
"W. c #7471DF",
"Q. c #766FD4",
"!. c #7275E6",
"~. c #7374E9",
"^. c #7A74E7",
"/. c #6A6FE3",
"(. c #7A51CE",
"). c #840383",
"_. c #880486",
"`. c #8D058B",
"'. c #86068A",
"]. c #91068E",
"[. c #91098A",
"{. c #890496",
"}. c #940593",
"|. c #990597",
" X c #9C059A",
".X c #9C099B",
"XX c #A1059E",
"oX c #A10A9F",
"OX c #8A08A5",
"+X c #920AB0",
"@X c #A30AA1",
"#X c #A90AA6",
"$X c #AC0CAC",
"%X c #A209A6",
"&X c #AC10AD",
"*X c #AC0FB3",
"=X c #B30FB3",
"-X c #AD10B6",
";X c #BD16B9",
":X c #B616B7",
">X c #C217BD",
",X c #C11ABD",
"<X c #841EC8",
"1X c #B513C4",
"2X c #B22ECB",
"3X c #9728C9",
"4X c #C01FC1",
"5X c #CC32D1",
"6X c #8A75EA",
"7X c #9B70DA",
"8X c #D847D7",
"9X c #EC6AE5",
"0X c #E969E6",
"qX c #EA73EA",
"wX c #F077EF",
"eX c #7E89E7",
"rX c #8082F2",
"tX c #AE93ED",
"yX c #AAADF0",
"uX c #EE92F0",
"iX c #F0A4F3",
"pX c #D3BCF6",
"aX c #B9C0F5",
"sX c #C0C2F7",
/* pixels */
"O $ ; 2 1 h p A n M m Z B B V V V V V V V V V V V V V V  . .V V V V  .V V V V V V V V N N N V V N N v v c d s y t > : = ",
"& ; 2 8 z S S D D @.@.@.@.-.-.-.X.#.#.X.#.#.#.#.#.#.#.#.#.#.#.#.#.#.#.#.#.#.#.#.#.#.#.#.#.#.X.X.X.X.X. .V N c d y t > : ",
"; 5 h x S ~ h.h.k.1.a.a.9.9.8.8.5.5.5.5.5.6.6.6.6.6.6.5.5.5.w.w.w.6.w.7.w.5.5.5.5.5.5.2.5.2.5.5.5.2.2.&.#.X.V N c s t > ",
"4 8 l P ~ j.x.x.b.b.v.f.a.9.t.8.8.w.w.w.e.e.r.r.r.r.V.V.V.V.r.V.y.y.y.y.r.r.r.r.e.e.r.w.w.e.w.q.6.w.w.e.w.2.&.X.N d s t ",
"7 q x Q ^ x.OXM.B.3X<Xv.s.R.W.W.E.U.U.U.U.U.Y.U.Y.Y.Y.Y.I.Y.Y.Y.Y.Y.Y.Y.Y.Y.T.T.Y.U.U.U.U.U.T.T.T.T.T.T.I.C.7.2...N c s ",
"8 k P ! l.OX+X5XiXqX3Xv.v.R.Q.E.T.L.L.L.L.L.L.L.P.P.P.P.I.P.P.P.U.P.P.P.P.P.P.P.L.L.P.L.L.L.L.L.L.L.P.P.!.sXeXi.3...N s ",
"q k U ! z.+X1XwX5XOXN.b.1.<.;.;.%.%.%.%.=.=.4.0.0.0.0.0.0.q.u.q.0.0.0.0.0.0.:.:.&.=.=.%.%.:.:.:.:.:.0.q.i.C.aX/.w.=.V c ",
"q H U ' z.+X8X5X+XM.x.k.1.>.>.+.C C +.+.......o.O.O.O.O.O.%.O.%.%.O.O.O.....O.O..... .+.....V ..+.O.O.:.0.u.C.yXV.4...v ",
"q k I ! z.*XqX1XOXc.x.h.G F Z m b v c v v v v v v N N N N N v N N N v N v v v v v v v v v v c c v N C ..:.4.u.eXZ.w.%.v ",
"q k I ) z.%X0X1XOXl.^ G G A n g f s d d d d d d d d d d d d d d c d d d d d d d d s s s y s s s d d v N ..=.u.!.Z.e.*.N ",
"q k T ) z.&X0X-X{.l.^ S A z g u u y y t y y t y y y y y y s s y y y y y y y y y t t t t t t t y y s d v V :.q.!.Z.u.*.V ",
"q H I ) '.%X9X*X{.' Q S x z p a > > > > > > > > > > i t > > i i > > t > i > > > > t > > : > > > t y s c N O.0.!.S.e.*.V ",
"0 H I / ).%X9X*X{.' Q U x h a < , = = = = = : : = = : : : : : = : : : : : = : = = = = = = = : : > t s d N O.0.!.S.y.&.V ",
"q H L / z.%X9X&X`.' T x h 8 2 ; - * * * * * * * * * * = * * * * * * + + * + * * + * * * + * = = > t y c N ..4.!.Z.u.&.V ",
"0 J I / | @X9X&X'.) I k j 8 ; ; @ o o o o o o o o o o o o o o o o o o + o o o o o o o o o o + = : t y d v O.:.!.S.y.*.V ",
"0 J Y / | oX9X&X'.( T K q 6 ; $ O . . . . . . . . . . . . . . . . . . . . . .   . . . . . o + * : t y d N O.4.!.Z.e.&.V ",
"0 H Y / | oX9X&X'./ L H 0 5 % # X                 .           .           .         .   . o + = : t s d N ..7.!.Z.e.&.V ",
"0 H Y / | oX9X&X)./ Y H 0 4 & O X                                                       . o o = : t y c N X.=.!.Z.e.&. .",
"r H Y / | oX9X#X).( Y H 0 5 % # X                                                       . o o = : t s c N X.3.!.Z.e.&.V ",
"r J E ( | oX9X$X).( I H 0 4 % X X                                                     . . o + = > t s c N o.7.!.Z.e.2.V ",
"w J E ( ).oX9X&X_._ Y H 0 4 & # X                                                       o o + = : t s c V o.4.!.Z.e.2. .",
"w L E ( ).#X9X=X_._ Y H 0 4 % # X                                                       . o + = > t s c N o.4.!.Z.r.2. .",
"w L E ( _.#X9X&X[._ Y J 0 4 % X X                                                       . o + = : t s c N $.0.~.Z.y.2. .",
"w L T _ _.#X9X=X'.` Y J 0 4 % # X                                                       . o + = > t s c N $.0.~.Z.y.&. .",
"r L R _ `.#X9X=X]._ Y H w 4 % # X                                                       . o + = > t s v N $.q.~.Z.V.2. .",
"r L R _ `.#X9X=X[._ T K w 4 % # X                                                       . o + = > t s v N %.q.!.Z.r.2. .",
"r L R ` ].$X9X=X[.` E J 0 4 % # X                                                       . o + = > y s v V $.q.~.Z.V.2. .",
"r L R ` `.$X9X=X[.` E K w 4 % # X                                                       . o o = : t s v V $.7.~.Z.V.3. .",
"r L E ` `.$X9X=X{.` T L w 4 % # X                                                       . o + = > t s v V %.q.~.D.y.3. .",
"r Y R ` ].$X9X=X[.` T K 0 4 % # X                                                       . o + = > t s v N %.q.~.D.y.4. .",
"r Y E ` ].$X9X>X[.` E L 0 4 % # X                                                       . o + = > t d v V $.e.~.D.y.3. .",
"r L W ` ].$X9X=X[.` E L w 4 % # X                                                       . o + = > t s v V $.u.~.D.y.3. .",
"w L R ] ].$X9X=X}.` R J 0 4 % # X                                                       . o + = > t s v V %.q.!.A.V.2. .",
"r L R ` ].$X9X=X].` E J w 4 % # X                                                       . + + = > t s v N %.q.~.A.V.2. .",
"H L R _ `.#X9X=X].` E J 0 4 % # X                                                       . o + = > t s v V O.q.!.A.r.2. .",
"w L R _ `.#X9X=X`._ E H 0 4 % # X                                                       . o + = > t s c V %.7.!.D.r.2. .",
"r L T _ '.#X9X=X[._ E J 0 4 % # X                                                       . o + = > t s v V o.4.~.D.r.2. .",
"w L E _ _.#X9X&X_._ E H 0 4 % # X                                                       . o + = : t s v N $.7.~.Z.r.&. .",
"w L R _ _.#X9X&X`._ E H 0 4 % # X                                                       X o + = > t s v N $.4.~.Z.e.2. .",
"w L E ( ).@X9X$X_.( Y H 0 4 % X X                                                       . o + = : t s c N o.4.~.Z.r.2. .",
"w L E / | oX9X&X_.( Y H 0 5 % # X                                                       o o + = : t s c N O.4.~.S.e.&. .",
"w J E / | oX9X#X_.( Y H 0 4 % X X                                                       . o + = > t s c N O.4.~.S.e.&. .",
"w J Y / | oX9X&X_./ Y H 9 4 % # X X   X           X X         X X   .         X   X     X o - = > t s v N O.0.~.S.e.&.V ",
"0 J Y / | #X9X&X_.( L H 9 4 & # X X X X X # # X X X X X X # X X X X X X X # X X X X O O O $ - , < u f b B O.0.^.S.e.&.V ",
"0 H Y / | oX9X&X_.( L H 0 5 % & # # # # # # # & & # & & & & & $ % # # & & & $ # & & # & $ ; < < u g g m C O.9.^.S.e.&.V ",
"0 J I / | oX9X&X_.( Y H 0 4 3 3 3 3 3 3 3 3 3 3 3 3 3 3 3 3 3 3 3 3 3 3 3 3 3 3 3 ; 3 3 5 6 6 1 h g n M Z ;.p.^.F.e.&.V ",
"q J L / | oXqX&X_._ Y H w 9 4 e 4 4 4 7 e 7 e 7 7 e 7 e 4 9 e 9 e e e 9 9 4 9 7 7 4 4 4 7 8 h h z z A F >.;.p.^.F.t.8.C ",
"0 H L W { oX9X&X[.` R L H w w w w w w w w w w w w H w k H w w w r k w w w w w w w w w w k k x x x S A D >.<.p.6XF.t.&.V ",
"9 r L / { @X9X=X}.[ / Y L J J H J J L L J L L L L I L L L L Y L L L L L L L L J L J J J P P U U S ~ G ,.>.s.d.6XF.V.8. .",
"9 w L W [ .X9X-X|.)._ / E E Y Y Y E E E E T E R R T R R W R R R R R R R R R R E E R Y T T T ! Q Q ~ ~ h.1.s.g.6XK.V.;. .",
"9 w L E ] |.qX;XoX`.| ] _ / / / / / / / / / ( ( _ _ _ _ _ _ _ _ ` _ _ ( _ ( / / / / / / ) ) ! ^ ^ j.h.k.k.v.g.6XK.d.;.C ",
"e 0 J Y ` [.qX5X#XXX}.]._.).).).).z.| ).).).).)._._.)._._._._._.'._.'.| ).).).).| { { { z.z.z.z.z.x.x.b.b.n.K.tXG.d.8. .",
"4 0 H L / | 4XiX4X#X@XoX.X.X.X|. X|.|.|.|.|. X X X X@XXXXX@X@X@XXXXXXX X X|.|.|.|.}.}.].}.{.{.{.{.M.M.N.N.m.tX6XH.d.9.B ",
"4 9 w J W ] [.8XiX8X,X,X,X;X;X,X;X;X;X;X;X;X>X>X>X>X>X>X>X>X>X>X>X>X>X;X>X;X;X;X;X:X=X:X:X:X:X:X2X+XM.N.7XsXtXJ.g.d.;.B ",
"3 4 0 r L ( } [.:X8X0X9X9X9XqXqX0X0X0X9X9X9X9X9X9X0X9X9X9X9X9X9X9X0X9X9X9X9X9X0X9X9X9X9X0XqXuXuXiX2XM.B.tX(.m.f.a.;.@.b ",
"3 4 e w J Y W ` | _.`.`.[.[.[.[.`.}.].`.].}.}.}.|.|. X XXXXXXX X X|.|.|.|.}.].].`.`.)._.| z.z.z.} l.l.j.k.k.1.1.<.@.B d ",
"% 3 4 e w H J E W / ` _ ` ` ` ` ] _ ] ` ` ] ] [ [ } { { | { | | ).{ [ [ ] ] ] ` ` ` ` _ ) ) ) ) ! ! Q ~ G G G F Z Z b y ",
"# % 3 4 e 0 k H J L L Y Y Y Y Y Y E Y R R R R W W W W W W / W W W W W W W W R R E E E E Y Y I U P P x x x z A n n g u , ",
"# & % 3 4 e 9 0 w w r r r H H H H L L J L L L L Y L Y L Y L L Y L Y Y L L L L J L L J H J H K k k l l j h h p p p u , = ",
"X # # % % 3 4 4 e e 9 9 0 0 0 0 w w w w r r r r r H H H H H H r H H H r r r r r w w w 0 w 0 q q q 7 8 8 6 1 1 < < , = @ "
};
