/* XPM */
static char *_40_F_423002705_RJ8nfiRHYHiWqu80Hfoe8nMnAjx34uML1644539454[] = {
/* columns rows colors chars-per-pixel */
"60 60 159 2 ",
"   c #FEFEFE",
".  c #FDFDFD",
"X  c #FBFBFB",
"o  c gray99",
"O  c #F8F8F8",
"+  c #F6F6F6",
"@  c gray96",
"#  c #F4F4F4",
"$  c gray95",
"%  c gray97",
"&  c #F9F9F9",
"*  c #F3F3F3",
"=  c #EFEFEF",
"-  c #EEEEEE",
";  c #EFEFF0",
":  c gray94",
">  c #EEEEEF",
",  c #EBEBEC",
"<  c #E8E8E9",
"1  c #FAFAF9",
"2  c #F4F4F3",
"3  c #EEEEF0",
"4  c #F0F0F1",
"5  c gray92",
"6  c #E7E7E7",
"7  c gray93",
"8  c #ECECEC",
"9  c #ECECEE",
"0  c #EDEDEF",
"q  c #EDEEED",
"w  c #ECEDEF",
"e  c #EBECEE",
"r  c #E6E7E9",
"t  c #E3E3E5",
"y  c #FBFBF9",
"u  c #F3F3F2",
"i  c #EBEBEE",
"p  c #EBEDEC",
"a  c #ECEDEC",
"s  c #ECEDED",
"d  c #ECEEED",
"f  c gray91",
"g  c #E2E2E2",
"h  c #EAEBED",
"j  c #E5E6E8",
"k  c #E1E2E4",
"l  c #FBFCF8",
"z  c #F3F3F1",
"x  c #EBEAEE",
"c  c #E1E1E1",
"v  c gray98",
"b  c #EBEBED",
"n  c #ECEBF0",
"m  c #E2E3E5",
"M  c #EDEDEE",
"N  c #ECECEF",
"B  c #EDEFEE",
"V  c #EEEFEE",
"C  c #EDECF1",
"Z  c #ECECED",
"A  c #ECEDF0",
"S  c #EDEEEF",
"D  c #EDEDF0",
"F  c #EBEDED",
"G  c #EBECED",
"H  c #E5E6EA",
"J  c #E2E3E7",
"K  c #FBFBFA",
"L  c #ECEDEE",
"P  c #EDEFEF",
"I  c #EEEDEF",
"U  c #E7E7E9",
"Y  c #E1E0E4",
"T  c #E7E6E9",
"R  c #E1E0E5",
"E  c #EBECEF",
"W  c #EBECF0",
"Q  c #EDECEC",
"!  c #EAECEC",
"~  c #E5E6E9",
"^  c #E2E3E6",
"/  c #E9ECEF",
"(  c #EAECEE",
")  c #EDEDEC",
"_  c #EBECEC",
"`  c #E8E7E9",
"'  c #DEE2E3",
"]  c #EAECEB",
"[  c #EAEBEE",
"{  c #EDEDEB",
"}  c #E8E7EA",
"|  c #EAEDEF",
" . c #EAEAEB",
".. c #ECEBEB",
"X. c #ECECEB",
"o. c #EBEBF0",
"O. c #EDECEE",
"+. c #EAECEF",
"@. c #EAECED",
"#. c #DFE1E3",
"$. c #EAEAEC",
"%. c #ECECEA",
"&. c #EAEBEB",
"*. c #E0E1E3",
"=. c #E9EBEB",
"-. c #E7E8EA",
";. c #E9EBEA",
":. c #E9EAEB",
">. c #EBEBEF",
",. c #E9EAEC",
"<. c #E8E9EB",
"1. c #EBECEB",
"2. c #F1F1F1",
"3. c #E3E4E6",
"4. c #E5E5E6",
"5. c #E2E2E4",
"6. c #E1E1E3",
"7. c #E1E1E2",
"8. c #E0E0E2",
"9. c #E6E6E7",
"0. c #E2E2E3",
"q. c #DFE0E2",
"w. c #DEDFE1",
"e. c #EAE9ED",
"r. c #E9E9EC",
"t. c #E9E9EB",
"y. c #EAEBEC",
"u. c #FBFAFB",
"i. c #F3F5F4",
"p. c #F3F4F4",
"a. c #F4F3F4",
"s. c #FCFCFB",
"d. c #F3F3F4",
"f. c #EDEEF0",
"g. c #EAEDEE",
"h. c #E6E6E8",
"j. c #FBFBF8",
"k. c #F2F2F0",
"l. c #E8E8EA",
"z. c #ECEBEF",
"x. c #FAFAF8",
"c. c #EEEDF0",
"v. c #EDECF0",
"b. c #EDEDF1",
"n. c #EDEEEE",
"m. c #ECEEEE",
"M. c #EAEEEF",
"N. c #EAEDEC",
"B. c #EAE6EA",
"V. c #EBEDEA",
"C. c #EFEFF1",
"Z. c #EBEEEF",
"A. c #E9EDF0",
"S. c #EBEBE9",
"D. c #EBEBEA",
"F. c #EBEAEF",
"G. c #EBEDEE",
"H. c #E9EDEE",
"J. c #E4E5E7",
/* pixels */
"  . . . X o o o o o o o o o o o o o o o o o o o o X o X . X   . . X X o o o X X o o o o o o o o o o o o o o o o o . o X ",
"X O + + @ @ @ @ + + @ @ @ @ @ + + + + + @ @ @ @ @ + @ # @ $ o O % # @ @ @ @ @ + # @ @ @ @ @ @ + + + @ @ @ @ @ @ @ + # $ ",
"& * = = - ; ; ; ; ; = = = : : = = = = = ; ; ; ; ; ; ; > , < 1 2 : - 3 - - - = = ; ; ; 4 4 : : : : : ; ; ; ; ; = - - 5 6 ",
"& $ 7 8 8 9 9 9 0 0 8 8 7 7 7 q q q q q w w w w w e e 9 r t y u = 9 i p p a s d 0 0 0 0 0 7 7 7 7 7 w w w w w 7 8 8 f g ",
"& $ 7 8 5 9 9 9 9 0 8 8 7 7 - d d d d d e e e e e h h e j k l z = 9 x p p p p p 0 0 0 0 0 7 7 7 7 - w w w w w 8 5 8 f c ",
"v $ > b 9 9 b 9 0 9 7 7 7 7 7 d d q 7 7 7 7 9 9 n p p w j m X * ; 9 b 9 b 9 0 9 7 7 7 7 7 0 0 0 0 0 0 0 9 9 9 p p s f g ",
"v $ > b 9 9 b 0 0 9 7 7 7 7 7 d d q 7 7 7 M 0 9 N p p w j m X * ; 9 b 9 b 0 0 9 7 7 7 7 7 0 0 0 0 0 0 0 0 9 9 p p a f c ",
"v * > 9 9 9 9 0 0 0 7 7 7 7 7 d d q 7 7 0 0 0 9 9 p p w j m X * > 9 9 9 9 0 0 0 7 7 7 - - 0 0 0 0 0 0 0 0 9 9 p p a f c ",
"v * > 9 9 9 9 0 0 0 7 7 7 - - B B V - - 0 0 0 M 7 p p w j m X $ > 9 9 9 9 0 0 0 7 7 - - - 3 3 3 3 3 0 0 0 0 0 p p a f c ",
"v * ; 9 9 9 9 0 3 0 7 7 - - - B B V - - C 0 0 7 7 p p w j m X $ > 9 0 9 9 0 3 0 7 7 - - = 3 3 3 3 3 0 0 0 0 0 p p a f c ",
"v * - 8 8 Z Z w w A w w S 3 3 - - > > 0 D 0 0 M 9 F G w H J K * 3 9 Z e e w 0 0 9 L 0 3 3 P P > 3 I M M M 7 Z G 8 8 U Y ",
"v * - 8 8 8 8 w w A w w 0 3 3 - - > 0 0 0 0 0 0 9 F e w H J y * 3 9 Z e e w 0 0 w w 0 3 3 B B > 3 0 7 7 7 7 8 9 Z 8 T R ",
"v * - 8 8 9 G 0 0 w w w 0 0 3 - - > 0 0 0 0 0 0 9 F e w H J y * 3 9 Z e e w 0 0 w w 0 0 3 B - > 3 0 7 7 7 7 8 9 Z 8 T R ",
"v * - 8 8 e e 0 M M w w 0 0 0 - - M 0 0 0 0 0 0 9 F e w H J y * 3 9 Z e e w 0 0 w w 0 0 0 7 - > w w 7 7 7 7 8 9 Z 8 T R ",
"v * - 8 8 E e w 7 7 w w 0 0 0 - 7 M 0 0 0 0 0 0 9 F e w H J y * 3 9 Z e e w 0 0 w w 0 0 0 7 - S w w 7 7 7 7 8 9 Z 8 T R ",
"v * - 8 7 W e 9 8 Q M M M 0 0 I 0 0 w w M M M 0 9 ! ! e ~ ^ y * 3 9 8 / ( e Z M ) ) M 0 C 0 0 0 0 0 0 0 0 9 9 _ ! 9 ` ' ",
"v * = 8 8 E e 9 8 8 7 7 M 0 0 0 0 0 w w 7 7 M 9 9 ] ! e j m y * 3 9 8 [ e e 8 7 { 7 M 0 C 0 0 0 0 0 0 0 0 9 9 _ ! 9 } ' ",
"v * - 8 8 e 9 9 9 9 7 7 M 0 0 0 0 0 0 w 7 7 Z 9 9 ] ! e j m y * 3 9 8 e e e e 9 ) 7 M 0 0 0 0 0 0 0 0 0 9 9 9 _ ! 9 } ' ",
"v * - 5 5 Z Z 9 e e 8 8 M 0 0 w 0 0 0 0 7 8 Z 9 9 ] ! e j m y * 3 9 8 Z G e e e 8 8 7 M 0 0 0 0 0 0 0 9 9 9 9 _ ! 9 } ' ",
"v * - 5 5 8 Z 9 e E 8 8 M 0 0 w w 0 0 0 8 8 Z 9 9 ] ! e j m y * 3 9 8 8 Z e e | Z 8 7 7 7 0 0 0 0 0 9 9 9 9 9 _ ! 9 } ' ",
"& $ >  ., ..X.G i o.Z Z 9 w w M L L M O.Z Z 9 9 9 ] ! e j m K * 3 9 , X._ G e +.9 9 Z M O.0 0 0 0 0 e e 9 9 w _ @.i U #.",
"& $ > $.b %.8 Z 9 n e e e e e 7 8 8 8 8 e e e e e ] &.e j m X * ; 9 b 8 8 Z 9 9 e e 9 9 9 0 9 9 9 9 e e e e e h h h r *.",
"& $ > $.b 8 8 Z 9 9 e e e e e 8 8 8 8 8 9 9 9 9 b ] &.e j m X * ; 9 b 8 8 8 Z 9 e 9 9 9 9 9 9 9 9 9 e e e h h h h h r *.",
"& $ > $.b 8 8 8 Z 9 e e e e e 8 8 8 8 8 b 9 9 9 b ] =.h j m X * ; 9 b 9 Z 8 8 8 Z Z Z F F 9 9 9 9 9 e e h h h h h h -.*.",
"& $ > $.b , 5 5 5 , e e e e e 8 8 8 8 5 h b e h h ;.=.h j m X * ; 9 b b b , 5 5 8 8 8 p p 9 9 9 9 b h h h h e h h h -.*.",
"v $ > b 9 i i b b b e e e e e G G G , , h h e e e :.:.h j m X * > 9 b i i i b , b G G G G e e e b b i i >.>.>.h ,.h -.k ",
"& $ > b b h h h h h b b b b b h h h h h h h b b b <.,.h j m v * > 9 $.b b b b b h h h h h h h h h h b b b b b ,.,.h r *.",
"& * ; 0 9 _ 1.1._ _ 9 9 9 9 9 e e e e e e e e b b ,.h e j m v $ > 0 b 8 8 8 8 8 e e e e e e e e e e 5 8 8 8 5 h h e r *.",
"& 2.> 9 b 8 5 5 5 8 b b b b b h h h h h e e e b $.,.h h j 3.X * > 9 9 5 5 5 5 5 h h h h h h h h h h 5 5 8 5 5 h h h j *.",
"+ 8 4.5.6.6.6.7.6.6.6.6.6.6.6.*.*.*.*.*.*.*.6.6.6.8.6.t 6.8.% 7 9.5.6.6.6.6.6.6.*.*.*.*.*.*.*.*.*.*.7.6.0.6.7.q.k m *.w.",
"v $ M , $.e.e.r.e.e. . .$.$.$.,.,.,.,.,.t.t.$.$.$.t.$.9 M > v $ 7 ,  .e.e.e.e.e.:.,.,.:.:.,.,.,.,.,.e.e.e.e.r.t.y.9 L L ",
"  o X o X v v X X X v v X X X X X X X X X X X u.u.v v v X & . o o v o v v X X X v X X v v X X X X X X X X X X v v v v & ",
"v + # * $ * * * # # * * # # # # # # # # i.p.# a.a.* * $ 2.- s.% # $ d.* * # # * * * # # * * * # # # * * * * * * * $ 2.7 ",
"& * = - 7 > > > 3 3 > 3 ; ; 3 ; ; ; ; ; f.f.3 3 3 > > 0 t.9.K 2 : M 3 0 > 3 3 > - - = = = > > 3 3 3 3 3 3 3 3 3 > M , 4.",
"& $ 7 8 8 9 9 9 9 9 9 9 0 0 0 0 0 0 0 0 g.e e 9 9 b 9 9 h.t j.k.- 9 i b 9 9 9 9 8 8 7 7 7 0 0 0 0 0 9 9 9 9 9 9 9 b l.6.",
"& $ M 8 , , b 9 9 Z 9 9 M M 9 0 0 0 0 0 g.e 9 e N G G w h.5.j.u = M z.b b 9 9 9 8 8 7 7 7 S 0 0 0 0 9 9 9 9 N Z b Z l.8.",
"v $ > b 9 X.b 9 0 X.7 7 7 7 7 w w 0 0 0 7 M 0 9 n p p w j m x.u = Z b h e 9 9 0 7 7 7 7 7 d d d d d 7 Z 0 0 n 8 8 7 f c ",
"v * > b 9 8 b 0 0 Z 7 7 7 7 7 w w 0 0 0 M M 0 0 9 p p w j m x.u = Z 9 e e 9 0 0 7 7 7 - - d d d d d M Z 0 0 9 Z Z s < 7.",
"v * > 9 9 9 9 0 0 0 7 7 7 - - f.f.f.3 3 0 0 0 0 9 p p w j m x.u - Z 9 e e 9 0 0 7 7 - - - B B B B B 0 9 0 0 9 e e w -.*.",
"v * ; 9 9 n 9 M D C 7 7 - - - f.f.3 3 3 D 0 0 7 8 p p w j m y u - Z 9 e e w 0 0 7 7 - - = B B B B B c.0 0 7 8 e e w -.*.",
"v * > Z Z N 9 s c.C M M - > = f.f.3 3 3 v.0 0 7 Z p p w j m y u - Z 9 e e w 0 D 7 7 - = = B B B B B b.0 0 7 Z G e 9 -.*.",
"v * - 8 8 p _ w 0 C w w f.3 3 - - > 3 0 w w 0 0 9 p p w j m y * 3 9 Z p _ w 0 C d d n.- - - - > 3 0 w w w w e 8 8 Z U 6.",
"v * - 8 8 F _ w 0 0 w w 0 3 3 - - > 3 0 w w 0 0 9 p p w j m y * 3 9 Z F _ w 0 0 m.m.n.- > - - > 3 0 w w w w e 8 8 Z U 6.",
"v * - 8 8 e e w 0 0 w w 0 0 3 - - > 0 0 w w 0 0 9 p p w j m y * 3 9 Z e e w 0 0 w w 0 0 3 - - > 0 0 w w w w e 8 8 Z U 6.",
"v * - 8 8 e e w 7 7 w w 0 0 0 7 - > 0 0 w w 0 0 9 p p w j m y * 3 9 Z e e w 7 7 w w 0 0 0 7 - > 0 0 w w w w e 8 8 Z U 6.",
"v * - 8 8 W e w 7 7 w w 0 0 0 7 7 > 0 9 w w 0 0 9 p p w j m y * 3 9 Z W e w 7 7 w w 0 0 0 7 7 > 0 9 w w w w e 8 8 Z U 6.",
"v $ - 8 8 e e e 9 9 7 7 M 0 0 0 0 w w M.{ 7 0 9 Z ] ! e j m y $ 3 9 Z / e e 8 7 7 7 M 0 0 0 0 0 w w 8 9 n 9 8 _ N.Z B.*.",
"v * - 8 8 e e e 9 9 7 7 7 0 0 0 0 w w w ) M 0 9 8 ] ! e j m y * 3 9 8 [ e e Z 7 7 7 M 0 0 0 0 0 w w 8 9 n 9 8 _ N.Z B.*.",
"v * - 8 8 e e e 9 9 M 7 7 7 M w w w w w 7 M 9 9 X.] ! e j m y * 3 9 8 e e e e e 7 7 M 0 0 0 0 0 0 0 8 9 n 9 8 _ N.Z B.*.",
"v * - 5 8 e e e 9 9 9 Z 7 7 7 w w w 0 0 s e e p V.] ! e j m y * C.9 , Z Z e e e 8 8 M 0 0 w w 0 0 0 8 9 n 9 8 _ N.Z B.*.",
"v * - 5 5 e e e 9 9 9 9 M 7 ) Z.w w 0 0 e e e p V.] ! e j m x.* C.9 , 8 Z e e A.8 8 M 0 0 w w 0 0 0 8 9 n 9 8 _ N.Z B.*.",
"& $ > $.b 5 5 , b b p p p p p 9 9 9 9 9 8 8 8 8 8 ] ! e j k X * ; 9 b S.D., i F.] p p p d 0 0 9 9 9 8 8 8 8 8 h h h r q.",
"& $ > $.b 8 8 8 9 9 e e e e e e e e e e 8 8 8 8 8 ] ! e j k X * ; 9 b %.8 Z 9 n h G e G.w 0 9 9 9 9 8 8 8 8 8 h h h r q.",
"& $ > $.b Z 8 8 8 Z W W W W W H.H.H.H.H.8 8 8 8 8 ] &.h j m X * ; 9 b 8 8 Z 9 9 W W W W W 9 9 9 9 9 8 8 8 8 8 h h h r *.",
"& $ > $.b 9 Z 8 8 8 N N N N N e e e e e 5 5 5 5 5 ] =.h j m X * ; 9 b 8 8 8 Z 9 E E E E E 9 9 9 9 b 5 5 5 5 5 ,.,.h r *.",
"& $ > $.b b b , 5 D.8 8 8 8 8 9 9 9 9 9 5 5 5 5 5 ] ;.,.j m X * ; 9 b b , 5 5 5 p p p p p 9 9 9 b b 5 5 5 5 5 ,.,.h r *.",
"& $ > 9 b [ [ [ h h G G G G G [ [ [ [ [ h h h h h :.:.,.J.3.X * > 9 b i i i i i G G G G G h h h h h b b b b b <.,.h r *.",
"v * ; 9 b ! ! ! ! ! h h h h h ! ! ! ! ! ! ! ! ! ! ,.h h J.m X * ; 9 b G G G G G e e e e e h h h h h b b b b b <.h e r *.",
"& $ ; 9 b ] ] ] ] ] h h h h h ] ] ] ] ] ] ] ] ] ] ,.h h J.k v * ; 9 b ] ] ] ] ] h h h h h h h h h h 9 9 9 9 9 ,.,.h r *.",
"& 2.M $.$.] ] ] ] ] h h h h h ] ] ] ] ] ] ] ] ] ] ,.,.,.J.3.v 2.M $.t.;.;.;.;.;.h h h h h h h h h h t.t.t.t.t.<.<.,.j k "
};
